{
.appVersion = "99";
copyright = "Copyright (c) 2010-2011 by tyPoland Lukasz Dziedzic with Reserved Font Name \"Lato\". Licensed under the SIL Open Font License, Version 1.1.";
date = "2011-09-12 07:00:00 +0000";
designer = "Paul Go";
designerURL = "http://www.github.com/paul-go";
familyName = "Lato Code";
featurePrefixes = (
{
automatic = 1;
code = "languagesystem DFLT dflt;\012";
name = Languagesystems;
}
);
features = (
{
automatic = 1;
code = "feature frac;\012feature ordn;\012";
name = aalt;
},
{
automatic = 1;
code = "sub one slash four by onequarter;\012sub one slash two by onehalf;\012sub three slash four by threequarters;\012";
name = frac;
},
{
automatic = 1;
code = "sub [zero one two three four five six seven eight nine] [A a]' by ordfeminine;\012sub [zero one two three four five six seven eight nine] [O o]' by ordmasculine;\012";
name = ordn;
},
{
automatic = 1;
code = "sub f i by fi;\012sub f l by fl;\012";
name = liga;
}
);
fontMaster = (
{
ascender = 1610;
capHeight = 1433;
custom = Italic;
customParameters = (
{
name = "Prep Table Assembly";

glyphs = (
{
glyphname = A;
layers = (
{
layerId = "30DC88F3-813A-4685-BB5F-1C042FFC1B6D";
paths = (
{
closed = 1;
nodes = (
"829 1433 LINE",
"640 1433 LINE",
"-63 0 LINE",
"83 0 LINE SMOOTH",
"113.667 0 OFFCURVE",
"140 21 OFFCURVE",
"152 45 CURVE SMOOTH",
"316 395 LINE",
"900 395 LINE",
"978 45 LINE SMOOTH",
"984.667 18.333 OFFCURVE",
"1002.667 0 OFFCURVE",
"1036 0 CURVE SMOOTH",
"1180 0 LINE"
);
},
{
closed = 1;
nodes = (
"657 1123 LINE SMOOTH",
"674.333 1157.667 OFFCURVE",
"694.333 1203.333 OFFCURVE",
"713 1254 CURVE",
"719.667 1203.333 OFFCURVE",
"730 1158.667 OFFCURVE",
"738 1124 CURVE SMOOTH",
"870 531 LINE",
"379 531 LINE"
);
}
);
userData = {
assembly = "NPUSHB[ ]\011/* 12 values pushed */
15 14 13 12 11 9 6 5 2 0 5 7 
CALL[ ]\011/* CallFunction */
MPPEM[ ]\011/* MeasurePixelPerEm */
PUSHB[ ]\011/* 1 value pushed */
95 
LT[ ]\011/* LessThan */
IF[ ]\011/* If */
NPUSHB[ ]\011/* 29 values pushed */
19 1 4 3 1 30 0 4 0 1 0 4 1 0 2 38 0 3 3 11 31 2 1 0 0 12 0 32 4 
ELSE[ ]\011/* Else */
MPPEM[ ]\011/* MeasurePixelPerEm */
PUSHB[ ]\011/* 1 value pushed */
108 
LT[ ]\011/* LessThan */
IF[ ]\011/* If */
NPUSHB[ ]\011/* 29 values pushed */
19 1 4 3 1 30 0 3 4 3 52 0 4 0 1 0 4 1 0 2 38 2 1 0 0 15 0 32 4 
ELSE[ ]\011/* Else */
MPPEM[ ]\011/* MeasurePixelPerEm */
PUSHB[ ]\011/* 1 value pushed */
232 
LT[ ]\011/* LessThan */
IF[ ]\011/* If */
NPUSHB[ ]\011/* 40 values pushed */
19 1 4 3 1 30 0 3 4 3 52 2 1 0 1 0 53 0 4 1 1 4 0 0 35 0 4 4 1 0 2 36 0 1 4 1 0 2 33 6 
ELSE[ ]\011/* Else */
NPUSHB[ ]\011/* 46 values pushed */
19 1 4 3 1 30 0 3 4 3 52 0 2 1 0 1 2 0 50 0 0 0 51 0 4 1 1 4 0 0 35 0 4 4 1 0 2 36 0 1 4 1 0 2 33 7 
EIF[ ]\011/* EndIf */
EIF[ ]\011/* EndIf */
EIF[ ]\011/* EndIf */
PUSHB[ ]\011/* 1 value pushed */
56 
CALL[ ]\011/* CallFunction */";
};
width = 1237;
}
);
note = A;
unicode = 0041;
},
{
glyphname = Aogonek;
layers = (
{
layerId = "30DC88F3-813A-4685-BB5F-1C042FFC1B6D";
paths = (
{
closed = 1;
nodes = (
"1178.741 -214 OFFCURVE",
"1132.128 -238 OFFCURVE",
"1102 -238 CURVE SMOOTH",
"1059.333 -238 OFFCURVE",
"1030 -209.667 OFFCURVE",
"1030 -167 CURVE SMOOTH",
"1030 -91.325 OFFCURVE",
"1098.196 -34.173 OFFCURVE",
"1158 0 CURVE",
"1180 0 LINE",
"829 1433 LINE",
"640 1433 LINE",
"-63 0 LINE",
"83 0 LINE SMOOTH",
"113.667 0 OFFCURVE",
"140 21 OFFCURVE",
"152 45 CURVE SMOOTH",
"316 395 LINE",
"900 395 LINE",
"978 45 LINE SMOOTH",
"984.667 18.333 OFFCURVE",
"1002.667 0 OFFCURVE",
"1036 0 CURVE SMOOTH",
"1049 0 LINE",
"961 -54.667 OFFCURVE",
"897 -130 OFFCURVE",
"897 -214 CURVE SMOOTH",
"897 -291.333 OFFCURVE",
"953.667 -342 OFFCURVE",
"1055 -342 CURVE SMOOTH",
"1119 -342 OFFCURVE",
"1182 -320.667 OFFCURVE",
"1222 -290 CURVE",
"1204 -226 LINE SMOOTH",
"1202 -218 OFFCURVE",
"1196.667 -214 OFFCURVE",
"1188 -214 CURVE SMOOTH"
);
},
{
closed = 1;
nodes = (
"657 1123 LINE SMOOTH",
"674.333 1157.667 OFFCURVE",
"694.333 1203.333 OFFCURVE",
"713 1254 CURVE",
"719.667 1203.333 OFFCURVE",
"730 1158.667 OFFCURVE",
"738 1124 CURVE SMOOTH",
"870 531 LINE",
"379 531 LINE"
);
}
);
userData = {
assembly = "NPUSHB[ ]\011/* 24 values pushed */
1 0 41 40 36 34 27 26 25 24 23 21 18 17 14 12 7 5 0 39 1 39 10 7 
CALL[ ]\011/* CallFunction */
MPPEM[ ]\011/* MeasurePixelPerEm */
PUSHB[ ]\011/* 1 value pushed */
21 
LT[ ]\011/* LessThan */
IF[ ]\011/* If */
NPUSHB[ ]\011/* 48 values pushed */
45 1 8 5 3 1 1 0 2 30 0 8 0 3 2 8 3 0 2 38 0 5 5 11 31 6 4 2 2 2 12 31 7 9 2 0 0 1 1 0 36 0 1 1 16 1 32 6 
ELSE[ ]\011/* Else */
MPPEM[ ]\011/* MeasurePixelPerEm */
PUSHB[ ]\011/* 1 value pushed */
73 
LT[ ]\011/* LessThan */
IF[ ]\011/* If */
NPUSHB[ ]\011/* 55 values pushed */
45 1 8 5 3 1 1 7 2 30 9 1 0 2 7 2 0 7 50 0 8 0 3 2 8 3 0 2 38 0 5 5 11 31 6 4 2 2 2 12 31 0 7 7 1 1 0 36 0 1 1 16 1 32 7 
ELSE[ ]\011/* Else */
MPPEM[ ]\011/* MeasurePixelPerEm */
PUSHB[ ]\011/* 1 value pushed */
95 
LT[ ]\011/* LessThan */
IF[ ]\011/* If */
NPUSHB[ ]\011/* 52 values pushed */
45 1 8 5 3 1 1 7 2 30 9 1 0 2 7 2 0 7 50 0 8 0 3 2 8 3 0 2 38 0 7 0 1 7 1 1 0 37 0 5 5 11 31 6 4 2 2 2 12 2 32 6 
ELSE[ ]\011/* Else */
MPPEM[ ]\011/* MeasurePixelPerEm */
PUSHB[ ]\011/* 1 value pushed */
108 
LT[ ]\011/* LessThan */
IF[ ]\011/* If */
NPUSHB[ ]\011/* 52 values pushed */
45 1 8 5 3 1 1 7 2 30 0 5 8 5 52 9 1 0 2 7 2 0 7 50 0 8 0 3 2 8 3 0 2 38 0 7 0 1 7 1 1 0 37 6 4 2 2 2 15 2 32 6 
ELSE[ ]\011/* Else */
MPPEM[ ]\011/* MeasurePixelPerEm */
PUSHB[ ]\011/* 1 value pushed */
232 
LT[ ]\011/* LessThan */
IF[ ]\011/* If */
NPUSHB[ ]\011/* 66 values pushed */
45 1 8 5 3 1 1 7 2 30 0 5 8 5 52 6 4 2 2 3 0 3 2 0 50 9 1 0 7 3 0 7 48 0 8 0 3 2 8 3 0 2 38 0 7 1 1 7 1 0 35 0 7 7 1 1 0 36 0 1 7 1 1 0 33 8 
ELSE[ ]\011/* Else */
NPUSHB[ ]\011/* 78 values pushed */
45 1 8 5 3 1 1 7 2 30 0 5 8 5 52 0 6 3 4 3 6 4 50 0 4 2 3 4 2 48 0 2 0 3 2 0 48 9 1 0 7 3 0 7 48 0 8 0 3 6 8 3 0 2 38 0 7 1 1 7 1 0 35 0 7 7 1 1 0 36 0 1 7 1 1 0 33 10 
EIF[ ]\011/* EndIf */
EIF[ ]\011/* EndIf */
EIF[ ]\011/* EndIf */
EIF[ ]\011/* EndIf */
EIF[ ]\011/* EndIf */
PUSHB[ ]\011/* 1 value pushed */
56 
CALL[ ]\011/* CallFunction */";
};
width = 1237;
}
);
note = Aogonek;
unicode = 0104;
},
{
glyphname = AE;
layers = (
{
layerId = "30DC88F3-813A-4685-BB5F-1C042FFC1B6D";
paths = (
{
closed = 1;
nodes = (
"-88 0 LINE",
"57 0 LINE SMOOTH",
"89 0 OFFCURVE",
"115.333 21 OFFCURVE",
"130 45 CURVE SMOOTH",
"335 395 LINE",
"840 395 LINE",
"840 0 LINE",
"1550 0 LINE",
"1570 152 LINE",
"1016 152 LINE",
"1016 649 LINE",
"1509 649 LINE",
"1528 796 LINE",
"1016 796 LINE",
"1016 1280 LINE",
"1708 1280 LINE",
"1726 1433 LINE",
"772 1433 LINE"
);
},
{
closed = 1;
nodes = (
"779 1151 LINE SMOOTH",
"801.667 1189.667 OFFCURVE",
"821.333 1232 OFFCURVE",
"840 1280 CURVE",
"840 531 LINE",
"415 531 LINE"
);
}
);
userData = {
assembly = "NPUSHB[ ]\011/* 20 values pushed */
20 19 18 16 13 12 11 10 9 8 7 6 5 4 3 2 1 0 9 7 
CALL[ ]\011/* CallFunction */
MPPEM[ ]\011/* MeasurePixelPerEm */
PUSHB[ ]\011/* 1 value pushed */
95 
LT[ ]\011/* LessThan */
IF[ ]\011/* If */
NPUSHB[ ]\011/* 52 values pushed */
21 1 1 1 29 0 2 0 3 8 2 3 0 0 38 0 8 0 6 4 8 6 0 0 38 0 1 1 0 0 0 36 0 0 0 11 31 0 4 4 5 1 0 36 7 1 5 5 12 5 32 7 
ELSE[ ]\011/* Else */
MPPEM[ ]\011/* MeasurePixelPerEm */
PUSHB[ ]\011/* 1 value pushed */
108 
LT[ ]\011/* LessThan */
IF[ ]\011/* If */
NPUSHB[ ]\011/* 50 values pushed */
21 1 1 1 29 0 0 0 1 2 0 1 0 0 38 0 2 0 3 8 2 3 0 0 38 0 8 0 6 4 8 6 0 0 38 0 4 4 5 1 0 36 7 1 5 5 15 5 32 6 
ELSE[ ]\011/* Else */
MPPEM[ ]\011/* MeasurePixelPerEm */
PUSHB[ ]\011/* 1 value pushed */
232 
LT[ ]\011/* LessThan */
IF[ ]\011/* If */
NPUSHB[ ]\011/* 59 values pushed */
21 1 1 1 29 0 0 0 1 2 0 1 0 0 38 0 2 0 3 8 2 3 0 0 38 0 8 0 6 4 8 6 0 0 38 0 4 5 5 4 0 0 35 0 4 4 5 1 0 36 7 1 5 4 5 1 0 33 7 
ELSE[ ]\011/* Else */
NPUSHB[ ]\011/* 66 values pushed */
21 1 1 1 29 0 7 4 5 4 7 5 50 0 0 0 1 2 0 1 0 0 38 0 2 0 3 8 2 3 0 0 38 0 8 0 6 4 8 6 0 0 38 0 4 7 5 4 0 0 35 0 4 4 5 0 0 36 0 5 4 5 0 0 33 8 
EIF[ ]\011/* EndIf */
EIF[ ]\011/* EndIf */
EIF[ ]\011/* EndIf */
PUSHB[ ]\011/* 1 value pushed */
56 
CALL[ ]\011/* CallFunction */";
};
width = 1705;
}
);
note = AE;
unicode = 00C6;
},
{
glyphname = B;
layers = (
{
layerId = "30DC88F3-813A-4685-BB5F-1C042FFC1B6D";
paths = (
{
closed = 1;
nodes = (
"569 0 LINE SMOOTH",
"730.333 0 OFFCURVE",
"860.667 46 OFFCURVE",
"950 126 CURVE SMOOTH",
"1039.333 206 OFFCURVE",
"1088 318 OFFCURVE",
"1088 450 CURVE SMOOTH",
"1088 599.333 OFFCURVE",
"1001 697.333 OFFCURVE",
"829 736 CURVE",
"927.667 766.667 OFFCURVE",
"1001.667 818.667 OFFCURVE",
"1051 884 CURVE SMOOTH",
"1100.333 949.333 OFFCURVE",
"1125 1027.667 OFFCURVE",
"1125 1113 CURVE SMOOTH",
"1125 1210.333 OFFCURVE",
"1092.333 1291.167 OFFCURVE",
"1023 1346.5 CURVE SMOOTH",
"953.667 1401.833 OFFCURVE",
"847.333 1433 OFFCURVE",
"698 1433 CURVE SMOOTH",
"274 1433 LINE",
"97 0 LINE"
);
},
{
closed = 1;
nodes = (
"646 655 LINE SMOOTH",
"818 655 OFFCURVE",
"903 573.667 OFFCURVE",
"903 447 CURVE SMOOTH",
"903 355 OFFCURVE",
"876.333 281 OFFCURVE",
"823 229 CURVE SMOOTH",
"769.667 177 OFFCURVE",
"689.333 148 OFFCURVE",
"584 148 CURVE SMOOTH",
"302 148 LINE",
"365 655 LINE"
);
},
{
closed = 1;
nodes = (
"443 1286 LINE",
"681 1286 LINE SMOOTH",
"854.333 1286 OFFCURVE",
"935 1217.333 OFFCURVE",
"935 1080 CURVE SMOOTH",
"935 993.333 OFFCURVE",
"908.5 919.833 OFFCURVE",
"854.5 868.5 CURVE SMOOTH",
"800.5 817.167 OFFCURVE",
"720 787 OFFCURVE",
"612 787 CURVE SMOOTH",
"381 787 LINE"
);
}
);
userData = {
assembly = "NPUSHB[ ]\011/* 22 values pushed */
21 21 0 0 42 40 34 32 21 31 21 30 24 22 0 20 0 19 3 1 8 7 
CALL[ ]\011/* CallFunction */
MPPEM[ ]\011/* MeasurePixelPerEm */
PUSHB[ ]\011/* 1 value pushed */
95 
LT[ ]\011/* LessThan */
IF[ ]\011/* If */
NPUSHB[ ]\011/* 44 values pushed */
12 1 3 4 1 30 0 4 7 1 3 2 4 3 1 0 38 0 5 5 0 1 0 36 0 0 0 11 31 0 2 2 1 1 0 36 6 1 1 1 12 1 32 6 
ELSE[ ]\011/* Else */
MPPEM[ ]\011/* MeasurePixelPerEm */
PUSHB[ ]\011/* 1 value pushed */
108 
LT[ ]\011/* LessThan */
IF[ ]\011/* If */
NPUSHB[ ]\011/* 42 values pushed */
12 1 3 4 1 30 0 0 0 5 4 0 5 1 0 38 0 4 7 1 3 2 4 3 1 0 38 0 2 2 1 1 0 36 6 1 1 1 15 1 32 5 
ELSE[ ]\011/* Else */
NPUSHB[ ]\011/* 51 values pushed */
12 1 3 4 1 30 0 0 0 5 4 0 5 1 0 38 0 4 7 1 3 2 4 3 1 0 38 0 2 1 1 2 1 0 35 0 2 2 1 1 0 36 6 1 1 2 1 1 0 33 6 
EIF[ ]\011/* EndIf */
EIF[ ]\011/* EndIf */
PUSHB[ ]\011/* 1 value pushed */
56 
CALL[ ]\011/* CallFunction */";
};
width = 1191;
}
);
note = B;
unicode = 0042;
},
{
glyphname = C;
layers = (
{
layerId = "30DC88F3-813A-4685-BB5F-1C042FFC1B6D";
paths = (
{
closed = 1;
nodes = (
"565.667 145 OFFCURVE",
"469.167 190.5 OFFCURVE",
"400.5 272.5 CURVE SMOOTH",
"331.833 354.5 OFFCURVE",
"291 473 OFFCURVE",
"291 621 CURVE SMOOTH",
"291 825 OFFCURVE",
"351.333 991.167 OFFCURVE",
"450 1106.5 CURVE SMOOTH",
"548.667 1221.833 OFFCURVE",
"687.333 1286 OFFCURVE",
"842 1286 CURVE SMOOTH",
"958 1286 OFFCURVE",
"1026.5 1253.833 OFFCURVE",
"1072.5 1222.5 CURVE SMOOTH",
"1107.57 1198.611 OFFCURVE",
"1143.788 1159 OFFCURVE",
"1165 1159 CURVE SMOOTH",
"1185 1159 OFFCURVE",
"1197.333 1168.667 OFFCURVE",
"1208 1182 CURVE SMOOTH",
"1272 1260 LINE",
"1224 1317.333 OFFCURVE",
"1170 1364.667 OFFCURVE",
"1102 1398 CURVE SMOOTH",
"1034 1431.333 OFFCURVE",
"952.333 1449 OFFCURVE",
"851 1449 CURVE SMOOTH",
"640.333 1449 OFFCURVE",
"452.833 1363.167 OFFCURVE",
"317.5 1214.5 CURVE SMOOTH",
"182.167 1065.833 OFFCURVE",
"100 855.333 OFFCURVE",
"100 606 CURVE SMOOTH",
"100 423.333 OFFCURVE",
"151.5 268.5 OFFCURVE",
"245.5 158.5 CURVE SMOOTH",
"339.5 48.5 OFFCURVE",
"477.333 -16 OFFCURVE",
"648 -16 CURVE SMOOTH",
"865.333 -16 OFFCURVE",
"1024.667 63 OFFCURVE",
"1150 199 CURVE",
"1085 280 LINE SMOOTH",
"1079.667 286.667 OFFCURVE",
"1072 292 OFFCURVE",
"1060 292 CURVE SMOOTH",
"1042.817 292 OFFCURVE",
"984.96 241.517 OFFCURVE",
"952.5 218.5 CURVE SMOOTH",
"934.167 205.5 OFFCURVE",
"912 193.667 OFFCURVE",
"886 183 CURVE SMOOTH",
"834 161.667 OFFCURVE",
"767 145 OFFCURVE",
"679 145 CURVE SMOOTH"
);
}
);
userData = {
assembly = "NPUSHB[ ]\011/* 18 values pushed */
1 0 39 37 34 32 25 23 15 13 8 6 0 47 1 47 7 7 
CALL[ ]\011/* CallFunction */
MPPEM[ ]\011/* MeasurePixelPerEm */
PUSHB[ ]\011/* 1 value pushed */
95 
LT[ ]\011/* LessThan */
IF[ ]\011/* If */
NPUSHB[ ]\011/* 52 values pushed */
29 1 4 5 11 1 0 1 2 30 0 4 5 1 5 4 1 50 0 1 0 5 1 0 48 0 5 5 3 1 0 36 0 3 3 17 31 6 1 0 0 2 1 0 36 0 2 2 18 2 32 7 
ELSE[ ]\011/* Else */
MPPEM[ ]\011/* MeasurePixelPerEm */
PUSHB[ ]\011/* 1 value pushed */
108 
LT[ ]\011/* LessThan */
IF[ ]\011/* If */
NPUSHB[ ]\011/* 50 values pushed */
29 1 4 5 11 1 0 1 2 30 0 4 5 1 5 4 1 50 0 1 0 5 1 0 48 0 3 0 5 4 3 5 1 0 38 6 1 0 0 2 1 0 36 0 2 2 21 2 32 6 
ELSE[ ]\011/* Else */
NPUSHB[ ]\011/* 60 values pushed */
29 1 4 5 11 1 0 1 2 30 0 4 5 1 5 4 1 50 0 1 0 5 1 0 48 0 3 0 5 4 3 5 1 0 38 6 1 0 2 2 0 1 0 35 6 1 0 0 2 1 0 36 0 2 0 2 1 0 33 7 
EIF[ ]\011/* EndIf */
EIF[ ]\011/* EndIf */
PUSHB[ ]\011/* 1 value pushed */
56 
CALL[ ]\011/* CallFunction */";
};
width = 1234;
}
);
note = C;
unicode = 0043;
},
{
glyphname = Ccedilla;
layers = (
{
layerId = "30DC88F3-813A-4685-BB5F-1C042FFC1B6D";
paths = (
{
closed = 1;
nodes = (
"497 -249 OFFCURVE",
"489.333 -254.667 OFFCURVE",
"484 -266 CURVE SMOOTH",
"461 -319 LINE",
"497 -339 OFFCURVE",
"541.333 -351 OFFCURVE",
"592 -351 CURVE SMOOTH",
"714.836 -351 OFFCURVE",
"813 -297.158 OFFCURVE",
"813 -198 CURVE SMOOTH",
"813 -136.667 OFFCURVE",
"770.667 -94.667 OFFCURVE",
"672 -72 CURVE",
"694 -14 LINE",
"888.667 -3.333 OFFCURVE",
"1034 73.667 OFFCURVE",
"1150 199 CURVE",
"1085 280 LINE SMOOTH",
"1079.667 286.667 OFFCURVE",
"1072 292 OFFCURVE",
"1060 292 CURVE SMOOTH",
"1042.817 292 OFFCURVE",
"984.96 241.517 OFFCURVE",
"952.5 218.5 CURVE SMOOTH",
"934.167 205.5 OFFCURVE",
"912 193.667 OFFCURVE",
"886 183 CURVE SMOOTH",
"834 161.667 OFFCURVE",
"767 145 OFFCURVE",
"679 145 CURVE SMOOTH",
"565.667 145 OFFCURVE",
"469.167 190.5 OFFCURVE",
"400.5 272.5 CURVE SMOOTH",
"331.833 354.5 OFFCURVE",
"291 473 OFFCURVE",
"291 621 CURVE SMOOTH",
"291 825 OFFCURVE",
"351.333 991.167 OFFCURVE",
"450 1106.5 CURVE SMOOTH",
"548.667 1221.833 OFFCURVE",
"687.333 1286 OFFCURVE",
"842 1286 CURVE SMOOTH",
"958 1286 OFFCURVE",
"1026.5 1253.833 OFFCURVE",
"1072.5 1222.5 CURVE SMOOTH",
"1107.57 1198.611 OFFCURVE",
"1143.788 1159 OFFCURVE",
"1165 1159 CURVE SMOOTH",
"1185 1159 OFFCURVE",
"1197.333 1168.667 OFFCURVE",
"1208 1182 CURVE SMOOTH",
"1272 1260 LINE",
"1224 1317.333 OFFCURVE",
"1170 1364.667 OFFCURVE",
"1102 1398 CURVE SMOOTH",
"1034 1431.333 OFFCURVE",
"952.333 1449 OFFCURVE",
"851 1449 CURVE SMOOTH",
"640.333 1449 OFFCURVE",
"452.833 1363.167 OFFCURVE",
"317.5 1214.5 CURVE SMOOTH",
"182.167 1065.833 OFFCURVE",
"100 855.333 OFFCURVE",
"100 606 CURVE SMOOTH",
"100 435.333 OFFCURVE",
"145 287 OFFCURVE",
"229 179 CURVE SMOOTH",
"313 71 OFFCURVE",
"435 1.667 OFFCURVE",
"587 -13 CURVE",
"539 -131 LINE",
"627 -143 OFFCURVE",
"676 -157.333 OFFCURVE",
"676 -204 CURVE SMOOTH",
"676 -244 OFFCURVE",
"646.333 -274 OFFCURVE",
"593 -274 CURVE SMOOTH",
"564.197 -274 OFFCURVE",
"521.145 -249 OFFCURVE",
"507 -249 CURVE SMOOTH"
);
}
);
userData = {
assembly = "NPUSHB[ ]\011/* 24 values pushed */
1 0 70 68 60 59 54 52 47 45 37 35 32 30 23 21 6 4 0 74 1 74 10 7 
CALL[ ]\011/* CallFunction */
MPPEM[ ]\011/* MeasurePixelPerEm */
PUSHB[ ]\011/* 1 value pushed */
9 
LT[ ]\011/* LessThan */
IF[ ]\011/* If */
NPUSHB[ ]\011/* 75 values pushed */
27 1 3 4 57 1 5 6 61 12 11 3 0 7 72 1 8 0 4 30 0 3 4 6 4 3 6 50 0 6 5 4 6 5 48 0 4 4 2 1 0 36 0 2 2 17 31 0 5 5 7 1 0 36 0 7 7 18 31 1 9 2 0 0 8 1 0 36 0 8 8 16 8 32 9 
ELSE[ ]\011/* Else */
MPPEM[ ]\011/* MeasurePixelPerEm */
PUSHB[ ]\011/* 1 value pushed */
21 
LT[ ]\011/* LessThan */
IF[ ]\011/* If */
NPUSHB[ ]\011/* 75 values pushed */
27 1 3 4 57 1 5 6 61 12 11 3 0 7 72 1 8 0 4 30 0 3 4 6 4 3 6 50 0 6 5 4 6 5 48 0 4 4 2 1 0 36 0 2 2 17 31 0 5 5 7 1 0 36 0 7 7 21 31 1 9 2 0 0 8 1 0 36 0 8 8 16 8 32 9 
ELSE[ ]\011/* Else */
MPPEM[ ]\011/* MeasurePixelPerEm */
PUSHB[ ]\011/* 1 value pushed */
73 
LT[ ]\011/* LessThan */
IF[ ]\011/* If */
NPUSHB[ ]\011/* 82 values pushed */
27 1 3 4 57 1 5 6 61 12 11 3 0 7 72 1 8 1 4 30 0 3 4 6 4 3 6 50 0 6 5 4 6 5 48 9 1 0 7 1 7 0 1 50 0 4 4 2 1 0 36 0 2 2 17 31 0 5 5 7 1 0 36 0 7 7 21 31 0 1 1 8 1 0 36 0 8 8 16 8 32 10 
ELSE[ ]\011/* Else */
MPPEM[ ]\011/* MeasurePixelPerEm */
PUSHB[ ]\011/* 1 value pushed */
95 
LT[ ]\011/* LessThan */
IF[ ]\011/* If */
NPUSHB[ ]\011/* 79 values pushed */
27 1 3 4 57 1 5 6 61 12 11 3 0 7 72 1 8 1 4 30 0 3 4 6 4 3 6 50 0 6 5 4 6 5 48 9 1 0 7 1 7 0 1 50 0 1 0 8 1 8 1 0 37 0 4 4 2 1 0 36 0 2 2 17 31 0 5 5 7 1 0 36 0 7 7 21 7 32 9 
ELSE[ ]\011/* Else */
MPPEM[ ]\011/* MeasurePixelPerEm */
PUSHB[ ]\011/* 1 value pushed */
108 
LT[ ]\011/* LessThan */
IF[ ]\011/* If */
NPUSHB[ ]\011/* 77 values pushed */
27 1 3 4 57 1 5 6 61 12 11 3 0 7 72 1 8 1 4 30 0 3 4 6 4 3 6 50 0 6 5 4 6 5 48 9 1 0 7 1 7 0 1 50 0 2 0 4 3 2 4 1 0 38 0 1 0 8 1 8 1 0 37 0 5 5 7 1 0 36 0 7 7 21 7 32 8 
ELSE[ ]\011/* Else */
NPUSHB[ ]\011/* 87 values pushed */
27 1 3 4 57 1 5 6 61 12 11 3 0 7 72 1 8 1 4 30 0 3 4 6 4 3 6 50 0 6 5 4 6 5 48 9 1 0 7 1 7 0 1 50 0 2 0 4 3 2 4 1 0 38 0 5 0 7 0 5 7 1 0 38 0 1 8 8 1 1 0 35 0 1 1 8 1 0 36 0 8 1 8 1 0 33 9 
EIF[ ]\011/* EndIf */
EIF[ ]\011/* EndIf */
EIF[ ]\011/* EndIf */
EIF[ ]\011/* EndIf */
EIF[ ]\011/* EndIf */
PUSHB[ ]\011/* 1 value pushed */
56 
CALL[ ]\011/* CallFunction */";
};
width = 1234;
}
);
note = Ccedilla;
unicode = 00C7;
},
{
glyphname = D;
layers = (
{
layerId = "30DC88F3-813A-4685-BB5F-1C042FFC1B6D";
paths = (
{
closed = 1;
nodes = (
"1341 998.333 OFFCURVE",
"1285.667 1152.833 OFFCURVE",
"1187 1261.5 CURVE SMOOTH",
"1088.333 1370.167 OFFCURVE",
"944 1433 OFFCURVE",
"768 1433 CURVE SMOOTH",
"274 1433 LINE",
"97 0 LINE",
"592 0 LINE SMOOTH",
"808 0 OFFCURVE",
"995.833 82.167 OFFCURVE",
"1128.5 225.5 CURVE SMOOTH",
"1261.167 368.833 OFFCURVE",
"1341 573 OFFCURVE",
"1341 817 CURVE SMOOTH"
);
},
{
closed = 1;
nodes = (
"1149 606.333 OFFCURVE",
"1093.667 441.5 OFFCURVE",
"999 327.5 CURVE SMOOTH",
"904.333 213.5 OFFCURVE",
"770 151 OFFCURVE",
"610 151 CURVE SMOOTH",
"304 151 LINE",
"444 1281 LINE",
"750 1281 LINE SMOOTH",
"874 1281 OFFCURVE",
"973.833 1236.167 OFFCURVE",
"1042.5 1155.5 CURVE SMOOTH",
"1111.167 1074.833 OFFCURVE",
"1149 957 OFFCURVE",
"1149 813 CURVE SMOOTH"
);
}
);
userData = {
assembly = "NPUSHB[ ]\011/* 10 values pushed */
22 20 19 17 9 7 6 4 4 7 
CALL[ ]\011/* CallFunction */
MPPEM[ ]\011/* MeasurePixelPerEm */
PUSHB[ ]\011/* 1 value pushed */
95 
LT[ ]\011/* LessThan */
IF[ ]\011/* If */
NPUSHB[ ]\011/* 26 values pushed */
0 2 2 1 1 0 36 0 1 1 11 31 0 3 3 0 1 0 36 0 0 0 12 0 32 4 
ELSE[ ]\011/* Else */
MPPEM[ ]\011/* MeasurePixelPerEm */
PUSHB[ ]\011/* 1 value pushed */
108 
LT[ ]\011/* LessThan */
IF[ ]\011/* If */
NPUSHB[ ]\011/* 24 values pushed */
0 1 0 2 3 1 2 1 0 38 0 3 3 0 1 0 36 0 0 0 15 0 32 3 
ELSE[ ]\011/* Else */
NPUSHB[ ]\011/* 33 values pushed */
0 1 0 2 3 1 2 1 0 38 0 3 0 0 3 1 0 35 0 3 3 0 1 0 36 0 0 3 0 1 0 33 4 
EIF[ ]\011/* EndIf */
EIF[ ]\011/* EndIf */
PUSHB[ ]\011/* 1 value pushed */
56 
CALL[ ]\011/* CallFunction */";
};
width = 1385;
}
);
note = D;
unicode = 0044;
},
{
glyphname = Eth;
layers = (
{
layerId = "30DC88F3-813A-4685-BB5F-1C042FFC1B6D";
paths = (
{
closed = 1;
nodes = (
"69 667 LINE",
"248 667 LINE",
"167 0 LINE",
"661 0 LINE SMOOTH",
"877 0 OFFCURVE",
"1062.667 82.167 OFFCURVE",
"1196 225.5 CURVE SMOOTH",
"1329.333 368.833 OFFCURVE",
"1408 573 OFFCURVE",
"1408 817 CURVE SMOOTH",
"1408 998.333 OFFCURVE",
"1353.833 1152.833 OFFCURVE",
"1254.5 1261.5 CURVE SMOOTH",
"1155.167 1370.167 OFFCURVE",
"1012 1433 OFFCURVE",
"836 1433 CURVE SMOOTH",
"342 1433 LINE",
"262 777 LINE",
"83 777 LINE"
);
},
{
closed = 1;
nodes = (
"1216 606.333 OFFCURVE",
"1161.667 441.5 OFFCURVE",
"1067 327.5 CURVE SMOOTH",
"972.333 213.5 OFFCURVE",
"839 151 OFFCURVE",
"679 151 CURVE SMOOTH",
"373 151 LINE",
"436 667 LINE",
"784 667 LINE",
"797 777 LINE",
"449 777 LINE",
"511 1281 LINE",
"818 1281 LINE SMOOTH",
"942 1281 OFFCURVE",
"1042 1236.167 OFFCURVE",
"1110 1155.5 CURVE SMOOTH",
"1178 1074.833 OFFCURVE",
"1216 957 OFFCURVE",
"1216 813 CURVE SMOOTH"
);
}
);
userData = {
assembly = "NPUSHB[ ]\011/* 18 values pushed */
30 28 27 26 25 24 23 21 16 15 14 12 4 2 1 0 8 7 
CALL[ ]\011/* CallFunction */
MPPEM[ ]\011/* MeasurePixelPerEm */
PUSHB[ ]\011/* 1 value pushed */
95 
LT[ ]\011/* LessThan */
IF[ ]\011/* If */
NPUSHB[ ]\011/* 38 values pushed */
5 1 0 6 1 3 7 0 3 0 0 38 0 4 4 1 1 0 36 0 1 1 11 31 0 7 7 2 1 0 36 0 2 2 12 2 32 5 
ELSE[ ]\011/* Else */
MPPEM[ ]\011/* MeasurePixelPerEm */
PUSHB[ ]\011/* 1 value pushed */
108 
LT[ ]\011/* LessThan */
IF[ ]\011/* If */
NPUSHB[ ]\011/* 36 values pushed */
0 1 0 4 0 1 4 1 0 38 5 1 0 6 1 3 7 0 3 0 0 38 0 7 7 2 1 0 36 0 2 2 15 2 32 4 
ELSE[ ]\011/* Else */
MPPEM[ ]\011/* MeasurePixelPerEm */
PUSHB[ ]\011/* 1 value pushed */
232 
LT[ ]\011/* LessThan */
IF[ ]\011/* If */
NPUSHB[ ]\011/* 45 values pushed */
0 1 0 4 0 1 4 1 0 38 5 1 0 6 1 3 7 0 3 0 0 38 0 7 2 2 7 1 0 35 0 7 7 2 1 0 36 0 2 7 2 1 0 33 5 
ELSE[ ]\011/* Else */
NPUSHB[ ]\011/* 53 values pushed */
0 1 0 4 0 1 4 1 0 38 0 5 0 6 3 5 6 0 0 38 0 0 0 3 7 0 3 0 0 38 0 7 2 2 7 1 0 35 0 7 7 2 1 0 36 0 2 7 2 1 0 33 6 
EIF[ ]\011/* EndIf */
EIF[ ]\011/* EndIf */
EIF[ ]\011/* EndIf */
PUSHB[ ]\011/* 1 value pushed */
56 
CALL[ ]\011/* CallFunction */";
};
width = 1452;
}
);
note = Eth;
unicode = 00D0;
},
{
glyphname = E;
layers = (
{
layerId = "30DC88F3-813A-4685-BB5F-1C042FFC1B6D";
paths = (
{
closed = 1;
nodes = (
"1089 1433 LINE",
"274 1433 LINE",
"97 0 LINE",
"914 0 LINE",
"933 152 LINE",
"304 152 LINE",
"365 650 LINE",
"872 650 LINE",
"891 797 LINE",
"383 797 LINE",
"443 1280 LINE",
"1070 1280 LINE"
);
}
);
userData = {
assembly = "NPUSHB[ ]\011/* 14 values pushed */
11 10 9 8 7 6 5 4 3 2 1 0 6 7 
CALL[ ]\011/* CallFunction */
MPPEM[ ]\011/* MeasurePixelPerEm */
PUSHB[ ]\011/* 1 value pushed */
95 
LT[ ]\011/* LessThan */
IF[ ]\011/* If */
NPUSHB[ ]\011/* 36 values pushed */
0 1 0 2 3 1 2 0 0 38 0 0 0 5 0 0 36 0 5 5 11 31 0 3 3 4 0 0 36 0 4 4 12 4 32 5 
ELSE[ ]\011/* Else */
MPPEM[ ]\011/* MeasurePixelPerEm */
PUSHB[ ]\011/* 1 value pushed */
108 
LT[ ]\011/* LessThan */
IF[ ]\011/* If */
NPUSHB[ ]\011/* 34 values pushed */
0 5 0 0 1 5 0 0 0 38 0 1 0 2 3 1 2 0 0 38 0 3 3 4 0 0 36 0 4 4 15 4 32 4 
ELSE[ ]\011/* Else */
NPUSHB[ ]\011/* 43 values pushed */
0 5 0 0 1 5 0 0 0 38 0 1 0 2 3 1 2 0 0 38 0 3 4 4 3 0 0 35 0 3 3 4 0 0 36 0 4 3 4 0 0 33 5 
EIF[ ]\011/* EndIf */
EIF[ ]\011/* EndIf */
PUSHB[ ]\011/* 1 value pushed */
56 
CALL[ ]\011/* CallFunction */";
};
width = 1067;
}
);
note = E;
unicode = 0045;
},
{
glyphname = Eogonek;
layers = (
{
layerId = "30DC88F3-813A-4685-BB5F-1C042FFC1B6D";
paths = (
{
closed = 1;
nodes = (
"829.741 -214 OFFCURVE",
"783.128 -238 OFFCURVE",
"753 -238 CURVE SMOOTH",
"710.333 -238 OFFCURVE",
"681 -209.667 OFFCURVE",
"681 -167 CURVE SMOOTH",
"681 -91.325 OFFCURVE",
"749.196 -34.173 OFFCURVE",
"809 0 CURVE",
"914 0 LINE",
"933 152 LINE",
"304 152 LINE",
"365 650 LINE",
"872 650 LINE",
"891 797 LINE",
"383 797 LINE",
"443 1280 LINE",
"1070 1280 LINE",
"1089 1433 LINE",
"274 1433 LINE",
"97 0 LINE",
"700 0 LINE",
"612 -54.667 OFFCURVE",
"548 -130 OFFCURVE",
"548 -214 CURVE SMOOTH",
"548 -291.333 OFFCURVE",
"604.667 -342 OFFCURVE",
"706 -342 CURVE SMOOTH",
"770 -342 OFFCURVE",
"833 -320.667 OFFCURVE",
"873 -290 CURVE",
"855 -226 LINE SMOOTH",
"853 -218 OFFCURVE",
"847.667 -214 OFFCURVE",
"839 -214 CURVE SMOOTH"
);
}
);
userData = {
assembly = "NPUSHB[ ]\011/* 26 values pushed */
1 0 34 32 25 24 23 22 21 20 19 18 17 16 15 14 13 12 7 5 0 37 1 37 11 7 
CALL[ ]\011/* CallFunction */
MPPEM[ ]\011/* MeasurePixelPerEm */
PUSHB[ ]\011/* 1 value pushed */
21 
LT[ ]\011/* LessThan */
IF[ ]\011/* If */
NPUSHB[ ]\011/* 57 values pushed */
3 1 1 0 1 30 0 5 0 6 7 5 6 0 0 38 0 4 4 3 0 0 36 0 3 3 11 31 0 7 7 2 0 0 36 8 1 2 2 12 31 9 10 2 0 0 1 1 0 36 0 1 1 16 1 32 8 
ELSE[ ]\011/* Else */
MPPEM[ ]\011/* MeasurePixelPerEm */
PUSHB[ ]\011/* 1 value pushed */
73 
LT[ ]\011/* LessThan */
IF[ ]\011/* If */
NPUSHB[ ]\011/* 64 values pushed */
3 1 1 9 1 30 10 1 0 2 9 2 0 9 50 0 5 0 6 7 5 6 0 0 38 0 4 4 3 0 0 36 0 3 3 11 31 0 7 7 2 0 0 36 8 1 2 2 12 31 0 9 9 1 1 0 36 0 1 1 16 1 32 9 
ELSE[ ]\011/* Else */
MPPEM[ ]\011/* MeasurePixelPerEm */
PUSHB[ ]\011/* 1 value pushed */
95 
LT[ ]\011/* LessThan */
IF[ ]\011/* If */
NPUSHB[ ]\011/* 61 values pushed */
3 1 1 9 1 30 10 1 0 2 9 2 0 9 50 0 5 0 6 7 5 6 0 0 38 0 9 0 1 9 1 1 0 37 0 4 4 3 0 0 36 0 3 3 11 31 0 7 7 2 0 0 36 8 1 2 2 12 2 32 8 
ELSE[ ]\011/* Else */
MPPEM[ ]\011/* MeasurePixelPerEm */
PUSHB[ ]\011/* 1 value pushed */
108 
LT[ ]\011/* LessThan */
IF[ ]\011/* If */
NPUSHB[ ]\011/* 59 values pushed */
3 1 1 9 1 30 10 1 0 2 9 2 0 9 50 0 3 0 4 5 3 4 0 0 38 0 5 0 6 7 5 6 0 0 38 0 9 0 1 9 1 1 0 37 0 7 7 2 0 0 36 8 1 2 2 15 2 32 7 
ELSE[ ]\011/* Else */
MPPEM[ ]\011/* MeasurePixelPerEm */
PUSHB[ ]\011/* 1 value pushed */
232 
LT[ ]\011/* LessThan */
IF[ ]\011/* If */
NPUSHB[ ]\011/* 69 values pushed */
3 1 1 9 1 30 10 1 0 2 9 2 0 9 50 0 3 0 4 5 3 4 0 0 38 0 5 0 6 7 5 6 0 0 38 0 7 8 1 2 0 7 2 0 0 38 0 9 1 1 9 1 0 35 0 9 9 1 1 0 36 0 1 9 1 1 0 33 8 
ELSE[ ]\011/* Else */
NPUSHB[ ]\011/* 75 values pushed */
3 1 1 9 1 30 0 8 7 2 2 8 42 10 1 0 2 9 2 0 9 50 0 3 0 4 5 3 4 0 0 38 0 5 0 6 7 5 6 0 0 38 0 7 0 2 0 7 2 0 0 38 0 9 1 1 9 1 0 35 0 9 9 1 1 0 36 0 1 9 1 1 0 33 9 
EIF[ ]\011/* EndIf */
EIF[ ]\011/* EndIf */
EIF[ ]\011/* EndIf */
EIF[ ]\011/* EndIf */
EIF[ ]\011/* EndIf */
PUSHB[ ]\011/* 1 value pushed */
56 
CALL[ ]\011/* CallFunction */";
};
width = 1067;
}
);
note = Eogonek;
unicode = 0118;
},
{
glyphname = F;
layers = (
{
layerId = "30DC88F3-813A-4685-BB5F-1C042FFC1B6D";
paths = (
{
closed = 1;
nodes = (
"1089 1433 LINE",
"274 1433 LINE",
"97 0 LINE",
"286 0 LINE",
"362 618 LINE",
"896 618 LINE",
"917 770 LINE",
"380 770 LINE",
"443 1280 LINE",
"1070 1280 LINE"
);
}
);
userData = {
assembly = "NPUSHB[ ]\011/* 12 values pushed */
9 8 7 6 5 4 3 2 1 0 5 7 
CALL[ ]\011/* CallFunction */
MPPEM[ ]\011/* MeasurePixelPerEm */
PUSHB[ ]\011/* 1 value pushed */
95 
LT[ ]\011/* LessThan */
IF[ ]\011/* If */
NPUSHB[ ]\011/* 29 values pushed */
0 1 0 2 3 1 2 0 0 38 0 0 0 4 0 0 36 0 4 4 11 31 0 3 3 12 3 32 4 
ELSE[ ]\011/* Else */
MPPEM[ ]\011/* MeasurePixelPerEm */
PUSHB[ ]\011/* 1 value pushed */
108 
LT[ ]\011/* LessThan */
IF[ ]\011/* If */
NPUSHB[ ]\011/* 27 values pushed */
0 4 0 0 1 4 0 0 0 38 0 1 0 2 3 1 2 0 0 38 0 3 3 15 3 32 3 
ELSE[ ]\011/* Else */
NPUSHB[ ]\011/* 38 values pushed */
0 3 2 3 53 0 4 0 0 1 4 0 0 0 38 0 1 2 2 1 0 0 35 0 1 1 2 0 0 36 0 2 1 2 0 0 33 5 
EIF[ ]\011/* EndIf */
EIF[ ]\011/* EndIf */
PUSHB[ ]\011/* 1 value pushed */
56 
CALL[ ]\011/* CallFunction */";
};
width = 1041;
}
);
note = F;
unicode = 0046;
},
{
glyphname = G;
layers = (
{
layerId = "30DC88F3-813A-4685-BB5F-1C042FFC1B6D";
paths = (
{
closed = 1;
nodes = (
"578.667 135 OFFCURVE",
"476 181 OFFCURVE",
"404 265 CURVE SMOOTH",
"332 349 OFFCURVE",
"291 470.333 OFFCURVE",
"291 621 CURVE SMOOTH",
"291 822.333 OFFCURVE",
"348.5 989 OFFCURVE",
"446.5 1105 CURVE SMOOTH",
"544.5 1221 OFFCURVE",
"684 1286 OFFCURVE",
"848 1286 CURVE SMOOTH",
"948 1286 OFFCURVE",
"1016.5 1265.167 OFFCURVE",
"1066.5 1240.5 CURVE SMOOTH",
"1105.8 1221.112 OFFCURVE",
"1154.673 1182.375 OFFCURVE",
"1179 1168 CURVE SMOOTH",
"1189.667 1161.333 OFFCURVE",
"1200.667 1158 OFFCURVE",
"1212 1158 CURVE SMOOTH",
"1230.667 1158 OFFCURVE",
"1243.667 1167.667 OFFCURVE",
"1257 1185 CURVE SMOOTH",
"1317 1263 LINE",
"1267.667 1316.333 OFFCURVE",
"1209.333 1362.667 OFFCURVE",
"1136 1396 CURVE SMOOTH",
"1062.667 1429.333 OFFCURVE",
"972.667 1449 OFFCURVE",
"862 1449 CURVE SMOOTH",
"642 1449 OFFCURVE",
"451.833 1363.833 OFFCURVE",
"316.5 1216.5 CURVE SMOOTH",
"181.167 1069.167 OFFCURVE",
"100 860.667 OFFCURVE",
"100 614 CURVE SMOOTH",
"100 430 OFFCURVE",
"156 271.833 OFFCURVE",
"256 160.5 CURVE SMOOTH",
"356 49.167 OFFCURVE",
"498.667 -16 OFFCURVE",
"672 -16 CURVE SMOOTH",
"781.333 -16 OFFCURVE",
"874.667 -3.5 OFFCURVE",
"960 22.5 CURVE SMOOTH",
"1045.333 48.5 OFFCURVE",
"1121 87 OFFCURVE",
"1193 139 CURVE",
"1260 686 LINE",
"850 686 LINE",
"841 607 LINE SMOOTH",
"840.499 602.075 OFFCURVE",
"838.501 579.925 OFFCURVE",
"838 575 CURVE",
"838 556.333 OFFCURVE",
"851.333 543 OFFCURVE",
"874 543 CURVE SMOOTH",
"1073 543 LINE",
"1034 219 LINE",
"934.896 163.942 OFFCURVE",
"836.572 135 OFFCURVE",
"704 135 CURVE SMOOTH"
);
}
);
userData = {
assembly = "NPUSHB[ ]\011/* 20 values pushed */
1 0 50 48 43 41 34 32 24 22 17 16 8 6 0 58 1 58 8 7 
CALL[ ]\011/* CallFunction */
MPPEM[ ]\011/* MeasurePixelPerEm */
PUSHB[ ]\011/* 1 value pushed */
95 
LT[ ]\011/* LessThan */
IF[ ]\011/* If */
NPUSHB[ ]\011/* 55 values pushed */
38 1 5 6 10 1 1 2 2 30 0 5 6 2 6 5 2 50 0 2 0 1 0 2 1 1 0 38 0 6 6 4 1 0 36 0 4 4 17 31 7 1 0 0 3 1 0 36 0 3 3 18 3 32 7 
ELSE[ ]\011/* Else */
MPPEM[ ]\011/* MeasurePixelPerEm */
PUSHB[ ]\011/* 1 value pushed */
108 
LT[ ]\011/* LessThan */
IF[ ]\011/* If */
NPUSHB[ ]\011/* 53 values pushed */
38 1 5 6 10 1 1 2 2 30 0 5 6 2 6 5 2 50 0 4 0 6 5 4 6 1 0 38 0 2 0 1 0 2 1 1 0 38 7 1 0 0 3 1 0 36 0 3 3 21 3 32 6 
ELSE[ ]\011/* Else */
NPUSHB[ ]\011/* 63 values pushed */
38 1 5 6 10 1 1 2 2 30 0 5 6 2 6 5 2 50 0 4 0 6 5 4 6 1 0 38 0 2 0 1 0 2 1 1 0 38 7 1 0 3 3 0 1 0 35 7 1 0 0 3 1 0 36 0 3 0 3 1 0 33 7 
EIF[ ]\011/* EndIf */
EIF[ ]\011/* EndIf */
PUSHB[ ]\011/* 1 value pushed */
56 
CALL[ ]\011/* CallFunction */";
};
width = 1349;
}
);
note = G;
unicode = 0047;
},
{
glyphname = H;
layers = (
{
layerId = "30DC88F3-813A-4685-BB5F-1C042FFC1B6D";
paths = (
{
closed = 1;
nodes = (
"1349 1433 LINE",
"1161 1433 LINE",
"1082 790 LINE",
"383 790 LINE",
"462 1433 LINE",
"274 1433 LINE",
"97 0 LINE",
"286 0 LINE",
"366 654 LINE",
"1065 654 LINE",
"984 0 LINE",
"1173 0 LINE"
);
}
);
userData = {
assembly = "NPUSHB[ ]\011/* 14 values pushed */
11 10 9 8 7 6 5 4 3 2 1 0 6 7 
CALL[ ]\011/* CallFunction */
MPPEM[ ]\011/* MeasurePixelPerEm */
PUSHB[ ]\011/* 1 value pushed */
95 
LT[ ]\011/* LessThan */
IF[ ]\011/* If */
NPUSHB[ ]\011/* 24 values pushed */
0 4 0 1 0 4 1 0 2 38 5 1 3 3 11 31 2 1 0 0 12 0 32 3 
ELSE[ ]\011/* Else */
MPPEM[ ]\011/* MeasurePixelPerEm */
PUSHB[ ]\011/* 1 value pushed */
108 
LT[ ]\011/* LessThan */
IF[ ]\011/* If */
NPUSHB[ ]\011/* 24 values pushed */
5 1 3 4 3 52 0 4 0 1 0 4 1 0 2 38 2 1 0 0 15 0 32 3 
ELSE[ ]\011/* Else */
MPPEM[ ]\011/* MeasurePixelPerEm */
PUSHB[ ]\011/* 1 value pushed */
232 
LT[ ]\011/* LessThan */
IF[ ]\011/* If */
NPUSHB[ ]\011/* 35 values pushed */
5 1 3 4 3 52 2 1 0 1 0 53 0 4 1 1 4 0 0 35 0 4 4 1 0 2 36 0 1 4 1 0 2 33 5 
ELSE[ ]\011/* Else */
NPUSHB[ ]\011/* 45 values pushed */
0 3 5 3 52 0 5 4 5 52 0 2 1 0 1 2 0 50 0 0 0 51 0 4 1 1 4 0 0 35 0 4 4 1 0 2 36 0 1 4 1 0 2 33 7 
EIF[ ]\011/* EndIf */
EIF[ ]\011/* EndIf */
EIF[ ]\011/* EndIf */
PUSHB[ ]\011/* 1 value pushed */
56 
CALL[ ]\011/* CallFunction */";
};
width = 1392;
}
);
note = H;
unicode = 0048;
},
{
glyphname = I;
layers = (
{
layerId = "30DC88F3-813A-4685-BB5F-1C042FFC1B6D";
paths = (
{
closed = 1;
nodes = (
"492 1433 LINE",
"304 1433 LINE",
"129 0 LINE",
"317 0 LINE"
);
}
);
userData = {
assembly = "NPUSHB[ ]\011/* 6 values pushed */
3 2 1 0 2 7 
CALL[ ]\011/* CallFunction */
MPPEM[ ]\011/* MeasurePixelPerEm */
PUSHB[ ]\011/* 1 value pushed */
95 
LT[ ]\011/* LessThan */
IF[ ]\011/* If */
NPUSHB[ ]\011/* 12 values pushed */
0 1 1 11 31 0 0 0 12 0 32 2 
ELSE[ ]\011/* Else */
MPPEM[ ]\011/* MeasurePixelPerEm */
PUSHB[ ]\011/* 1 value pushed */
108 
LT[ ]\011/* LessThan */
IF[ ]\011/* If */
NPUSHB[ ]\011/* 14 values pushed */
0 1 1 0 0 0 36 0 0 0 15 0 32 2 
ELSE[ ]\011/* Else */
NPUSHB[ ]\011/* 23 values pushed */
0 1 0 0 1 0 0 35 0 1 1 0 0 0 36 0 0 1 0 0 0 33 3 
EIF[ ]\011/* EndIf */
EIF[ ]\011/* EndIf */
PUSHB[ ]\011/* 1 value pushed */
56 
CALL[ ]\011/* CallFunction */";
};
width = 566;
}
);
note = I;
unicode = 0049;
},
{
glyphname = J;
layers = (
{
layerId = "30DC88F3-813A-4685-BB5F-1C042FFC1B6D";
paths = (
{
closed = 1;
nodes = (
"774 1433 LINE",
"587 1433 LINE",
"470 471 LINE SMOOTH",
"455.333 348.333 OFFCURVE",
"420.333 266 OFFCURVE",
"371 214 CURVE SMOOTH",
"321.667 162 OFFCURVE",
"259.333 141 OFFCURVE",
"190 141 CURVE SMOOTH",
"130.743 141 OFFCURVE",
"77.322 158 OFFCURVE",
"50 158 CURVE SMOOTH",
"23.333 158 OFFCURVE",
"11.667 141 OFFCURVE",
"9 121 CURVE SMOOTH",
"-5 12 LINE",
"59 -6.667 OFFCURVE",
"119 -16 OFFCURVE",
"191 -16 CURVE SMOOTH",
"455 -16 OFFCURVE",
"618.333 157.667 OFFCURVE",
"657 475 CURVE SMOOTH"
);
}
);
userData = {
assembly = "NPUSHB[ ]\011/* 10 values pushed */
22 21 16 14 11 9 4 2 4 7 
CALL[ ]\011/* CallFunction */
MPPEM[ ]\011/* MeasurePixelPerEm */
PUSHB[ ]\011/* 1 value pushed */
28 
LT[ ]\011/* LessThan */
IF[ ]\011/* If */
NPUSHB[ ]\011/* 26 values pushed */
6 1 0 1 1 30 0 3 3 11 31 2 1 1 1 0 1 0 36 0 0 0 18 0 32 4 
ELSE[ ]\011/* Else */
MPPEM[ ]\011/* MeasurePixelPerEm */
PUSHB[ ]\011/* 1 value pushed */
95 
LT[ ]\011/* LessThan */
IF[ ]\011/* If */
NPUSHB[ ]\011/* 33 values pushed */
6 1 0 2 1 30 0 1 3 2 3 1 2 50 0 3 3 11 31 0 2 2 0 1 0 36 0 0 0 18 0 32 5 
ELSE[ ]\011/* Else */
MPPEM[ ]\011/* MeasurePixelPerEm */
PUSHB[ ]\011/* 1 value pushed */
108 
LT[ ]\011/* LessThan */
IF[ ]\011/* If */
NPUSHB[ ]\011/* 30 values pushed */
6 1 0 2 1 30 0 3 1 3 52 0 1 2 1 52 0 2 2 0 1 0 36 0 0 0 21 0 32 5 
ELSE[ ]\011/* Else */
NPUSHB[ ]\011/* 39 values pushed */
6 1 0 2 1 30 0 3 1 3 52 0 1 2 1 52 0 2 0 0 2 1 0 35 0 2 2 0 1 0 36 0 0 2 0 1 0 33 6 
EIF[ ]\011/* EndIf */
EIF[ ]\011/* EndIf */
EIF[ ]\011/* EndIf */
PUSHB[ ]\011/* 1 value pushed */
56 
CALL[ ]\011/* CallFunction */";
};
width = 817;
}
);
note = J;
unicode = 004A;
},
{
glyphname = K;
layers = (
{
layerId = "30DC88F3-813A-4685-BB5F-1C042FFC1B6D";
paths = (
{
closed = 1;
nodes = (
"476 1433 LINE",
"289 1433 LINE",
"114 0 LINE",
"300 0 LINE",
"381 658 LINE",
"462 658 LINE SMOOTH",
"519.333 658 OFFCURVE",
"538.667 644 OFFCURVE",
"560 612 CURVE SMOOTH",
"936 40 LINE SMOOTH",
"953.841 13.238 OFFCURVE",
"968.86 0 OFFCURVE",
"1014 0 CURVE SMOOTH",
"1175 0 LINE",
"743 679 LINE SMOOTH",
"720.333 713.667 OFFCURVE",
"699 736.667 OFFCURVE",
"667 750 CURVE",
"693.667 762 OFFCURVE",
"717 782.333 OFFCURVE",
"745 813 CURVE SMOOTH",
"1317 1433 LINE",
"1158 1433 LINE SMOOTH",
"1118 1433 OFFCURVE",
"1091.667 1422.667 OFFCURVE",
"1061 1388 CURVE SMOOTH",
"565 844 LINE SMOOTH",
"537 813.333 OFFCURVE",
"510.667 802 OFFCURVE",
"464 802 CURVE SMOOTH",
"398 802 LINE"
);
}
);
userData = {
assembly = "NPUSHB[ ]\011/* 14 values pushed */
32 31 30 29 28 26 19 17 9 7 2 0 6 7 
CALL[ ]\011/* CallFunction */
MPPEM[ ]\011/* MeasurePixelPerEm */
PUSHB[ ]\011/* 1 value pushed */
95 
LT[ ]\011/* LessThan */
IF[ ]\011/* If */
NPUSHB[ ]\011/* 30 values pushed */
13 1 3 0 1 30 0 0 0 3 2 0 3 1 2 38 5 1 1 1 11 31 4 1 2 2 12 2 32 4 
ELSE[ ]\011/* Else */
MPPEM[ ]\011/* MeasurePixelPerEm */
PUSHB[ ]\011/* 1 value pushed */
108 
LT[ ]\011/* LessThan */
IF[ ]\011/* If */
NPUSHB[ ]\011/* 32 values pushed */
13 1 3 0 1 30 0 0 0 3 2 0 3 1 2 38 5 1 1 1 2 1 0 36 4 1 2 2 15 2 32 4 
ELSE[ ]\011/* Else */
MPPEM[ ]\011/* MeasurePixelPerEm */
PUSHB[ ]\011/* 1 value pushed */
232 
LT[ ]\011/* LessThan */
IF[ ]\011/* If */
NPUSHB[ ]\011/* 42 values pushed */
13 1 3 0 1 30 5 1 1 0 2 1 1 0 35 0 0 0 3 2 0 3 1 2 38 5 1 1 1 2 1 0 36 4 1 2 1 2 1 0 33 5 
ELSE[ ]\011/* Else */
NPUSHB[ ]\011/* 55 values pushed */
13 1 3 0 1 30 0 5 1 0 1 5 0 50 0 4 3 2 3 4 2 50 0 1 5 2 1 1 0 35 0 0 0 3 4 0 3 1 2 38 0 1 1 2 1 0 36 0 2 1 2 1 0 33 7 
EIF[ ]\011/* EndIf */
EIF[ ]\011/* EndIf */
EIF[ ]\011/* EndIf */
PUSHB[ ]\011/* 1 value pushed */
56 
CALL[ ]\011/* CallFunction */";
};
width = 1257;
}
);
note = K;
unicode = 004B;
},
{
glyphname = L;
layers = (
{
layerId = "30DC88F3-813A-4685-BB5F-1C042FFC1B6D";
paths = (
{
closed = 1;
nodes = (
"461 1433 LINE",
"274 1433 LINE",
"97 0 LINE",
"851 0 LINE",
"870 158 LINE",
"303 158 LINE"
);
}
);
userData = {
assembly = "NPUSHB[ ]\011/* 8 values pushed */
5 4 3 2 1 0 3 7 
CALL[ ]\011/* CallFunction */
MPPEM[ ]\011/* MeasurePixelPerEm */
PUSHB[ ]\011/* 1 value pushed */
95 
LT[ ]\011/* LessThan */
IF[ ]\011/* If */
NPUSHB[ ]\011/* 19 values pushed */
0 2 2 11 31 0 0 0 1 0 2 36 0 1 1 12 1 32 3 
ELSE[ ]\011/* Else */
MPPEM[ ]\011/* MeasurePixelPerEm */
PUSHB[ ]\011/* 1 value pushed */
108 
LT[ ]\011/* LessThan */
IF[ ]\011/* If */
NPUSHB[ ]\011/* 19 values pushed */
0 2 0 2 52 0 0 0 1 0 2 36 0 1 1 15 1 32 3 
ELSE[ ]\011/* Else */
NPUSHB[ ]\011/* 28 values pushed */
0 2 0 2 52 0 0 1 1 0 0 0 35 0 0 0 1 0 2 36 0 1 0 1 0 2 33 4 
EIF[ ]\011/* EndIf */
EIF[ ]\011/* EndIf */
PUSHB[ ]\011/* 1 value pushed */
56 
CALL[ ]\011/* CallFunction */";
};
width = 947;
}
);
note = L;
unicode = 004C;
},
{
glyphname = Lslash;
layers = (
{
layerId = "30DC88F3-813A-4685-BB5F-1C042FFC1B6D";
paths = (
{
closed = 1;
nodes = (
"515 1433 LINE",
"328 1433 LINE",
"239 715 LINE",
"72 628 LINE SMOOTH",
"55.333 619.333 OFFCURVE",
"46 606.333 OFFCURVE",
"44 589 CURVE SMOOTH",
"28 461 LINE",
"220 557 LINE",
"151 0 LINE",
"905 0 LINE",
"924 158 LINE",
"357 158 LINE",
"418 649 LINE",
"757 830 LINE SMOOTH",
"774.333 839.333 OFFCURVE",
"784.333 853.333 OFFCURVE",
"787 872 CURVE SMOOTH",
"802 997 LINE",
"437 806 LINE"
);
}
);
userData = {
assembly = "NPUSHB[ ]\011/* 8 values pushed */
17 16 9 8 7 6 3 7 
CALL[ ]\011/* CallFunction */
MPPEM[ ]\011/* MeasurePixelPerEm */
PUSHB[ ]\011/* 1 value pushed */
95 
LT[ ]\011/* LessThan */
IF[ ]\011/* If */
NPUSHB[ ]\011/* 28 values pushed */
11 10 1 0 4 0 2 1 30 0 2 2 11 31 0 0 0 1 0 2 36 0 1 1 12 1 32 4 
ELSE[ ]\011/* Else */
MPPEM[ ]\011/* MeasurePixelPerEm */
PUSHB[ ]\011/* 1 value pushed */
108 
LT[ ]\011/* LessThan */
IF[ ]\011/* If */
NPUSHB[ ]\011/* 28 values pushed */
11 10 1 0 4 0 2 1 30 0 2 0 2 52 0 0 0 1 0 2 36 0 1 1 15 1 32 4 
ELSE[ ]\011/* Else */
NPUSHB[ ]\011/* 37 values pushed */
11 10 1 0 4 0 2 1 30 0 2 0 2 52 0 0 1 1 0 0 0 35 0 0 0 1 0 2 36 0 1 0 1 0 2 33 5 
EIF[ ]\011/* EndIf */
EIF[ ]\011/* EndIf */
PUSHB[ ]\011/* 1 value pushed */
56 
CALL[ ]\011/* CallFunction */";
};
width = 1001;
}
);
note = Lslash;
unicode = 0141;
},
{
glyphname = M;
layers = (
{
layerId = "30DC88F3-813A-4685-BB5F-1C042FFC1B6D";
paths = (
{
closed = 1;
nodes = (
"820 500 LINE",
"473 1401 LINE SMOOTH",
"462.333 1431.667 OFFCURVE",
"444.333 1433 OFFCURVE",
"411 1433 CURVE SMOOTH",
"274 1433 LINE",
"97 0 LINE",
"262 0 LINE",
"392 1062 LINE SMOOTH",
"394.667 1088.667 OFFCURVE",
"395.667 1120 OFFCURVE",
"397 1152 CURVE",
"742 252 LINE SMOOTH",
"753.333 223.333 OFFCURVE",
"774.333 209 OFFCURVE",
"805 209 CURVE SMOOTH",
"831 209 LINE SMOOTH",
"862.333 209 OFFCURVE",
"886.667 223.333 OFFCURVE",
"904 252 CURVE SMOOTH",
"1461 1150 LINE",
"1454.333 1116.667 OFFCURVE",
"1447.667 1085.667 OFFCURVE",
"1445 1059 CURVE SMOOTH",
"1314 0 LINE",
"1478 0 LINE",
"1654 1433 LINE",
"1515 1433 LINE SMOOTH",
"1481.667 1433 OFFCURVE",
"1465.667 1431.667 OFFCURVE",
"1447 1401 CURVE SMOOTH",
"884 500 LINE SMOOTH",
"868 474 OFFCURVE",
"854 447 OFFCURVE",
"842 419 CURVE",
"835.333 447 OFFCURVE",
"828 472 OFFCURVE",
"820 500 CURVE"
);
}
);
userData = {
assembly = "NPUSHB[ ]\011/* 12 values pushed */
31 29 28 27 21 18 12 11 10 8 5 7 
CALL[ ]\011/* CallFunction */
MPPEM[ ]\011/* MeasurePixelPerEm */
PUSHB[ ]\011/* 1 value pushed */
95 
LT[ ]\011/* LessThan */
IF[ ]\011/* If */
NPUSHB[ ]\011/* 29 values pushed */
23 3 2 2 0 1 30 0 2 0 1 0 2 1 50 4 1 0 0 11 31 3 1 1 1 12 1 32 4 
ELSE[ ]\011/* Else */
MPPEM[ ]\011/* MeasurePixelPerEm */
PUSHB[ ]\011/* 1 value pushed */
108 
LT[ ]\011/* LessThan */
IF[ ]\011/* If */
NPUSHB[ ]\011/* 26 values pushed */
23 3 2 2 0 1 30 4 1 0 2 0 52 0 2 1 2 52 3 1 1 1 15 1 32 4 
ELSE[ ]\011/* Else */
MPPEM[ ]\011/* MeasurePixelPerEm */
PUSHB[ ]\011/* 1 value pushed */
232 
LT[ ]\011/* LessThan */
IF[ ]\011/* If */
NPUSHB[ ]\011/* 24 values pushed */
23 3 2 2 0 1 30 4 1 0 2 0 52 0 2 1 2 52 3 1 1 1 43 4 
ELSE[ ]\011/* Else */
NPUSHB[ ]\011/* 32 values pushed */
23 3 2 2 4 1 30 0 0 4 0 52 0 4 2 4 52 0 2 3 2 52 0 3 1 3 52 0 1 1 43 6 
EIF[ ]\011/* EndIf */
EIF[ ]\011/* EndIf */
EIF[ ]\011/* EndIf */
PUSHB[ ]\011/* 1 value pushed */
56 
CALL[ ]\011/* CallFunction */";
};
width = 1696;
}
);
note = M;
unicode = 004D;
},
{
glyphname = N;
layers = (
{
layerId = "30DC88F3-813A-4685-BB5F-1C042FFC1B6D";
paths = (
{
closed = 1;
nodes = (
"370 1433 LINE",
"274 1433 LINE",
"97 0 LINE",
"262 0 LINE",
"392 1060 LINE SMOOTH",
"394.401 1076.808 OFFCURVE",
"398 1121.728 OFFCURVE",
"398 1131 CURVE",
"1015 35 LINE SMOOTH",
"1029.667 8.333 OFFCURVE",
"1048.333 0 OFFCURVE",
"1079 0 CURVE SMOOTH",
"1173 0 LINE",
"1349 1433 LINE",
"1184 1433 LINE",
"1056 389 LINE SMOOTH",
"1053.333 363.667 OFFCURVE",
"1050.667 336.667 OFFCURVE",
"1048 306 CURVE",
"430 1401 LINE SMOOTH",
"414 1427.667 OFFCURVE",
"403.333 1433 OFFCURVE",
"370 1433 CURVE SMOOTH"
);
}
);
userData = {
assembly = "NPUSHB[ ]\011/* 12 values pushed */
24 23 22 21 12 10 9 8 1 0 5 7 
CALL[ ]\011/* CallFunction */
MPPEM[ ]\011/* MeasurePixelPerEm */
PUSHB[ ]\011/* 1 value pushed */
95 
LT[ ]\011/* LessThan */
IF[ ]\011/* If */
NPUSHB[ ]\011/* 21 values pushed */
15 1 2 0 1 30 4 1 2 0 0 11 31 3 1 2 2 12 2 32 3 
ELSE[ ]\011/* Else */
MPPEM[ ]\011/* MeasurePixelPerEm */
PUSHB[ ]\011/* 1 value pushed */
108 
LT[ ]\011/* LessThan */
IF[ ]\011/* If */
NPUSHB[ ]\011/* 21 values pushed */
15 1 2 0 1 30 4 1 2 0 2 0 52 3 1 2 2 15 2 32 3 
ELSE[ ]\011/* Else */
MPPEM[ ]\011/* MeasurePixelPerEm */
PUSHB[ ]\011/* 1 value pushed */
232 
LT[ ]\011/* LessThan */
IF[ ]\011/* If */
NPUSHB[ ]\011/* 19 values pushed */
15 1 2 0 1 30 4 1 2 0 2 0 52 3 1 2 2 43 3 
ELSE[ ]\011/* Else */
NPUSHB[ ]\011/* 31 values pushed */
15 1 3 4 1 30 0 0 1 0 52 0 1 4 1 52 0 4 3 4 52 0 3 2 3 52 0 2 2 43 6 
EIF[ ]\011/* EndIf */
EIF[ ]\011/* EndIf */
EIF[ ]\011/* EndIf */
PUSHB[ ]\011/* 1 value pushed */
56 
CALL[ ]\011/* CallFunction */";
};
width = 1391;
}
);
note = N;
unicode = 004E;
},
{
glyphname = O;
layers = (
{
layerId = "30DC88F3-813A-4685-BB5F-1C042FFC1B6D";
paths = (
{
closed = 1;
nodes = (
"1422 1000.667 OFFCURVE",
"1367.833 1158 OFFCURVE",
"1268.5 1270 CURVE SMOOTH",
"1169.167 1382 OFFCURVE",
"1027 1449 OFFCURVE",
"851 1449 CURVE SMOOTH",
"636.333 1449 OFFCURVE",
"448.5 1362 OFFCURVE",
"314.5 1214 CURVE SMOOTH",
"180.5 1066 OFFCURVE",
"100 857 OFFCURVE",
"100 613 CURVE SMOOTH",
"100 430.333 OFFCURVE",
"154.167 273.833 OFFCURVE",
"253.5 162.5 CURVE SMOOTH",
"352.833 51.167 OFFCURVE",
"495 -15 OFFCURVE",
"671 -15 CURVE SMOOTH",
"742.333 -15 OFFCURVE",
"810.5 -5.667 OFFCURVE",
"875.5 13 CURVE SMOOTH",
"1005.5 50.333 OFFCURVE",
"1117.5 120.333 OFFCURVE",
"1207.5 219 CURVE SMOOTH",
"1252.5 268.333 OFFCURVE",
"1290.833 323.833 OFFCURVE",
"1322.5 385.5 CURVE SMOOTH",
"1385.833 508.833 OFFCURVE",
"1422 655.333 OFFCURVE",
"1422 818 CURVE SMOOTH"
);
},
{
closed = 1;
nodes = (
"1230 608.667 OFFCURVE",
"1174.667 440.167 OFFCURVE",
"1080 323.5 CURVE SMOOTH",
"985.333 206.833 OFFCURVE",
"851 142 OFFCURVE",
"691 142 CURVE SMOOTH",
"567 142 OFFCURVE",
"467.167 188.333 OFFCURVE",
"398.5 271 CURVE SMOOTH",
"329.833 353.667 OFFCURVE",
"291 472.667 OFFCURVE",
"291 618 CURVE SMOOTH",
"291 823.333 OFFCURVE",
"347.333 991.667 OFFCURVE",
"442 1109 CURVE SMOOTH",
"536.667 1226.333 OFFCURVE",
"671.667 1292 OFFCURVE",
"829 1292 CURVE SMOOTH",
"953 1292 OFFCURVE",
"1053.833 1244.667 OFFCURVE",
"1122.5 1162 CURVE SMOOTH",
"1191.167 1079.333 OFFCURVE",
"1230 959.333 OFFCURVE",
"1230 814 CURVE SMOOTH"
);
}
);
userData = {
assembly = "NPUSHB[ ]\011/* 10 values pushed */
38 36 28 26 18 16 8 6 4 7 
CALL[ ]\011/* CallFunction */
MPPEM[ ]\011/* MeasurePixelPerEm */
PUSHB[ ]\011/* 1 value pushed */
95 
LT[ ]\011/* LessThan */
IF[ ]\011/* If */
NPUSHB[ ]\011/* 26 values pushed */
0 2 2 1 1 0 36 0 1 1 17 31 0 3 3 0 1 0 36 0 0 0 18 0 32 4 
ELSE[ ]\011/* Else */
MPPEM[ ]\011/* MeasurePixelPerEm */
PUSHB[ ]\011/* 1 value pushed */
108 
LT[ ]\011/* LessThan */
IF[ ]\011/* If */
NPUSHB[ ]\011/* 24 values pushed */
0 1 0 2 3 1 2 1 0 38 0 3 3 0 1 0 36 0 0 0 21 0 32 3 
ELSE[ ]\011/* Else */
NPUSHB[ ]\011/* 33 values pushed */
0 1 0 2 3 1 2 1 0 38 0 3 0 0 3 1 0 35 0 3 3 0 1 0 36 0 0 3 0 1 0 33 4 
EIF[ ]\011/* EndIf */
EIF[ ]\011/* EndIf */
PUSHB[ ]\011/* 1 value pushed */
56 
CALL[ ]\011/* CallFunction */";
};
width = 1465;
}
);
note = O;
unicode = 004F;
},
{
glyphname = Oslash;
layers = (
{
layerId = "30DC88F3-813A-4685-BB5F-1C042FFC1B6D";
paths = (
{
closed = 1;
nodes = (
"1422 994 OFFCURVE",
"1371 1145 OFFCURVE",
"1279 1257 CURVE",
"1471 1497 LINE",
"1375 1497 LINE SMOOTH",
"1332.579 1497 OFFCURVE",
"1316.064 1483.717 OFFCURVE",
"1288 1448 CURVE SMOOTH",
"1199 1336 LINE",
"1107 1408 OFFCURVE",
"989.667 1449 OFFCURVE",
"851 1449 CURVE SMOOTH",
"636.333 1449 OFFCURVE",
"448.5 1362 OFFCURVE",
"314.5 1214 CURVE SMOOTH",
"180.5 1066 OFFCURVE",
"100 857 OFFCURVE",
"100 613 CURVE SMOOTH",
"100 426.333 OFFCURVE",
"156.333 268 OFFCURVE",
"259 156 CURVE",
"48 -109 LINE",
"122 -109 LINE SMOOTH",
"158 -109 OFFCURVE",
"202 -95 OFFCURVE",
"234 -55 CURVE SMOOTH",
"343 82 LINE",
"432.333 19.333 OFFCURVE",
"541.667 -15 OFFCURVE",
"671 -15 CURVE SMOOTH",
"742.333 -15 OFFCURVE",
"810.5 -5.667 OFFCURVE",
"875.5 13 CURVE SMOOTH",
"1005.5 50.333 OFFCURVE",
"1117.5 120.333 OFFCURVE",
"1207.5 219 CURVE SMOOTH",
"1252.5 268.333 OFFCURVE",
"1290.833 323.833 OFFCURVE",
"1322.5 385.5 CURVE SMOOTH",
"1385.833 508.833 OFFCURVE",
"1422 655.333 OFFCURVE",
"1422 818 CURVE SMOOTH"
);
},
{
closed = 1;
nodes = (
"291 823.333 OFFCURVE",
"347.333 991.667 OFFCURVE",
"442 1109 CURVE SMOOTH",
"536.667 1226.333 OFFCURVE",
"671.667 1292 OFFCURVE",
"829 1292 CURVE SMOOTH",
"934.333 1292 OFFCURVE",
"1021.333 1258.333 OFFCURVE",
"1088 1197 CURVE",
"375 302 LINE",
"320.333 382 OFFCURVE",
"291 488.667 OFFCURVE",
"291 618 CURVE SMOOTH"
);
},
{
closed = 1;
nodes = (
"1230 608.667 OFFCURVE",
"1174.667 440.167 OFFCURVE",
"1080 323.5 CURVE SMOOTH",
"985.333 206.833 OFFCURVE",
"851 142 OFFCURVE",
"691 142 CURVE SMOOTH",
"595 142 OFFCURVE",
"516 168.333 OFFCURVE",
"452 219 CURVE",
"1160 1108 LINE",
"1205.333 1029.333 OFFCURVE",
"1230 931.333 OFFCURVE",
"1230 814 CURVE SMOOTH"
);
}
);
userData = {
assembly = "NPUSHB[ ]\011/* 14 values pushed */
58 56 46 44 34 32 25 23 15 13 8 6 6 7 
CALL[ ]\011/* CallFunction */
MPPEM[ ]\011/* MeasurePixelPerEm */
PUSHB[ ]\011/* 1 value pushed */
32 
LT[ ]\011/* LessThan */
IF[ ]\011/* If */
NPUSHB[ ]\011/* 54 values pushed */
27 1 4 2 53 42 41 35 16 5 5 4 10 1 0 5 3 30 0 1 0 1 53 0 3 3 13 31 0 4 4 2 1 0 36 0 2 2 17 31 0 5 5 0 1 0 36 0 0 0 18 0 32 7 
ELSE[ ]\011/* Else */
MPPEM[ ]\011/* MeasurePixelPerEm */
PUSHB[ ]\011/* 1 value pushed */
95 
LT[ ]\011/* LessThan */
IF[ ]\011/* If */
NPUSHB[ ]\011/* 54 values pushed */
27 1 4 2 53 42 41 35 16 5 5 4 10 1 0 5 3 30 0 3 2 3 52 0 1 0 1 53 0 4 4 2 1 0 36 0 2 2 17 31 0 5 5 0 1 0 36 0 0 0 18 0 32 7 
ELSE[ ]\011/* Else */
MPPEM[ ]\011/* MeasurePixelPerEm */
PUSHB[ ]\011/* 1 value pushed */
108 
LT[ ]\011/* LessThan */
IF[ ]\011/* If */
NPUSHB[ ]\011/* 52 values pushed */
27 1 4 2 53 42 41 35 16 5 5 4 10 1 0 5 3 30 0 3 2 3 52 0 1 0 1 53 0 2 0 4 5 2 4 1 0 38 0 5 5 0 1 0 36 0 0 0 21 0 32 6 
ELSE[ ]\011/* Else */
NPUSHB[ ]\011/* 61 values pushed */
27 1 4 2 53 42 41 35 16 5 5 4 10 1 0 5 3 30 0 3 2 3 52 0 1 0 1 53 0 2 0 4 5 2 4 1 0 38 0 5 0 0 5 1 0 35 0 5 5 0 1 0 36 0 0 5 0 1 0 33 7 
EIF[ ]\011/* EndIf */
EIF[ ]\011/* EndIf */
EIF[ ]\011/* EndIf */
PUSHB[ ]\011/* 1 value pushed */
56 
CALL[ ]\011/* CallFunction */";
};
width = 1464;
}
);
note = Oslash;
unicode = 00D8;
},
{
glyphname = OE;
layers = (
{
layerId = "30DC88F3-813A-4685-BB5F-1C042FFC1B6D";
paths = (
{
closed = 1;
nodes = (
"1241 1433 LINE",
"1209 1176 LINE",
"1169 1260 OFFCURVE",
"1113.833 1328.167 OFFCURVE",
"1042.5 1375.5 CURVE SMOOTH",
"971.167 1422.833 OFFCURVE",
"885 1449 OFFCURVE",
"785 1449 CURVE SMOOTH",
"590.333 1449 OFFCURVE",
"418.667 1360.5 OFFCURVE",
"296 1210.5 CURVE SMOOTH",
"173.333 1060.5 OFFCURVE",
"100 849.667 OFFCURVE",
"100 603 CURVE SMOOTH",
"100 423 OFFCURVE",
"148.167 268.167 OFFCURVE",
"235.5 159.5 CURVE SMOOTH",
"322.833 50.833 OFFCURVE",
"450 -14 OFFCURVE",
"606 -14 CURVE SMOOTH",
"806 -14 OFFCURVE",
"973 74 OFFCURVE",
"1093 226 CURVE",
"1065 0 LINE",
"1857 0 LINE",
"1876 152 LINE",
"1251 152 LINE",
"1312 649 LINE",
"1816 649 LINE",
"1833 796 LINE",
"1330 796 LINE",
"1389 1280 LINE",
"2015 1280 LINE",
"2033 1433 LINE"
);
},
{
closed = 1;
nodes = (
"1137 616 OFFCURVE",
"1086.833 445 OFFCURVE",
"999.5 325 CURVE SMOOTH",
"912.167 205 OFFCURVE",
"789.333 137 OFFCURVE",
"644 137 CURVE SMOOTH",
"533.333 137 OFFCURVE",
"445.167 183.333 OFFCURVE",
"384.5 266 CURVE SMOOTH",
"323.833 348.667 OFFCURVE",
"291 465.333 OFFCURVE",
"291 608 CURVE SMOOTH",
"291 814.667 OFFCURVE",
"342 986.833 OFFCURVE",
"430 1107.5 CURVE SMOOTH",
"518 1228.167 OFFCURVE",
"641.667 1297 OFFCURVE",
"787 1297 CURVE SMOOTH",
"897.667 1297 OFFCURVE",
"985 1249.667 OFFCURVE",
"1045 1167 CURVE SMOOTH",
"1105 1084.333 OFFCURVE",
"1137 965.333 OFFCURVE",
"1137 824 CURVE SMOOTH"
);
}
);
userData = {
assembly = "NPUSHB[ ]\011/* 26 values pushed */
0 0 47 45 37 35 0 30 0 30 25 23 15 13 10 9 8 7 6 5 4 3 2 1 11 7 
CALL[ ]\011/* CallFunction */
MPPEM[ ]\011/* MeasurePixelPerEm */
PUSHB[ ]\011/* 1 value pushed */
28 
LT[ ]\011/* LessThan */
IF[ ]\011/* If */
NPUSHB[ ]\011/* 51 values pushed */
29 1 1 0 11 1 3 2 2 30 0 1 0 2 3 1 2 0 0 38 8 1 0 0 6 1 0 36 10 7 2 6 6 17 31 9 1 3 3 4 1 0 36 5 1 4 4 12 4 32 6 
ELSE[ ]\011/* Else */
MPPEM[ ]\011/* MeasurePixelPerEm */
PUSHB[ ]\011/* 1 value pushed */
30 
LT[ ]\011/* LessThan */
IF[ ]\011/* If */
NPUSHB[ ]\011/* 64 values pushed */
29 1 1 0 11 1 3 2 2 30 0 1 0 2 3 1 2 0 0 38 0 8 8 6 1 0 36 10 7 2 6 6 17 31 0 0 0 6 1 0 36 10 7 2 6 6 17 31 9 1 3 3 4 1 0 36 5 1 4 4 12 4 32 8 
ELSE[ ]\011/* Else */
MPPEM[ ]\011/* MeasurePixelPerEm */
PUSHB[ ]\011/* 1 value pushed */
32 
LT[ ]\011/* LessThan */
IF[ ]\011/* If */
NPUSHB[ ]\011/* 61 values pushed */
29 1 1 0 11 1 3 2 2 30 0 1 0 2 3 1 2 0 0 38 0 8 8 6 1 0 36 0 6 6 17 31 0 0 0 7 0 0 36 10 1 7 7 11 31 9 1 3 3 4 1 0 36 5 1 4 4 12 4 32 8 
ELSE[ ]\011/* Else */
MPPEM[ ]\011/* MeasurePixelPerEm */
PUSHB[ ]\011/* 1 value pushed */
34 
LT[ ]\011/* LessThan */
IF[ ]\011/* If */
NPUSHB[ ]\011/* 73 values pushed */
29 1 1 0 11 1 3 2 2 30 0 1 0 2 3 1 2 0 0 38 0 8 8 6 1 0 36 0 6 6 17 31 0 0 0 7 0 0 36 10 1 7 7 11 31 0 3 3 4 1 0 36 5 1 4 4 12 31 0 9 9 4 1 0 36 5 1 4 4 12 4 32 10 
ELSE[ ]\011/* Else */
MPPEM[ ]\011/* MeasurePixelPerEm */
PUSHB[ ]\011/* 1 value pushed */
95 
LT[ ]\011/* LessThan */
IF[ ]\011/* If */
NPUSHB[ ]\011/* 71 values pushed */
29 1 1 0 11 1 3 2 2 30 0 1 0 2 3 1 2 0 0 38 0 8 8 6 1 0 36 0 6 6 17 31 0 0 0 7 0 0 36 10 1 7 7 11 31 0 3 3 4 0 0 36 0 4 4 12 31 0 9 9 5 1 0 36 0 5 5 21 5 32 10 
ELSE[ ]\011/* Else */
MPPEM[ ]\011/* MeasurePixelPerEm */
PUSHB[ ]\011/* 1 value pushed */
108 
LT[ ]\011/* LessThan */
IF[ ]\011/* If */
NPUSHB[ ]\011/* 67 values pushed */
29 1 1 0 11 1 3 2 2 30 0 6 0 8 0 6 8 1 0 38 10 1 7 0 0 1 7 0 0 0 38 0 1 0 2 3 1 2 0 0 38 0 3 3 4 0 0 36 0 4 4 15 31 0 9 9 5 1 0 36 0 5 5 21 5 32 8 
ELSE[ ]\011/* Else */
NPUSHB[ ]\011/* 74 values pushed */
29 1 1 0 11 1 3 2 2 30 0 6 0 8 0 6 8 1 0 38 10 1 7 0 0 1 7 0 0 0 38 0 1 0 2 3 1 2 0 0 38 0 9 4 5 9 1 0 35 0 3 0 4 5 3 4 0 0 38 0 9 9 5 1 0 36 0 5 9 5 1 0 33 8 
EIF[ ]\011/* EndIf */
EIF[ ]\011/* EndIf */
EIF[ ]\011/* EndIf */
EIF[ ]\011/* EndIf */
EIF[ ]\011/* EndIf */
EIF[ ]\011/* EndIf */
PUSHB[ ]\011/* 1 value pushed */
56 
CALL[ ]\011/* CallFunction */";
};
width = 2011;
}
);
note = OE;
unicode = 0152;
},
{
glyphname = P;
layers = (
{
layerId = "30DC88F3-813A-4685-BB5F-1C042FFC1B6D";
paths = (
{
closed = 1;
nodes = (
"574 538 LINE SMOOTH",
"751.333 538 OFFCURVE",
"890.5 592.333 OFFCURVE",
"984.5 683 CURVE SMOOTH",
"1078.5 773.667 OFFCURVE",
"1129 902.333 OFFCURVE",
"1129 1053 CURVE SMOOTH",
"1129 1167.667 OFFCURVE",
"1093.167 1262.333 OFFCURVE",
"1020.5 1329 CURVE SMOOTH",
"947.833 1395.667 OFFCURVE",
"836 1433 OFFCURVE",
"684 1433 CURVE SMOOTH",
"289 1433 LINE",
"114 0 LINE",
"300 0 LINE",
"366 538 LINE"
);
},
{
closed = 1;
nodes = (
"666 1286 LINE SMOOTH",
"758 1286 OFFCURVE",
"827.667 1261.833 OFFCURVE",
"873 1218.5 CURVE SMOOTH",
"918.333 1175.167 OFFCURVE",
"941 1113.333 OFFCURVE",
"941 1036 CURVE SMOOTH",
"941 934.667 OFFCURVE",
"909.667 846.5 OFFCURVE",
"851 784.5 CURVE SMOOTH",
"792.333 722.5 OFFCURVE",
"705.333 686 OFFCURVE",
"592 686 CURVE SMOOTH",
"384 686 LINE",
"458 1286 LINE"
);
}
);
userData = {
assembly = "NPUSHB[ ]\011/* 20 values pushed */
15 15 0 0 15 27 15 26 18 16 0 14 0 13 5 3 2 1 7 7 
CALL[ ]\011/* CallFunction */
MPPEM[ ]\011/* MeasurePixelPerEm */
PUSHB[ ]\011/* 1 value pushed */
95 
LT[ ]\011/* LessThan */
IF[ ]\011/* If */
NPUSHB[ ]\011/* 31 values pushed */
0 3 5 1 2 0 3 2 1 0 38 6 1 4 4 1 1 0 36 0 1 1 11 31 0 0 0 12 0 32 4 
ELSE[ ]\011/* Else */
MPPEM[ ]\011/* MeasurePixelPerEm */
PUSHB[ ]\011/* 1 value pushed */
108 
LT[ ]\011/* LessThan */
IF[ ]\011/* If */
NPUSHB[ ]\011/* 29 values pushed */
0 1 6 1 4 3 1 4 1 0 38 0 3 5 1 2 0 3 2 1 0 38 0 0 0 15 0 32 3 
ELSE[ ]\011/* Else */
NPUSHB[ ]\011/* 40 values pushed */
0 0 2 0 53 0 1 6 1 4 3 1 4 1 0 38 0 3 2 2 3 1 0 35 0 3 3 2 1 0 36 5 1 2 3 2 1 0 33 5 
EIF[ ]\011/* EndIf */
EIF[ ]\011/* EndIf */
PUSHB[ ]\011/* 1 value pushed */
56 
CALL[ ]\011/* CallFunction */";
};
width = 1128;
}
);
note = P;
unicode = 0050;
},
{
glyphname = Thorn;
layers = (
{
layerId = "30DC88F3-813A-4685-BB5F-1C042FFC1B6D";
paths = (
{
closed = 1;
nodes = (
"536 1433 LINE",
"349 1433 LINE",
"174 0 LINE",
"360 0 LINE",
"393 273 LINE",
"602 273 LINE SMOOTH",
"779.333 273 OFFCURVE",
"917.333 326.167 OFFCURVE",
"1012 417.5 CURVE SMOOTH",
"1106.667 508.833 OFFCURVE",
"1157 637.333 OFFCURVE",
"1157 788 CURVE SMOOTH",
"1157 901.333 OFFCURVE",
"1121.333 995.5 OFFCURVE",
"1048 1061.5 CURVE SMOOTH",
"974.667 1127.5 OFFCURVE",
"864 1165 OFFCURVE",
"712 1165 CURVE SMOOTH",
"503 1165 LINE"
);
},
{
closed = 1;
nodes = (
"693 1018 LINE SMOOTH",
"879.667 1018 OFFCURVE",
"969 925.667 OFFCURVE",
"969 771 CURVE SMOOTH",
"969 669.667 OFFCURVE",
"937.667 581.5 OFFCURVE",
"879 519.5 CURVE SMOOTH",
"820.333 457.5 OFFCURVE",
"733.333 421 OFFCURVE",
"620 421 CURVE SMOOTH",
"411 421 LINE",
"485 1018 LINE"
);
}
);
userData = {
assembly = "NPUSHB[ ]\011/* 18 values pushed */
17 17 17 27 17 26 20 18 16 15 14 13 12 10 2 0 7 7 
CALL[ ]\011/* CallFunction */
MPPEM[ ]\011/* MeasurePixelPerEm */
PUSHB[ ]\011/* 1 value pushed */
95 
LT[ ]\011/* LessThan */
IF[ ]\011/* If */
NPUSHB[ ]\011/* 33 values pushed */
0 0 6 1 5 4 0 5 1 2 38 0 4 0 1 2 4 1 1 0 38 0 3 3 11 31 0 2 2 12 2 32 4 
ELSE[ ]\011/* Else */
MPPEM[ ]\011/* MeasurePixelPerEm */
PUSHB[ ]\011/* 1 value pushed */
108 
LT[ ]\011/* LessThan */
IF[ ]\011/* If */
NPUSHB[ ]\011/* 33 values pushed */
0 3 0 3 52 0 0 6 1 5 4 0 5 1 2 38 0 4 0 1 2 4 1 1 0 38 0 2 2 15 2 32 4 
ELSE[ ]\011/* Else */
NPUSHB[ ]\011/* 44 values pushed */
0 3 0 3 52 0 2 1 2 53 0 0 6 1 5 4 0 5 1 2 38 0 4 1 1 4 1 0 35 0 4 4 1 1 0 36 0 1 4 1 1 0 33 6 
EIF[ ]\011/* EndIf */
EIF[ ]\011/* EndIf */
PUSHB[ ]\011/* 1 value pushed */
56 
CALL[ ]\011/* CallFunction */";
};
width = 1128;
}
);
note = Thorn;
unicode = 00DE;
},
{
glyphname = Q;
layers = (
{
layerId = "30DC88F3-813A-4685-BB5F-1C042FFC1B6D";
paths = (
{
closed = 1;
nodes = (
"1422 1000.667 OFFCURVE",
"1367.833 1158 OFFCURVE",
"1268.5 1270 CURVE SMOOTH",
"1169.167 1382 OFFCURVE",
"1027 1449 OFFCURVE",
"851 1449 CURVE SMOOTH",
"636.333 1449 OFFCURVE",
"448.5 1362 OFFCURVE",
"314.5 1214 CURVE SMOOTH",
"180.5 1066 OFFCURVE",
"100 857 OFFCURVE",
"100 613 CURVE SMOOTH",
"100 430.333 OFFCURVE",
"154.167 273.833 OFFCURVE",
"253.5 162.5 CURVE SMOOTH",
"352.833 51.167 OFFCURVE",
"495 -15 OFFCURVE",
"671 -15 CURVE SMOOTH",
"751 -15 OFFCURVE",
"826 -2.667 OFFCURVE",
"898 20 CURVE",
"1095 -253 LINE SMOOTH",
"1119 -286.333 OFFCURVE",
"1154.667 -297 OFFCURVE",
"1200 -297 CURVE SMOOTH",
"1351 -297 LINE",
"1062 96 LINE",
"1171.333 165.333 OFFCURVE",
"1261.333 266.333 OFFCURVE",
"1324 389 CURVE SMOOTH",
"1386.667 511.667 OFFCURVE",
"1422 656.667 OFFCURVE",
"1422 818 CURVE SMOOTH"
);
},
{
closed = 1;
nodes = (
"1230 608.667 OFFCURVE",
"1174.667 440.167 OFFCURVE",
"1080 323.5 CURVE SMOOTH",
"985.333 206.833 OFFCURVE",
"851 142 OFFCURVE",
"691 142 CURVE SMOOTH",
"567 142 OFFCURVE",
"467.167 188.333 OFFCURVE",
"398.5 271 CURVE SMOOTH",
"329.833 353.667 OFFCURVE",
"291 472.667 OFFCURVE",
"291 618 CURVE SMOOTH",
"291 823.333 OFFCURVE",
"347.333 991.667 OFFCURVE",
"442 1109 CURVE SMOOTH",
"536.667 1226.333 OFFCURVE",
"671.667 1292 OFFCURVE",
"829 1292 CURVE SMOOTH",
"953 1292 OFFCURVE",
"1053.833 1244.667 OFFCURVE",
"1122.5 1162 CURVE SMOOTH",
"1191.167 1079.333 OFFCURVE",
"1230 959.333 OFFCURVE",
"1230 814 CURVE SMOOTH"
);
}
);
userData = {
assembly = "NPUSHB[ ]\011/* 12 values pushed */
45 43 35 33 25 23 15 13 8 6 5 7 
CALL[ ]\011/* CallFunction */
MPPEM[ ]\011/* MeasurePixelPerEm */
PUSHB[ ]\011/* 1 value pushed */
21 
LT[ ]\011/* LessThan */
IF[ ]\011/* If */
NPUSHB[ ]\011/* 38 values pushed */
11 5 2 1 4 1 30 0 3 3 2 1 0 36 0 2 2 17 31 0 4 4 1 1 0 36 0 1 1 18 31 0 0 0 16 0 32 6 
ELSE[ ]\011/* Else */
MPPEM[ ]\011/* MeasurePixelPerEm */
PUSHB[ ]\011/* 1 value pushed */
95 
LT[ ]\011/* LessThan */
IF[ ]\011/* If */
NPUSHB[ ]\011/* 38 values pushed */
11 5 2 1 4 1 30 0 0 1 0 53 0 3 3 2 1 0 36 0 2 2 17 31 0 4 4 1 1 0 36 0 1 1 18 1 32 6 
ELSE[ ]\011/* Else */
MPPEM[ ]\011/* MeasurePixelPerEm */
PUSHB[ ]\011/* 1 value pushed */
108 
LT[ ]\011/* LessThan */
IF[ ]\011/* If */
NPUSHB[ ]\011/* 36 values pushed */
11 5 2 1 4 1 30 0 0 1 0 53 0 2 0 3 4 2 3 1 0 38 0 4 4 1 1 0 36 0 1 1 21 1 32 5 
ELSE[ ]\011/* Else */
NPUSHB[ ]\011/* 45 values pushed */
11 5 2 1 4 1 30 0 0 1 0 53 0 2 0 3 4 2 3 1 0 38 0 4 1 1 4 1 0 35 0 4 4 1 1 0 36 0 1 4 1 1 0 33 6 
EIF[ ]\011/* EndIf */
EIF[ ]\011/* EndIf */
EIF[ ]\011/* EndIf */
PUSHB[ ]\011/* 1 value pushed */
56 
CALL[ ]\011/* CallFunction */";
};
width = 1464;
}
);
note = Q;
unicode = 0051;
},
{
glyphname = R;
layers = (
{
layerId = "30DC88F3-813A-4685-BB5F-1C042FFC1B6D";
paths = (
{
closed = 1;
nodes = (
"506 601 LINE SMOOTH",
"555.333 601 OFFCURVE",
"572.667 589.333 OFFCURVE",
"590 556 CURVE SMOOTH",
"860 40 LINE SMOOTH",
"874 13.333 OFFCURVE",
"897.333 0 OFFCURVE",
"930 0 CURVE SMOOTH",
"1096 0 LINE",
"787 572 LINE SMOOTH",
"773 597.333 OFFCURVE",
"755.333 617.333 OFFCURVE",
"734 632 CURVE",
"850 658.667 OFFCURVE",
"942.667 715.167 OFFCURVE",
"1008 794.5 CURVE SMOOTH",
"1073.333 873.833 OFFCURVE",
"1109 975 OFFCURVE",
"1109 1091 CURVE SMOOTH",
"1109 1195 OFFCURVE",
"1074.167 1281.167 OFFCURVE",
"1001.5 1340.5 CURVE SMOOTH",
"928.833 1399.833 OFFCURVE",
"818 1433 OFFCURVE",
"666 1433 CURVE SMOOTH",
"289 1433 LINE",
"114 0 LINE",
"300 0 LINE",
"374 601 LINE"
);
},
{
closed = 1;
nodes = (
"649 1286 LINE SMOOTH",
"831.667 1286 OFFCURVE",
"923 1207.333 OFFCURVE",
"923 1062 CURVE SMOOTH",
"923 967.333 OFFCURVE",
"892.833 886.5 OFFCURVE",
"833.5 828.5 CURVE SMOOTH",
"774.167 770.5 OFFCURVE",
"687.333 737 OFFCURVE",
"574 737 CURVE SMOOTH",
"391 737 LINE",
"459 1286 LINE"
);
}
);
userData = {
assembly = "NPUSHB[ ]\011/* 22 values pushed */
25 25 0 0 25 35 25 34 28 26 0 24 0 23 19 17 5 3 2 1 8 7 
CALL[ ]\011/* CallFunction */
MPPEM[ ]\011/* MeasurePixelPerEm */
PUSHB[ ]\011/* 1 value pushed */
95 
LT[ ]\011/* LessThan */
IF[ ]\011/* If */
NPUSHB[ ]\011/* 38 values pushed */
14 1 3 4 1 30 0 4 6 1 3 0 4 3 1 0 38 7 1 5 5 1 1 0 36 0 1 1 11 31 2 1 0 0 12 0 32 5 
ELSE[ ]\011/* Else */
MPPEM[ ]\011/* MeasurePixelPerEm */
PUSHB[ ]\011/* 1 value pushed */
108 
LT[ ]\011/* LessThan */
IF[ ]\011/* If */
NPUSHB[ ]\011/* 36 values pushed */
14 1 3 4 1 30 0 1 7 1 5 4 1 5 1 0 38 0 4 6 1 3 0 4 3 1 0 38 2 1 0 0 15 0 32 4 
ELSE[ ]\011/* Else */
MPPEM[ ]\011/* MeasurePixelPerEm */
PUSHB[ ]\011/* 1 value pushed */
232 
LT[ ]\011/* LessThan */
IF[ ]\011/* If */
NPUSHB[ ]\011/* 47 values pushed */
14 1 3 4 1 30 2 1 0 3 0 53 0 1 7 1 5 4 1 5 1 0 38 0 4 3 3 4 1 0 35 0 4 4 3 1 0 36 6 1 3 4 3 1 0 33 6 
ELSE[ ]\011/* Else */
NPUSHB[ ]\011/* 53 values pushed */
14 1 3 4 1 30 0 2 3 0 3 2 0 50 0 0 0 51 0 1 7 1 5 4 1 5 1 0 38 0 4 3 3 4 1 0 35 0 4 4 3 1 0 36 6 1 3 4 3 1 0 33 7 
EIF[ ]\011/* EndIf */
EIF[ ]\011/* EndIf */
EIF[ ]\011/* EndIf */
PUSHB[ ]\011/* 1 value pushed */
56 
CALL[ ]\011/* CallFunction */";
};
width = 1188;
}
);
note = R;
unicode = 0052;
},
{
glyphname = S;
layers = (
{
layerId = "30DC88F3-813A-4685-BB5F-1C042FFC1B6D";
paths = (
{
closed = 1;
nodes = (
"981 1290 LINE",
"905 1387.333 OFFCURVE",
"784.667 1447 OFFCURVE",
"638 1447 CURVE SMOOTH",
"494 1447 OFFCURVE",
"378 1393.667 OFFCURVE",
"298 1311 CURVE SMOOTH",
"218 1228.333 OFFCURVE",
"174 1116.333 OFFCURVE",
"174 999 CURVE SMOOTH",
"174 893.667 OFFCURVE",
"209 824.333 OFFCURVE",
"261 775 CURVE SMOOTH",
"313 725.667 OFFCURVE",
"381.5 696.333 OFFCURVE",
"451.5 671 CURVE SMOOTH",
"594.242 619.341 OFFCURVE",
"729 580.678 OFFCURVE",
"729 437 CURVE SMOOTH",
"729 349 OFFCURVE",
"699.833 275 OFFCURVE",
"648.5 223 CURVE SMOOTH",
"597.167 171 OFFCURVE",
"522 140 OFFCURVE",
"430 140 CURVE SMOOTH",
"330 140 OFFCURVE",
"266.333 175.833 OFFCURVE",
"221 212.5 CURVE SMOOTH",
"185.437 241.264 OFFCURVE",
"147.265 285 OFFCURVE",
"124 285 CURVE SMOOTH",
"105.333 285 OFFCURVE",
"88.667 274.667 OFFCURVE",
"78 260 CURVE SMOOTH",
"12 171 LINE",
"98.667 56.333 OFFCURVE",
"235.333 -16 OFFCURVE",
"406 -16 CURVE SMOOTH",
"560.667 -16 OFFCURVE",
"686.167 41.333 OFFCURVE",
"773.5 132 CURVE SMOOTH",
"860.833 222.667 OFFCURVE",
"909 347 OFFCURVE",
"909 483 CURVE SMOOTH",
"909 581.667 OFFCURVE",
"874 648.667 OFFCURVE",
"822 698 CURVE SMOOTH",
"770 747.333 OFFCURVE",
"699.333 778.167 OFFCURVE",
"630 805.5 CURVE SMOOTH",
"571.529 828.551 OFFCURVE",
"483.31 860.875 OFFCURVE",
"438 890.5 CURVE SMOOTH",
"386 924.5 OFFCURVE",
"351 969.667 OFFCURVE",
"351 1039 CURVE SMOOTH",
"351 1185.039 OFFCURVE",
"455.357 1293 OFFCURVE",
"620 1293 CURVE SMOOTH",
"704 1293 OFFCURVE",
"757.167 1264.833 OFFCURVE",
"796.5 1237.5 CURVE SMOOTH",
"826.935 1216.35 OFFCURVE",
"860.844 1182 OFFCURVE",
"881 1182 CURVE SMOOTH",
"899.667 1182 OFFCURVE",
"911.333 1192.333 OFFCURVE",
"926 1211 CURVE"
);
}
);
userData = {
assembly = "NPUSHB[ ]\011/* 14 values pushed */
59 57 40 38 35 33 28 26 9 7 4 2 6 7 
CALL[ ]\011/* CallFunction */
MPPEM[ ]\011/* MeasurePixelPerEm */
PUSHB[ ]\011/* 1 value pushed */
95 
LT[ ]\011/* LessThan */
IF[ ]\011/* If */
NPUSHB[ ]\011/* 51 values pushed */
61 1 0 1 30 1 4 3 2 30 0 0 1 3 1 0 3 50 0 3 4 1 3 4 48 0 1 1 5 1 0 36 0 5 5 17 31 0 4 4 2 1 0 36 0 2 2 18 2 32 7 
ELSE[ ]\011/* Else */
MPPEM[ ]\011/* MeasurePixelPerEm */
PUSHB[ ]\011/* 1 value pushed */
108 
LT[ ]\011/* LessThan */
IF[ ]\011/* If */
NPUSHB[ ]\011/* 49 values pushed */
61 1 0 1 30 1 4 3 2 30 0 0 1 3 1 0 3 50 0 3 4 1 3 4 48 0 5 0 1 0 5 1 1 0 38 0 4 4 2 1 0 36 0 2 2 21 2 32 6 
ELSE[ ]\011/* Else */
NPUSHB[ ]\011/* 58 values pushed */
61 1 0 1 30 1 4 3 2 30 0 0 1 3 1 0 3 50 0 3 4 1 3 4 48 0 5 0 1 0 5 1 1 0 38 0 4 2 2 4 1 0 35 0 4 4 2 1 0 36 0 2 4 2 1 0 33 7 
EIF[ ]\011/* EndIf */
EIF[ ]\011/* EndIf */
PUSHB[ ]\011/* 1 value pushed */
56 
CALL[ ]\011/* CallFunction */";
};
width = 977;
}
);
note = S;
unicode = 0053;
},
{
glyphname = T;
layers = (
{
layerId = "30DC88F3-813A-4685-BB5F-1C042FFC1B6D";
paths = (
{
closed = 1;
nodes = (
"142 1433 LINE",
"123 1276 LINE",
"548 1276 LINE",
"392 0 LINE",
"578 0 LINE",
"734 1276 LINE",
"1157 1276 LINE",
"1177 1433 LINE"
);
}
);
userData = {
assembly = "NPUSHB[ ]\011/* 14 values pushed */
0 0 0 7 0 7 6 5 4 3 2 1 5 7 
CALL[ ]\011/* CallFunction */
MPPEM[ ]\011/* MeasurePixelPerEm */
PUSHB[ ]\011/* 1 value pushed */
95 
LT[ ]\011/* LessThan */
IF[ ]\011/* If */
NPUSHB[ ]\011/* 21 values pushed */
2 1 0 0 3 0 0 36 4 1 3 3 11 31 0 1 1 12 1 32 3 
ELSE[ ]\011/* Else */
MPPEM[ ]\011/* MeasurePixelPerEm */
PUSHB[ ]\011/* 1 value pushed */
108 
LT[ ]\011/* LessThan */
IF[ ]\011/* If */
NPUSHB[ ]\011/* 19 values pushed */
4 1 3 2 1 0 1 3 0 0 0 38 0 1 1 15 1 32 2 
ELSE[ ]\011/* Else */
MPPEM[ ]\011/* MeasurePixelPerEm */
PUSHB[ ]\011/* 1 value pushed */
232 
LT[ ]\011/* LessThan */
IF[ ]\011/* If */
NPUSHB[ ]\011/* 31 values pushed */
0 1 0 1 53 4 1 3 0 0 3 0 0 35 4 1 3 3 0 0 0 36 2 1 0 3 0 0 0 33 4 
ELSE[ ]\011/* Else */
NPUSHB[ ]\011/* 37 values pushed */
0 2 3 0 0 2 42 0 1 0 1 53 4 1 3 2 0 3 0 2 35 4 1 3 3 0 0 0 36 0 0 3 0 0 0 33 5 
EIF[ ]\011/* EndIf */
EIF[ ]\011/* EndIf */
EIF[ ]\011/* EndIf */
PUSHB[ ]\011/* 1 value pushed */
56 
CALL[ ]\011/* CallFunction */";
};
width = 1087;
}
);
note = T;
unicode = 0054;
},
{
glyphname = U;
layers = (
{
layerId = "30DC88F3-813A-4685-BB5F-1C042FFC1B6D";
paths = (
{
closed = 1;
nodes = (
"534 147 OFFCURVE",
"459.5 181 OFFCURVE",
"409.5 241 CURVE SMOOTH",
"359.5 301 OFFCURVE",
"333 385 OFFCURVE",
"333 485 CURVE SMOOTH",
"333 509 OFFCURVE",
"335.333 534.333 OFFCURVE",
"338 561 CURVE SMOOTH",
"445 1433 LINE",
"258 1433 LINE",
"152 560 LINE SMOOTH",
"148 528.667 OFFCURVE",
"146 498 OFFCURVE",
"146 468 CURVE SMOOTH",
"146 326.667 OFFCURVE",
"188.167 205.5 OFFCURVE",
"267.5 119.5 CURVE SMOOTH",
"346.833 33.5 OFFCURVE",
"462 -17 OFFCURVE",
"610 -17 CURVE SMOOTH",
"774 -17 OFFCURVE",
"914 45.167 OFFCURVE",
"1018 148.5 CURVE SMOOTH",
"1122 251.833 OFFCURVE",
"1190 396 OFFCURVE",
"1210 560 CURVE SMOOTH",
"1316 1433 LINE",
"1129 1433 LINE",
"1022 560 LINE SMOOTH",
"1007.333 440 OFFCURVE",
"962.833 336.167 OFFCURVE",
"895.5 263.5 CURVE SMOOTH",
"828.167 190.833 OFFCURVE",
"736.667 147 OFFCURVE",
"630 147 CURVE SMOOTH"
);
}
);
userData = {
assembly = "NPUSHB[ ]\011/* 14 values pushed */
1 0 22 21 14 12 7 6 0 30 1 30 5 7 
CALL[ ]\011/* CallFunction */
MPPEM[ ]\011/* MeasurePixelPerEm */
PUSHB[ ]\011/* 1 value pushed */
95 
LT[ ]\011/* LessThan */
IF[ ]\011/* If */
NPUSHB[ ]\011/* 21 values pushed */
3 1 1 1 11 31 4 1 0 0 2 1 0 36 0 2 2 18 2 32 3 
ELSE[ ]\011/* Else */
MPPEM[ ]\011/* MeasurePixelPerEm */
PUSHB[ ]\011/* 1 value pushed */
108 
LT[ ]\011/* LessThan */
IF[ ]\011/* If */
NPUSHB[ ]\011/* 21 values pushed */
3 1 1 0 1 52 4 1 0 0 2 1 0 36 0 2 2 21 2 32 3 
ELSE[ ]\011/* Else */
MPPEM[ ]\011/* MeasurePixelPerEm */
PUSHB[ ]\011/* 1 value pushed */
232 
LT[ ]\011/* LessThan */
IF[ ]\011/* If */
NPUSHB[ ]\011/* 31 values pushed */
3 1 1 0 1 52 4 1 0 2 2 0 1 0 35 4 1 0 0 2 1 0 36 0 2 0 2 1 0 33 4 
ELSE[ ]\011/* Else */
NPUSHB[ ]\011/* 35 values pushed */
0 1 3 1 52 0 3 0 3 52 4 1 0 2 2 0 1 0 35 4 1 0 0 2 1 0 36 0 2 0 2 1 0 33 5 
EIF[ ]\011/* EndIf */
EIF[ ]\011/* EndIf */
EIF[ ]\011/* EndIf */
PUSHB[ ]\011/* 1 value pushed */
56 
CALL[ ]\011/* CallFunction */";
};
width = 1343;
}
);
note = U;
unicode = 0055;
},
{
glyphname = V;
layers = (
{
layerId = "30DC88F3-813A-4685-BB5F-1C042FFC1B6D";
paths = (
{
closed = 1;
nodes = (
"485 0 LINE",
"654 0 LINE",
"1367 1433 LINE",
"1217 1433 LINE SMOOTH",
"1185 1433 OFFCURVE",
"1158.667 1409.333 OFFCURVE",
"1148 1388 CURVE SMOOTH",
"659 364 LINE SMOOTH",
"637.667 320 OFFCURVE",
"616.667 269 OFFCURVE",
"598 213 CURVE",
"591.333 269 OFFCURVE",
"580.667 321.333 OFFCURVE",
"570 364 CURVE SMOOTH",
"331 1388 LINE SMOOTH",
"324.333 1413.333 OFFCURVE",
"306.333 1433 OFFCURVE",
"273 1433 CURVE SMOOTH",
"124 1433 LINE"
);
}
);
userData = {
assembly = "NPUSHB[ ]\011/* 8 values pushed */
18 17 16 14 2 0 3 7 
CALL[ ]\011/* CallFunction */
MPPEM[ ]\011/* MeasurePixelPerEm */
PUSHB[ ]\011/* 1 value pushed */
95 
LT[ ]\011/* LessThan */
IF[ ]\011/* If */
NPUSHB[ ]\011/* 19 values pushed */
8 1 2 0 1 30 1 1 0 0 11 31 0 2 2 12 2 32 3 
ELSE[ ]\011/* Else */
MPPEM[ ]\011/* MeasurePixelPerEm */
PUSHB[ ]\011/* 1 value pushed */
108 
LT[ ]\011/* LessThan */
IF[ ]\011/* If */
NPUSHB[ ]\011/* 19 values pushed */
8 1 2 0 1 30 1 1 0 2 0 52 0 2 2 15 2 32 3 
ELSE[ ]\011/* Else */
MPPEM[ ]\011/* MeasurePixelPerEm */
PUSHB[ ]\011/* 1 value pushed */
232 
LT[ ]\011/* LessThan */
IF[ ]\011/* If */
NPUSHB[ ]\011/* 17 values pushed */
8 1 2 0 1 30 1 1 0 2 0 52 0 2 2 43 3 
ELSE[ ]\011/* Else */
NPUSHB[ ]\011/* 21 values pushed */
8 1 2 1 1 30 0 0 1 0 52 0 1 2 1 52 0 2 2 43 4 
EIF[ ]\011/* EndIf */
EIF[ ]\011/* EndIf */
EIF[ ]\011/* EndIf */
PUSHB[ ]\011/* 1 value pushed */
56 
CALL[ ]\011/* CallFunction */";
};
width = 1259;
}
);
note = V;
unicode = 0056;
},
{
glyphname = W;
layers = (
{
layerId = "30DC88F3-813A-4685-BB5F-1C042FFC1B6D";
paths = (
{
closed = 1;
nodes = (
"365 0 LINE",
"533 0 LINE",
"998 1103 LINE SMOOTH",
"1002.667 1113.667 OFFCURVE",
"1007.167 1125.333 OFFCURVE",
"1011.5 1138 CURVE SMOOTH",
"1015.833 1150.667 OFFCURVE",
"1020.333 1163.667 OFFCURVE",
"1025 1177 CURVE",
"1027.667 1150.333 OFFCURVE",
"1031 1124.333 OFFCURVE",
"1035 1103 CURVE SMOOTH",
"1229 0 LINE",
"1398 0 LINE",
"1985 1433 LINE",
"1839 1433 LINE SMOOTH",
"1807 1433 OFFCURVE",
"1778.333 1410.667 OFFCURVE",
"1769 1388 CURVE SMOOTH",
"1366 374 LINE SMOOTH",
"1359.333 356.667 OFFCURVE",
"1353.167 338.333 OFFCURVE",
"1347.5 319 CURVE SMOOTH",
"1341.833 299.667 OFFCURVE",
"1335.667 279.333 OFFCURVE",
"1329 258 CURVE",
"1326.333 300.667 OFFCURVE",
"1322.667 339.333 OFFCURVE",
"1316 374 CURVE SMOOTH",
"1137 1388 LINE SMOOTH",
"1131.667 1414.667 OFFCURVE",
"1111.333 1433 OFFCURVE",
"1078 1433 CURVE SMOOTH",
"1035 1433 LINE SMOOTH",
"1003 1433 OFFCURVE",
"977.667 1410.667 OFFCURVE",
"967 1388 CURVE",
"538 374 LINE SMOOTH",
"523.333 339.333 OFFCURVE",
"509.333 298.667 OFFCURVE",
"496 256 CURVE",
"495.333 271.333 OFFCURVE",
"494.667 286.333 OFFCURVE",
"494 301 CURVE",
"492.667 313.667 OFFCURVE",
"491.5 326.667 OFFCURVE",
"490.5 340 CURVE SMOOTH",
"489.5 353.333 OFFCURVE",
"488.333 364.667 OFFCURVE",
"487 374 CURVE SMOOTH",
"333 1388 LINE SMOOTH",
"329 1414.667 OFFCURVE",
"308.333 1433 OFFCURVE",
"275 1433 CURVE SMOOTH",
"129 1433 LINE"
);
}
);
userData = {
assembly = "NPUSHB[ ]\011/* 12 values pushed */
44 43 35 34 33 31 19 16 2 0 5 7 
CALL[ ]\011/* CallFunction */
MPPEM[ ]\011/* MeasurePixelPerEm */
PUSHB[ ]\011/* 1 value pushed */
95 
LT[ ]\011/* LessThan */
IF[ ]\011/* If */
NPUSHB[ ]\011/* 24 values pushed */
39 25 10 8 4 3 0 1 30 2 1 2 0 0 11 31 4 1 3 3 12 3 32 3 
ELSE[ ]\011/* Else */
MPPEM[ ]\011/* MeasurePixelPerEm */
PUSHB[ ]\011/* 1 value pushed */
108 
LT[ ]\011/* LessThan */
IF[ ]\011/* If */
NPUSHB[ ]\011/* 24 values pushed */
39 25 10 8 4 3 0 1 30 2 1 2 0 3 0 52 4 1 3 3 15 3 32 3 
ELSE[ ]\011/* Else */
MPPEM[ ]\011/* MeasurePixelPerEm */
PUSHB[ ]\011/* 1 value pushed */
232 
LT[ ]\011/* LessThan */
IF[ ]\011/* If */
NPUSHB[ ]\011/* 22 values pushed */
39 25 10 8 4 3 0 1 30 2 1 2 0 3 0 52 4 1 3 3 43 3 
ELSE[ ]\011/* Else */
NPUSHB[ ]\011/* 34 values pushed */
39 25 10 8 4 4 2 1 30 0 0 1 0 52 0 1 2 1 52 0 2 4 2 52 0 4 3 4 52 0 3 3 43 6 
EIF[ ]\011/* EndIf */
EIF[ ]\011/* EndIf */
EIF[ ]\011/* EndIf */
PUSHB[ ]\011/* 1 value pushed */
56 
CALL[ ]\011/* CallFunction */";
};
width = 1882;
}
);
note = W;
unicode = 0057;
},
{
glyphname = X;
layers = (
{
layerId = "30DC88F3-813A-4685-BB5F-1C042FFC1B6D";
paths = (
{
closed = 1;
nodes = (
"-70 0 LINE",
"117 0 LINE SMOOTH",
"141 0 OFFCURVE",
"161.667 12 OFFCURVE",
"179 36 CURVE SMOOTH",
"610 631 LINE SMOOTH",
"616.667 639.667 OFFCURVE",
"622.667 649.667 OFFCURVE",
"628 661 CURVE",
"920 36 LINE SMOOTH",
"928 18.667 OFFCURVE",
"942.333 0 OFFCURVE",
"969 0 CURVE SMOOTH",
"1137 0 LINE",
"759 773 LINE",
"1260 1433 LINE",
"1067 1433 LINE SMOOTH",
"1047 1433 OFFCURVE",
"1034.667 1422.667 OFFCURVE",
"1020 1404 CURVE",
"656 902 LINE SMOOTH",
"647.333 890 OFFCURVE",
"640 877.667 OFFCURVE",
"634 865 CURVE",
"378 1405 LINE SMOOTH",
"368.667 1423.667 OFFCURVE",
"360 1433 OFFCURVE",
"332 1433 CURVE SMOOTH",
"163 1433 LINE",
"500 765 LINE"
);
}
);
userData = {
assembly = "NPUSHB[ ]\011/* 10 values pushed */
26 24 17 15 13 11 3 1 4 7 
CALL[ ]\011/* CallFunction */
MPPEM[ ]\011/* MeasurePixelPerEm */
PUSHB[ ]\011/* 1 value pushed */
95 
LT[ ]\011/* LessThan */
IF[ ]\011/* If */
NPUSHB[ ]\011/* 21 values pushed */
14 0 2 2 0 1 30 1 1 0 0 11 31 3 1 2 2 12 2 32 3 
ELSE[ ]\011/* Else */
MPPEM[ ]\011/* MeasurePixelPerEm */
PUSHB[ ]\011/* 1 value pushed */
108 
LT[ ]\011/* LessThan */
IF[ ]\011/* If */
NPUSHB[ ]\011/* 23 values pushed */
14 0 2 2 0 1 30 1 1 0 0 2 1 0 36 3 1 2 2 15 2 32 3 
ELSE[ ]\011/* Else */
MPPEM[ ]\011/* MeasurePixelPerEm */
PUSHB[ ]\011/* 1 value pushed */
232 
LT[ ]\011/* LessThan */
IF[ ]\011/* If */
NPUSHB[ ]\011/* 33 values pushed */
14 0 2 2 0 1 30 1 1 0 2 2 0 1 0 35 1 1 0 0 2 1 0 36 3 1 2 0 2 1 0 33 4 
ELSE[ ]\011/* Else */
NPUSHB[ ]\011/* 43 values pushed */
14 0 2 3 1 1 30 0 0 1 0 52 0 3 1 2 1 3 2 50 0 1 3 2 1 1 0 35 0 1 1 2 1 0 36 0 2 1 2 1 0 33 6 
EIF[ ]\011/* EndIf */
EIF[ ]\011/* EndIf */
EIF[ ]\011/* EndIf */
PUSHB[ ]\011/* 1 value pushed */
56 
CALL[ ]\011/* CallFunction */";
};
width = 1192;
}
);
note = X;
unicode = 0058;
},
{
glyphname = Y;
layers = (
{
layerId = "30DC88F3-813A-4685-BB5F-1C042FFC1B6D";
paths = (
{
closed = 1;
nodes = (
"1275 1433 LINE",
"1120 1433 LINE SMOOTH",
"1088 1433 OFFCURVE",
"1066.667 1410.333 OFFCURVE",
"1052 1389 CURVE SMOOTH",
"671 815 LINE",
"648.333 776.333 OFFCURVE",
"629 742.667 OFFCURVE",
"613 708 CURVE",
"606.333 742.667 OFFCURVE",
"597.333 776.333 OFFCURVE",
"584 815 CURVE",
"346 1389 LINE SMOOTH",
"335.333 1414.333 OFFCURVE",
"320.333 1433 OFFCURVE",
"287 1433 CURVE SMOOTH",
"121 1433 LINE",
"499 571 LINE",
"428 0 LINE",
"615 0 LINE",
"686 573 LINE"
);
}
);
userData = {
assembly = "NPUSHB[ ]\011/* 8 values pushed */
20 18 6 4 2 1 3 7 
CALL[ ]\011/* CallFunction */
MPPEM[ ]\011/* MeasurePixelPerEm */
PUSHB[ ]\011/* 1 value pushed */
95 
LT[ ]\011/* LessThan */
IF[ ]\011/* If */
NPUSHB[ ]\011/* 20 values pushed */
12 3 2 0 1 1 30 2 1 1 1 11 31 0 0 0 12 0 32 3 
ELSE[ ]\011/* Else */
MPPEM[ ]\011/* MeasurePixelPerEm */
PUSHB[ ]\011/* 1 value pushed */
108 
LT[ ]\011/* LessThan */
IF[ ]\011/* If */
NPUSHB[ ]\011/* 20 values pushed */
12 3 2 0 1 1 30 2 1 1 0 1 52 0 0 0 15 0 32 3 
ELSE[ ]\011/* Else */
MPPEM[ ]\011/* MeasurePixelPerEm */
PUSHB[ ]\011/* 1 value pushed */
232 
LT[ ]\011/* LessThan */
IF[ ]\011/* If */
NPUSHB[ ]\011/* 18 values pushed */
12 3 2 0 1 1 30 2 1 1 0 1 52 0 0 0 43 3 
ELSE[ ]\011/* Else */
NPUSHB[ ]\011/* 22 values pushed */
12 3 2 0 2 1 30 0 1 2 1 52 0 2 0 2 52 0 0 0 43 4 
EIF[ ]\011/* EndIf */
EIF[ ]\011/* EndIf */
EIF[ ]\011/* EndIf */
PUSHB[ ]\011/* 1 value pushed */
56 
CALL[ ]\011/* CallFunction */";
};
width = 1165;
}
);
note = Y;
unicode = 0059;
},
{
glyphname = Z;
layers = (
{
layerId = "30DC88F3-813A-4685-BB5F-1C042FFC1B6D";
paths = (
{
closed = 1;
nodes = (
"228 1433 LINE",
"209 1280 LINE",
"922 1280 LINE",
"46 107 LINE SMOOTH",
"34 91 OFFCURVE",
"26.667 77.667 OFFCURVE",
"24 59 CURVE SMOOTH",
"16 0 LINE",
"1006 0 LINE",
"1026 152 LINE",
"288 152 LINE",
"1164 1324 LINE SMOOTH",
"1176 1340 OFFCURVE",
"1184.333 1354.333 OFFCURVE",
"1187 1373 CURVE SMOOTH",
"1195 1433 LINE"
);
}
);
userData = {
assembly = "NPUSHB[ ]\011/* 14 values pushed */
0 0 0 15 0 15 14 13 8 7 6 5 5 7 
CALL[ ]\011/* CallFunction */
MPPEM[ ]\011/* MeasurePixelPerEm */
PUSHB[ ]\011/* 1 value pushed */
95 
LT[ ]\011/* LessThan */
IF[ ]\011/* If */
NPUSHB[ ]\011/* 27 values pushed */
0 2 2 3 0 0 36 4 1 3 3 11 31 0 0 0 1 0 0 36 0 1 1 12 1 32 4 
ELSE[ ]\011/* Else */
MPPEM[ ]\011/* MeasurePixelPerEm */
PUSHB[ ]\011/* 1 value pushed */
108 
LT[ ]\011/* LessThan */
IF[ ]\011/* If */
NPUSHB[ ]\011/* 25 values pushed */
4 1 3 0 2 0 3 2 0 0 38 0 0 0 1 0 0 36 0 1 1 15 1 32 3 
ELSE[ ]\011/* Else */
NPUSHB[ ]\011/* 34 values pushed */
4 1 3 0 2 0 3 2 0 0 38 0 0 1 1 0 0 0 35 0 0 0 1 0 0 36 0 1 0 1 0 0 33 4 
EIF[ ]\011/* EndIf */
EIF[ ]\011/* EndIf */
PUSHB[ ]\011/* 1 value pushed */
56 
CALL[ ]\011/* CallFunction */";
};
width = 1148;
}
);
note = Z;
unicode = 005A;
},
{
glyphname = a;
layers = (
{
layerId = "30DC88F3-813A-4685-BB5F-1C042FFC1B6D";
paths = (
{
closed = 1;
nodes = (
"937 980 LINE",
"857 1014.667 OFFCURVE",
"775.667 1027 OFFCURVE",
"689 1027 CURVE SMOOTH",
"629 1027 OFFCURVE",
"571.667 1018.5 OFFCURVE",
"517 1001.5 CURVE SMOOTH",
"407.667 967.5 OFFCURVE",
"311.333 904.167 OFFCURVE",
"234 819.5 CURVE SMOOTH",
"195.333 777.167 OFFCURVE",
"162.167 730.667 OFFCURVE",
"134.5 680 CURVE SMOOTH",
"79.167 578.667 OFFCURVE",
"48 463 OFFCURVE",
"48 343 CURVE SMOOTH",
"48 228.333 OFFCURVE",
"74.5 139.167 OFFCURVE",
"120.5 78.5 CURVE SMOOTH",
"166.5 17.833 OFFCURVE",
"233 -14 OFFCURVE",
"313 -14 CURVE SMOOTH",
"386.333 -14 OFFCURVE",
"454.5 13.833 OFFCURVE",
"516.5 62.5 CURVE SMOOTH",
"578.5 111.167 OFFCURVE",
"634 181.667 OFFCURVE",
"682 267 CURVE",
"664 62 LINE",
"664 27.333 OFFCURVE",
"677.333 0 OFFCURVE",
"724 0 CURVE SMOOTH",
"816 0 LINE"
);
},
{
closed = 1;
nodes = (
"277.333 134 OFFCURVE",
"226 214.333 OFFCURVE",
"226 375 CURVE SMOOTH",
"226 421 OFFCURVE",
"231.333 465.833 OFFCURVE",
"242 509.5 CURVE SMOOTH",
"263.333 596.833 OFFCURVE",
"301.667 674.833 OFFCURVE",
"355 739.5 CURVE SMOOTH",
"381.667 771.833 OFFCURVE",
"411.333 799.667 OFFCURVE",
"444 823 CURVE SMOOTH",
"509.333 869.667 OFFCURVE",
"585 897 OFFCURVE",
"665 897 CURVE SMOOTH",
"693 897 OFFCURVE",
"721.667 895.667 OFFCURVE",
"751 889 CURVE",
"708 541 LINE",
"670.667 422.333 OFFCURVE",
"621 321 OFFCURVE",
"565 249 CURVE SMOOTH",
"509 177 OFFCURVE",
"445.333 134 OFFCURVE",
"380 134 CURVE SMOOTH"
);
}
);
userData = {
assembly = "NPUSHB[ ]\011/* 16 values pushed */
27 26 36 33 26 43 27 43 23 21 11 9 2 0 6 7 
CALL[ ]\011/* CallFunction */
MPPEM[ ]\011/* MeasurePixelPerEm */
PUSHB[ ]\011/* 1 value pushed */
34 
LT[ ]\011/* LessThan */
IF[ ]\011/* If */
NPUSHB[ ]\011/* 43 values pushed */
25 1 4 2 32 5 2 3 4 4 1 0 3 3 30 0 4 4 2 1 0 36 0 2 2 20 31 5 1 3 3 0 1 0 36 1 1 0 0 12 0 32 5 
ELSE[ ]\011/* Else */
MPPEM[ ]\011/* MeasurePixelPerEm */
PUSHB[ ]\011/* 1 value pushed */
95 
LT[ ]\011/* LessThan */
IF[ ]\011/* If */
NPUSHB[ ]\011/* 47 values pushed */
25 1 4 2 32 5 2 3 4 4 1 0 3 3 30 0 4 4 2 1 0 36 0 2 2 20 31 0 0 0 12 31 5 1 3 3 1 1 0 36 0 1 1 21 1 32 6 
ELSE[ ]\011/* Else */
MPPEM[ ]\011/* MeasurePixelPerEm */
PUSHB[ ]\011/* 1 value pushed */
108 
LT[ ]\011/* LessThan */
IF[ ]\011/* If */
NPUSHB[ ]\011/* 47 values pushed */
25 1 4 2 32 5 2 3 4 4 1 0 3 3 30 0 4 4 2 1 0 36 0 2 2 20 31 0 0 0 15 31 5 1 3 3 1 1 0 36 0 1 1 21 1 32 6 
ELSE[ ]\011/* Else */
NPUSHB[ ]\011/* 58 values pushed */
25 1 4 2 32 5 2 3 4 4 1 0 3 3 30 0 0 3 1 3 0 1 50 0 2 0 4 3 2 4 1 0 38 5 1 3 0 1 3 1 0 35 5 1 3 3 1 1 0 36 0 1 3 1 1 0 33 6 
EIF[ ]\011/* EndIf */
EIF[ ]\011/* EndIf */
EIF[ ]\011/* EndIf */
PUSHB[ ]\011/* 1 value pushed */
56 
CALL[ ]\011/* CallFunction */";
};
width = 1010;
}
);
note = a;
unicode = 0061;
},
{
glyphname = aogonek;
layers = (
{
layerId = "30DC88F3-813A-4685-BB5F-1C042FFC1B6D";
paths = (
{
closed = 1;
nodes = (
"820.741 -214 OFFCURVE",
"774.128 -238 OFFCURVE",
"744 -238 CURVE SMOOTH",
"701.333 -238 OFFCURVE",
"672 -209.667 OFFCURVE",
"672 -167 CURVE SMOOTH",
"672 -91.325 OFFCURVE",
"740.196 -34.173 OFFCURVE",
"800 0 CURVE",
"816 0 LINE",
"937 980 LINE",
"857 1014.667 OFFCURVE",
"775.667 1027 OFFCURVE",
"689 1027 CURVE SMOOTH",
"629 1027 OFFCURVE",
"571.667 1018.5 OFFCURVE",
"517 1001.5 CURVE SMOOTH",
"407.667 967.5 OFFCURVE",
"311.333 904.167 OFFCURVE",
"234 819.5 CURVE SMOOTH",
"195.333 777.167 OFFCURVE",
"162.167 730.667 OFFCURVE",
"134.5 680 CURVE SMOOTH",
"79.167 578.667 OFFCURVE",
"48 463 OFFCURVE",
"48 343 CURVE SMOOTH",
"48 228.333 OFFCURVE",
"74.5 139.167 OFFCURVE",
"120.5 78.5 CURVE SMOOTH",
"166.5 17.833 OFFCURVE",
"233 -14 OFFCURVE",
"313 -14 CURVE SMOOTH",
"386.333 -14 OFFCURVE",
"454.5 13.833 OFFCURVE",
"516.5 62.5 CURVE SMOOTH",
"578.5 111.167 OFFCURVE",
"634 181.667 OFFCURVE",
"682 267 CURVE",
"664 62 LINE",
"664 35.333 OFFCURVE",
"671.667 13.333 OFFCURVE",
"697 4 CURVE",
"610.159 -47.083 OFFCURVE",
"539 -127.02 OFFCURVE",
"539 -214 CURVE SMOOTH",
"539 -291.333 OFFCURVE",
"595.667 -342 OFFCURVE",
"697 -342 CURVE SMOOTH",
"761 -342 OFFCURVE",
"824 -320.667 OFFCURVE",
"864 -290 CURVE",
"846 -226 LINE SMOOTH",
"844 -218 OFFCURVE",
"838.667 -214 OFFCURVE",
"830 -214 CURVE SMOOTH"
);
},
{
closed = 1;
nodes = (
"277.333 134 OFFCURVE",
"226 214.333 OFFCURVE",
"226 375 CURVE SMOOTH",
"226 421 OFFCURVE",
"231.333 465.833 OFFCURVE",
"242 509.5 CURVE SMOOTH",
"263.333 596.833 OFFCURVE",
"301.667 674.833 OFFCURVE",
"355 739.5 CURVE SMOOTH",
"381.667 771.833 OFFCURVE",
"411.333 799.667 OFFCURVE",
"444 823 CURVE SMOOTH",
"509.333 869.667 OFFCURVE",
"585 897 OFFCURVE",
"665 897 CURVE SMOOTH",
"693 897 OFFCURVE",
"721.667 895.667 OFFCURVE",
"751 889 CURVE",
"708 541 LINE",
"670.667 422.333 OFFCURVE",
"621 321 OFFCURVE",
"565 249 CURVE SMOOTH",
"509 177 OFFCURVE",
"445.333 134 OFFCURVE",
"380 134 CURVE SMOOTH"
);
}
);
userData = {
assembly = "NPUSHB[ ]\011/* 26 values pushed */
54 53 1 0 63 60 53 70 54 70 49 47 40 39 36 34 24 22 7 5 0 52 1 52 10 7 
CALL[ ]\011/* CallFunction */
MPPEM[ ]\011/* MeasurePixelPerEm */
PUSHB[ ]\011/* 1 value pushed */
9 
LT[ ]\011/* LessThan */
IF[ ]\011/* If */
NPUSHB[ ]\011/* 62 values pushed */
38 1 7 3 59 18 2 6 7 17 14 2 2 6 3 1 1 0 4 30 0 7 7 3 1 0 36 0 3 3 20 31 9 1 6 6 2 1 0 36 4 1 2 2 18 31 5 8 2 0 0 1 1 0 36 0 1 1 16 1 32 7 
ELSE[ ]\011/* Else */
MPPEM[ ]\011/* MeasurePixelPerEm */
PUSHB[ ]\011/* 1 value pushed */
21 
LT[ ]\011/* LessThan */
IF[ ]\011/* If */
NPUSHB[ ]\011/* 62 values pushed */
38 1 7 3 59 18 2 6 7 17 14 2 2 6 3 1 1 0 4 30 0 7 7 3 1 0 36 0 3 3 20 31 9 1 6 6 2 1 0 36 4 1 2 2 21 31 5 8 2 0 0 1 1 0 36 0 1 1 16 1 32 7 
ELSE[ ]\011/* Else */
MPPEM[ ]\011/* MeasurePixelPerEm */
PUSHB[ ]\011/* 1 value pushed */
34 
LT[ ]\011/* LessThan */
IF[ ]\011/* If */
NPUSHB[ ]\011/* 69 values pushed */
38 1 7 3 59 18 2 6 7 17 14 2 2 6 3 1 1 5 4 30 8 1 0 2 5 2 0 5 50 0 7 7 3 1 0 36 0 3 3 20 31 9 1 6 6 2 1 0 36 4 1 2 2 21 31 0 5 5 1 1 0 36 0 1 1 16 1 32 8 
ELSE[ ]\011/* Else */
MPPEM[ ]\011/* MeasurePixelPerEm */
PUSHB[ ]\011/* 1 value pushed */
73 
LT[ ]\011/* LessThan */
IF[ ]\011/* If */
NPUSHB[ ]\011/* 73 values pushed */
38 1 7 3 59 18 2 6 7 17 14 2 4 6 3 1 1 5 4 30 8 1 0 2 5 2 0 5 50 0 7 7 3 1 0 36 0 3 3 20 31 0 4 4 12 31 9 1 6 6 2 1 0 36 0 2 2 21 31 0 5 5 1 1 0 36 0 1 1 16 1 32 9 
ELSE[ ]\011/* Else */
MPPEM[ ]\011/* MeasurePixelPerEm */
PUSHB[ ]\011/* 1 value pushed */
95 
LT[ ]\011/* LessThan */
IF[ ]\011/* If */
NPUSHB[ ]\011/* 70 values pushed */
38 1 7 3 59 18 2 6 7 17 14 2 4 6 3 1 1 5 4 30 8 1 0 2 5 2 0 5 50 0 5 0 1 5 1 1 0 37 0 7 7 3 1 0 36 0 3 3 20 31 0 4 4 12 31 9 1 6 6 2 1 0 36 0 2 2 21 2 32 8 
ELSE[ ]\011/* Else */
MPPEM[ ]\011/* MeasurePixelPerEm */
PUSHB[ ]\011/* 1 value pushed */
108 
LT[ ]\011/* LessThan */
IF[ ]\011/* If */
NPUSHB[ ]\011/* 70 values pushed */
38 1 7 3 59 18 2 6 7 17 14 2 4 6 3 1 1 5 4 30 8 1 0 2 5 2 0 5 50 0 5 0 1 5 1 1 0 37 0 7 7 3 1 0 36 0 3 3 20 31 0 4 4 15 31 9 1 6 6 2 1 0 36 0 2 2 21 2 32 8 
ELSE[ ]\011/* Else */
NPUSHB[ ]\011/* 81 values pushed */
38 1 7 3 59 18 2 6 7 17 14 2 4 6 3 1 1 5 4 30 0 4 6 2 6 4 2 50 8 1 0 2 5 2 0 5 50 0 3 0 7 6 3 7 1 0 38 9 1 6 0 2 0 6 2 1 0 38 0 5 1 1 5 1 0 35 0 5 5 1 1 0 36 0 1 5 1 1 0 33 8 
EIF[ ]\011/* EndIf */
EIF[ ]\011/* EndIf */
EIF[ ]\011/* EndIf */
EIF[ ]\011/* EndIf */
EIF[ ]\011/* EndIf */
EIF[ ]\011/* EndIf */
PUSHB[ ]\011/* 1 value pushed */
56 
CALL[ ]\011/* CallFunction */";
};
width = 1012;
}
);
note = aogonek;
unicode = 0105;
},
{
glyphname = ae;
layers = (
{
layerId = "30DC88F3-813A-4685-BB5F-1C042FFC1B6D";
paths = (
{
closed = 1;
nodes = (
"969 1027 OFFCURVE",
"853 961 OFFCURVE",
"773 849 CURVE",
"743.667 962.333 OFFCURVE",
"665 1030 OFFCURVE",
"521 1030 CURVE SMOOTH",
"382.333 1030 OFFCURVE",
"269 977 OFFCURVE",
"153 869 CURVE",
"176 814 LINE SMOOTH",
"184 795.333 OFFCURVE",
"200 782 OFFCURVE",
"224 782 CURVE SMOOTH",
"251.077 782 OFFCURVE",
"290.023 812.412 OFFCURVE",
"325.5 835.5 CURVE SMOOTH",
"367.5 862.833 OFFCURVE",
"422 889 OFFCURVE",
"502 889 CURVE SMOOTH",
"604.667 889 OFFCURVE",
"656 829.333 OFFCURVE",
"656 710 CURVE SMOOTH",
"656 692.262 OFFCURVE",
"651.661 647.374 OFFCURVE",
"644 588 CURVE",
"416 581.333 OFFCURVE",
"263 537.5 OFFCURVE",
"167 471.5 CURVE SMOOTH",
"71 405.5 OFFCURVE",
"31 317.667 OFFCURVE",
"31 223 CURVE SMOOTH",
"31 63 OFFCURVE",
"130.667 -16 OFFCURVE",
"308 -16 CURVE SMOOTH",
"373.333 -16 OFFCURVE",
"446.333 -0.333 OFFCURVE",
"513 37 CURVE SMOOTH",
"579.667 74.333 OFFCURVE",
"641.333 131.333 OFFCURVE",
"684 214 CURVE",
"736 62 OFFCURVE",
"847 -14 OFFCURVE",
"987 -14 CURVE SMOOTH",
"1072.333 -14 OFFCURVE",
"1145 1.833 OFFCURVE",
"1213 34.5 CURVE SMOOTH",
"1281 67.167 OFFCURVE",
"1344 117.667 OFFCURVE",
"1412 187 CURVE",
"1368 242 LINE SMOOTH",
"1358.667 253.333 OFFCURVE",
"1347.333 259 OFFCURVE",
"1334 259 CURVE SMOOTH",
"1305.528 259 OFFCURVE",
"1263.773 221.49 OFFCURVE",
"1226.5 192.5 CURVE SMOOTH",
"1187.625 162.264 OFFCURVE",
"1089.963 126 OFFCURVE",
"1021 126 CURVE SMOOTH",
"877 126 OFFCURVE",
"791 229.333 OFFCURVE",
"791 436 CURVE SMOOTH",
"791 442.667 OFFCURVE",
"791 449.333 OFFCURVE",
"791 456 CURVE SMOOTH",
"791 462.667 OFFCURVE",
"791.333 469.333 OFFCURVE",
"792 476 CURVE",
"1029.333 480 OFFCURVE",
"1181.167 519.833 OFFCURVE",
"1272.5 576.5 CURVE SMOOTH",
"1363.833 633.167 OFFCURVE",
"1396 708 OFFCURVE",
"1396 784 CURVE SMOOTH",
"1396 924.679 OFFCURVE",
"1273.25 1027 OFFCURVE",
"1117 1027 CURVE SMOOTH"
);
},
{
closed = 1;
nodes = (
"621 401 LINE SMOOTH",
"609 302.333 OFFCURVE",
"572.5 228.333 OFFCURVE",
"522.5 179 CURVE SMOOTH",
"472.5 129.667 OFFCURVE",
"409.333 105 OFFCURVE",
"340 105 CURVE SMOOTH",
"253.333 105 OFFCURVE",
"197 150 OFFCURVE",
"197 246 CURVE SMOOTH",
"197 312.667 OFFCURVE",
"224.833 367 OFFCURVE",
"293.5 407 CURVE SMOOTH",
"362.167 447 OFFCURVE",
"471 472.333 OFFCURVE",
"631 479 CURVE"
);
},
{
closed = 1;
nodes = (
"1188.333 900 OFFCURVE",
"1240 851 OFFCURVE",
"1240 775 CURVE SMOOTH",
"1240 727 OFFCURVE",
"1216.5 683.5 OFFCURVE",
"1150.5 649.5 CURVE SMOOTH",
"1084.5 615.5 OFFCURVE",
"975.333 590.333 OFFCURVE",
"802 581 CURVE",
"818 677 OFFCURVE",
"851.833 757 OFFCURVE",
"900.5 813 CURVE SMOOTH",
"949.167 869 OFFCURVE",
"1015 900 OFFCURVE",
"1095 900 CURVE SMOOTH"
);
}
);
userData = {
assembly = "NPUSHB[ ]\011/* 38 values pushed */
87 86 1 0 92 91 86 98 87 98 81 79 73 72 67 65 60 58 55 53 47 46 40 38 32 30 24 22 17 15 10 9 0 71 1 71 16 7 
CALL[ ]\011/* CallFunction */
MPPEM[ ]\011/* MeasurePixelPerEm */
PUSHB[ ]\011/* 1 value pushed */
9 
LT[ ]\011/* LessThan */
IF[ ]\011/* If */
NPUSHB[ ]\011/* 72 values pushed */
69 63 2 8 7 34 26 2 2 3 2 30 0 8 7 6 7 8 6 50 0 3 1 2 1 3 2 50 13 1 6 10 1 1 3 6 1 1 0 38 15 12 2 7 7 0 1 0 36 9 14 2 0 0 20 31 11 1 2 2 4 1 0 36 5 1 4 4 18 4 32 8 
ELSE[ ]\011/* Else */
MPPEM[ ]\011/* MeasurePixelPerEm */
PUSHB[ ]\011/* 1 value pushed */
23 
LT[ ]\011/* LessThan */
IF[ ]\011/* If */
NPUSHB[ ]\011/* 72 values pushed */
69 63 2 8 7 34 26 2 2 3 2 30 0 8 7 6 7 8 6 50 0 3 1 2 1 3 2 50 13 1 6 10 1 1 3 6 1 1 0 38 15 12 2 7 7 0 1 0 36 9 14 2 0 0 20 31 11 1 2 2 4 1 0 36 5 1 4 4 21 4 32 8 
ELSE[ ]\011/* Else */
MPPEM[ ]\011/* MeasurePixelPerEm */
PUSHB[ ]\011/* 1 value pushed */
44 
LT[ ]\011/* LessThan */
IF[ ]\011/* If */
NPUSHB[ ]\011/* 84 values pushed */
69 63 2 8 7 34 26 2 2 3 2 30 0 8 7 6 7 8 6 50 0 3 1 2 1 3 2 50 13 1 6 10 1 1 3 6 1 1 0 38 15 12 2 7 7 0 1 0 36 9 14 2 0 0 20 31 0 2 2 4 1 0 36 5 1 4 4 21 31 0 11 11 4 1 0 36 5 1 4 4 21 4 32 10 
ELSE[ ]\011/* Else */
MPPEM[ ]\011/* MeasurePixelPerEm */
PUSHB[ ]\011/* 1 value pushed */
108 
LT[ ]\011/* LessThan */
IF[ ]\011/* If */
NPUSHB[ ]\011/* 97 values pushed */
69 63 2 8 7 34 26 2 2 3 2 30 0 8 7 6 7 8 6 50 0 3 1 2 1 3 2 50 13 1 6 10 1 1 3 6 1 1 0 38 15 1 12 12 0 1 0 36 9 14 2 0 0 20 31 0 7 7 0 1 0 36 9 14 2 0 0 20 31 0 2 2 4 1 0 36 5 1 4 4 21 31 0 11 11 4 1 0 36 5 1 4 4 21 4 32 12 
ELSE[ ]\011/* Else */
MPPEM[ ]\011/* MeasurePixelPerEm */
PUSHB[ ]\011/* 1 value pushed */
143 
LT[ ]\011/* LessThan */
IF[ ]\011/* If */
NPUSHB[ ]\011/* 93 values pushed */
69 63 2 8 7 34 26 2 2 3 2 30 0 8 7 6 7 8 6 50 0 3 1 2 1 3 2 50 15 1 12 7 0 12 1 0 35 9 14 2 0 0 7 8 0 7 1 0 38 13 1 6 10 1 1 3 6 1 1 0 38 0 2 11 4 2 1 0 35 0 11 4 4 11 1 0 35 0 11 11 4 1 0 36 5 1 4 11 4 1 0 33 10 
ELSE[ ]\011/* Else */
MPPEM[ ]\011/* MeasurePixelPerEm */
PUSHB[ ]\011/* 1 value pushed */
200 
LT[ ]\011/* LessThan */
IF[ ]\011/* If */
NPUSHB[ ]\011/* 94 values pushed */
69 63 2 8 7 34 26 2 2 3 2 30 0 8 7 6 7 8 6 50 0 3 1 2 1 3 2 50 14 1 0 15 1 12 7 0 12 1 0 38 0 9 0 7 8 9 7 1 0 38 13 1 6 10 1 1 3 6 1 1 0 38 0 2 11 4 2 1 0 35 0 11 4 4 11 1 0 35 0 11 11 4 1 0 36 5 1 4 11 4 1 0 33 10 
ELSE[ ]\011/* Else */
MPPEM[ ]\011/* MeasurePixelPerEm */
PUSHB[ ]\011/* 1 value pushed */
78 
LT[ ]\011/* LessThan */
IF[ ]\011/* If */
NPUSHB[ ]\011/* 95 values pushed */
69 63 2 8 7 34 26 2 2 3 2 30 0 8 7 6 7 8 6 50 0 3 1 2 1 3 2 50 14 1 0 15 1 12 7 0 12 1 0 38 0 9 0 7 8 9 7 1 0 38 13 1 6 10 1 1 3 6 1 1 0 38 0 11 4 5 11 1 0 35 0 2 0 4 5 2 4 1 0 38 0 11 11 5 1 0 36 0 5 11 5 1 0 33 10 
ELSE[ ]\011/* Else */
NPUSHB[ ]\011/* 103 values pushed */
69 63 2 8 7 34 26 2 2 3 2 30 0 8 7 6 7 8 6 50 0 3 10 2 10 3 2 50 14 1 0 15 1 12 7 0 12 1 0 38 0 9 0 7 8 9 7 1 0 38 0 13 0 1 10 13 1 1 0 38 0 6 0 10 3 6 10 1 0 38 0 11 4 5 11 1 0 35 0 2 0 4 5 2 4 1 0 38 0 11 11 5 1 0 36 0 5 11 5 1 0 33 11 
EIF[ ]\011/* EndIf */
EIF[ ]\011/* EndIf */
EIF[ ]\011/* EndIf */
EIF[ ]\011/* EndIf */
EIF[ ]\011/* EndIf */
EIF[ ]\011/* EndIf */
EIF[ ]\011/* EndIf */
PUSHB[ ]\011/* 1 value pushed */
56 
CALL[ ]\011/* CallFunction */";
};
width = 1446;
}
);
note = ae;
unicode = 00E6;
},
{
glyphname = b;
layers = (
{
layerId = "30DC88F3-813A-4685-BB5F-1C042FFC1B6D";
paths = (
{
closed = 1;
nodes = (
"174 0 LINE SMOOTH",
"214 0 OFFCURVE",
"226.333 17.333 OFFCURVE",
"237 52 CURVE",
"250 117 LINE",
"306 33 OFFCURVE",
"396 -14 OFFCURVE",
"504 -14 CURVE SMOOTH",
"550.667 -14 OFFCURVE",
"595.333 -5 OFFCURVE",
"638 13 CURVE SMOOTH",
"723.333 49 OFFCURVE",
"796.167 113.5 OFFCURVE",
"855.5 199.5 CURVE SMOOTH",
"885.167 242.5 OFFCURVE",
"910.5 288.833 OFFCURVE",
"931.5 338.5 CURVE SMOOTH",
"973.5 437.833 OFFCURVE",
"997 549.667 OFFCURVE",
"997 659 CURVE SMOOTH",
"997 900.333 OFFCURVE",
"896 1028 OFFCURVE",
"724 1028 CURVE SMOOTH",
"652 1028 OFFCURVE",
"582 1000.667 OFFCURVE",
"518 954 CURVE SMOOTH",
"454 907.333 OFFCURVE",
"394.667 838.333 OFFCURVE",
"344 757 CURVE",
"432 1473 LINE",
"257 1473 LINE",
"79 0 LINE"
);
},
{
closed = 1;
nodes = (
"761 885 OFFCURVE",
"821 800.667 OFFCURVE",
"821 642 CURVE SMOOTH",
"821 602 OFFCURVE",
"817.333 561.5 OFFCURVE",
"810 520.5 CURVE SMOOTH",
"795.333 438.5 OFFCURVE",
"768 360.833 OFFCURVE",
"728 293.5 CURVE SMOOTH",
"708 259.833 OFFCURVE",
"685.333 230.5 OFFCURVE",
"660 205.5 CURVE SMOOTH",
"609.333 155.5 OFFCURVE",
"547.333 124 OFFCURVE",
"478 124 CURVE SMOOTH",
"404.667 124 OFFCURVE",
"329.667 151 OFFCURVE",
"279 223 CURVE",
"311 486 LINE",
"349.667 602 OFFCURVE",
"404.833 701.333 OFFCURVE",
"465.5 772 CURVE SMOOTH",
"526.167 842.667 OFFCURVE",
"593 885 OFFCURVE",
"657 885 CURVE SMOOTH"
);
}
);
userData = {
assembly = "NPUSHB[ ]\011/* 22 values pushed */
27 26 0 0 36 34 26 44 27 44 0 25 0 24 19 17 9 7 2 1 8 7 
CALL[ ]\011/* CallFunction */
MPPEM[ ]\011/* MeasurePixelPerEm */
PUSHB[ ]\011/* 1 value pushed */
9 
LT[ ]\011/* LessThan */
IF[ ]\011/* If */
NPUSHB[ ]\011/* 45 values pushed */
32 3 2 5 4 21 1 2 5 2 30 0 0 0 13 31 7 1 4 4 1 1 0 36 0 1 1 20 31 0 5 5 2 1 2 36 6 3 2 2 2 18 2 32 6 
ELSE[ ]\011/* Else */
MPPEM[ ]\011/* MeasurePixelPerEm */
PUSHB[ ]\011/* 1 value pushed */
34 
LT[ ]\011/* LessThan */
IF[ ]\011/* If */
NPUSHB[ ]\011/* 45 values pushed */
32 3 2 5 4 21 1 2 5 2 30 0 0 0 13 31 7 1 4 4 1 1 0 36 0 1 1 20 31 0 5 5 2 1 2 36 6 3 2 2 2 21 2 32 6 
ELSE[ ]\011/* Else */
MPPEM[ ]\011/* MeasurePixelPerEm */
PUSHB[ ]\011/* 1 value pushed */
95 
LT[ ]\011/* LessThan */
IF[ ]\011/* If */
NPUSHB[ ]\011/* 49 values pushed */
32 3 2 5 4 21 1 3 5 2 30 0 0 0 13 31 7 1 4 4 1 1 0 36 0 1 1 20 31 6 1 3 3 12 31 0 5 5 2 1 2 36 0 2 2 21 2 32 7 
ELSE[ ]\011/* Else */
MPPEM[ ]\011/* MeasurePixelPerEm */
PUSHB[ ]\011/* 1 value pushed */
108 
LT[ ]\011/* LessThan */
IF[ ]\011/* If */
NPUSHB[ ]\011/* 49 values pushed */
32 3 2 5 4 21 1 3 5 2 30 0 0 0 13 31 7 1 4 4 1 1 0 36 0 1 1 20 31 6 1 3 3 15 31 0 5 5 2 1 2 36 0 2 2 21 2 32 7 
ELSE[ ]\011/* Else */
MPPEM[ ]\011/* MeasurePixelPerEm */
PUSHB[ ]\011/* 1 value pushed */
141 
LT[ ]\011/* LessThan */
IF[ ]\011/* If */
NPUSHB[ ]\011/* 47 values pushed */
32 3 2 5 4 21 1 3 5 2 30 6 1 3 5 2 5 3 2 50 0 1 7 1 4 5 1 4 1 0 38 0 5 0 2 5 2 1 2 37 0 0 0 13 0 32 5 
ELSE[ ]\011/* Else */
NPUSHB[ ]\011/* 59 values pushed */
32 3 2 5 4 21 1 3 5 2 30 0 0 1 0 52 6 1 3 5 2 5 3 2 50 0 1 7 1 4 5 1 4 1 0 38 0 5 3 2 5 1 0 35 0 5 5 2 1 2 36 0 2 5 2 1 2 33 7 
EIF[ ]\011/* EndIf */
EIF[ ]\011/* EndIf */
EIF[ ]\011/* EndIf */
EIF[ ]\011/* EndIf */
EIF[ ]\011/* EndIf */
PUSHB[ ]\011/* 1 value pushed */
56 
CALL[ ]\011/* CallFunction */";
};
width = 1050;
}
);
note = b;
unicode = 0062;
},
{
glyphname = c;
layers = (
{
layerId = "30DC88F3-813A-4685-BB5F-1C042FFC1B6D";
paths = (
{
closed = 1;
nodes = (
"819 182 LINE",
"775 236 LINE SMOOTH",
"765.667 247.333 OFFCURVE",
"754.333 253 OFFCURVE",
"741 253 CURVE SMOOTH",
"715.289 253 OFFCURVE",
"678.891 215.571 OFFCURVE",
"646.5 189.5 CURVE SMOOTH",
"610.933 160.873 OFFCURVE",
"521.273 126 OFFCURVE",
"457 126 CURVE SMOOTH",
"311.243 126 OFFCURVE",
"238 238.133 OFFCURVE",
"238 399 CURVE SMOOTH",
"238 535 OFFCURVE",
"275.667 657.333 OFFCURVE",
"337 744 CURVE SMOOTH",
"398.333 830.667 OFFCURVE",
"483 884 OFFCURVE",
"575 884 CURVE SMOOTH",
"643 884 OFFCURVE",
"683.833 864.167 OFFCURVE",
"712.5 843.5 CURVE SMOOTH",
"734.562 827.594 OFFCURVE",
"758.822 803 OFFCURVE",
"775 803 CURVE SMOOTH",
"789.667 803 OFFCURVE",
"802 810.333 OFFCURVE",
"810 821 CURVE",
"866 888 LINE",
"798 978.667 OFFCURVE",
"712.333 1027 OFFCURVE",
"579 1027 CURVE SMOOTH",
"427 1027 OFFCURVE",
"298 952 OFFCURVE",
"206 836 CURVE SMOOTH",
"114 720 OFFCURVE",
"60 564 OFFCURVE",
"60 400 CURVE SMOOTH",
"60 277.333 OFFCURVE",
"91.833 173.167 OFFCURVE",
"152.5 100.5 CURVE SMOOTH",
"213.167 27.833 OFFCURVE",
"303.667 -14 OFFCURVE",
"421 -14 CURVE SMOOTH",
"498.333 -14 OFFCURVE",
"564.333 -3.5 OFFCURVE",
"627 26.5 CURVE SMOOTH",
"689.667 56.5 OFFCURVE",
"749.667 106 OFFCURVE",
"819 182 CURVE"
);
}
);
userData = {
assembly = "NPUSHB[ ]\011/* 14 values pushed */
45 43 38 36 28 26 23 21 16 14 6 4 6 7 
CALL[ ]\011/* CallFunction */
MPPEM[ ]\011/* MeasurePixelPerEm */
PUSHB[ ]\011/* 1 value pushed */
9 
LT[ ]\011/* LessThan */
IF[ ]\011/* If */
NPUSHB[ ]\011/* 47 values pushed */
18 1 3 1 1 30 0 2 3 5 3 2 5 50 0 5 4 3 5 4 48 0 3 3 1 1 0 36 0 1 1 20 31 0 4 4 0 1 0 36 0 0 0 18 0 32 7 
ELSE[ ]\011/* Else */
MPPEM[ ]\011/* MeasurePixelPerEm */
PUSHB[ ]\011/* 1 value pushed */
108 
LT[ ]\011/* LessThan */
IF[ ]\011/* If */
NPUSHB[ ]\011/* 47 values pushed */
18 1 3 1 1 30 0 2 3 5 3 2 5 50 0 5 4 3 5 4 48 0 3 3 1 1 0 36 0 1 1 20 31 0 4 4 0 1 0 36 0 0 0 21 0 32 7 
ELSE[ ]\011/* Else */
NPUSHB[ ]\011/* 54 values pushed */
18 1 3 1 1 30 0 2 3 5 3 2 5 50 0 5 4 3 5 4 48 0 1 0 3 2 1 3 1 0 38 0 4 0 0 4 1 0 35 0 4 4 0 1 0 36 0 0 4 0 1 0 33 7 
EIF[ ]\011/* EndIf */
EIF[ ]\011/* EndIf */
PUSHB[ ]\011/* 1 value pushed */
56 
CALL[ ]\011/* CallFunction */";
};
width = 866;
}
);
note = c;
unicode = 0063;
},
{
glyphname = ccedilla;
layers = (
{
layerId = "30DC88F3-813A-4685-BB5F-1C042FFC1B6D";
paths = (
{
closed = 1;
nodes = (
"270 -249 OFFCURVE",
"262.333 -254.667 OFFCURVE",
"257 -266 CURVE SMOOTH",
"234 -319 LINE",
"270 -339 OFFCURVE",
"314.333 -351 OFFCURVE",
"365 -351 CURVE SMOOTH",
"487.836 -351 OFFCURVE",
"586 -297.158 OFFCURVE",
"586 -198 CURVE SMOOTH",
"586 -136.667 OFFCURVE",
"543.667 -94.667 OFFCURVE",
"445 -72 CURVE",
"468 -12 LINE",
"533.333 -8 OFFCURVE",
"590 6.5 OFFCURVE",
"646 36.5 CURVE SMOOTH",
"702 66.5 OFFCURVE",
"756.333 114 OFFCURVE",
"819 182 CURVE",
"775 236 LINE SMOOTH",
"765.667 247.333 OFFCURVE",
"754.333 253 OFFCURVE",
"741 253 CURVE SMOOTH",
"715.289 253 OFFCURVE",
"678.891 215.571 OFFCURVE",
"646.5 189.5 CURVE SMOOTH",
"610.933 160.873 OFFCURVE",
"521.273 126 OFFCURVE",
"457 126 CURVE SMOOTH",
"311.243 126 OFFCURVE",
"238 238.133 OFFCURVE",
"238 399 CURVE SMOOTH",
"238 535 OFFCURVE",
"275.667 657.333 OFFCURVE",
"337 744 CURVE SMOOTH",
"398.333 830.667 OFFCURVE",
"483 884 OFFCURVE",
"575 884 CURVE SMOOTH",
"643 884 OFFCURVE",
"683.833 864.167 OFFCURVE",
"712.5 843.5 CURVE SMOOTH",
"734.562 827.594 OFFCURVE",
"758.822 803 OFFCURVE",
"775 803 CURVE SMOOTH",
"789.667 803 OFFCURVE",
"802 810.333 OFFCURVE",
"810 821 CURVE",
"866 888 LINE",
"798 978.667 OFFCURVE",
"712.333 1027 OFFCURVE",
"579 1027 CURVE SMOOTH",
"427 1027 OFFCURVE",
"298 952 OFFCURVE",
"206 836 CURVE SMOOTH",
"114 720 OFFCURVE",
"60 564 OFFCURVE",
"60 400 CURVE SMOOTH",
"60 288 OFFCURVE",
"86.333 191.833 OFFCURVE",
"137 120.5 CURVE SMOOTH",
"187.667 49.167 OFFCURVE",
"263.333 3.333 OFFCURVE",
"362 -10 CURVE",
"312 -131 LINE",
"400 -143 OFFCURVE",
"449 -157.333 OFFCURVE",
"449 -204 CURVE SMOOTH",
"449 -244 OFFCURVE",
"419.333 -274 OFFCURVE",
"366 -274 CURVE SMOOTH",
"337.197 -274 OFFCURVE",
"294.145 -249 OFFCURVE",
"280 -249 CURVE SMOOTH"
);
}
);
userData = {
assembly = "NPUSHB[ ]\011/* 24 values pushed */
1 0 69 67 59 58 52 50 45 43 35 33 30 28 23 21 6 4 0 73 1 73 10 7 
CALL[ ]\011/* CallFunction */
MPPEM[ ]\011/* MeasurePixelPerEm */
PUSHB[ ]\011/* 1 value pushed */
9 
LT[ ]\011/* LessThan */
IF[ ]\011/* If */
NPUSHB[ ]\011/* 78 values pushed */
25 1 4 2 54 1 5 6 12 1 7 5 60 11 2 0 7 71 1 8 0 5 30 0 3 4 6 4 3 6 50 0 6 5 4 6 5 48 0 4 4 2 1 0 36 0 2 2 20 31 0 5 5 7 1 0 36 0 7 7 18 31 1 9 2 0 0 8 1 0 36 0 8 8 16 8 32 9 
ELSE[ ]\011/* Else */
MPPEM[ ]\011/* MeasurePixelPerEm */
PUSHB[ ]\011/* 1 value pushed */
21 
LT[ ]\011/* LessThan */
IF[ ]\011/* If */
NPUSHB[ ]\011/* 78 values pushed */
25 1 4 2 54 1 5 6 12 1 7 5 60 11 2 0 7 71 1 8 0 5 30 0 3 4 6 4 3 6 50 0 6 5 4 6 5 48 0 4 4 2 1 0 36 0 2 2 20 31 0 5 5 7 1 0 36 0 7 7 21 31 1 9 2 0 0 8 1 0 36 0 8 8 16 8 32 9 
ELSE[ ]\011/* Else */
MPPEM[ ]\011/* MeasurePixelPerEm */
PUSHB[ ]\011/* 1 value pushed */
73 
LT[ ]\011/* LessThan */
IF[ ]\011/* If */
NPUSHB[ ]\011/* 85 values pushed */
25 1 4 2 54 1 5 6 12 1 7 5 60 11 2 0 7 71 1 8 1 5 30 0 3 4 6 4 3 6 50 0 6 5 4 6 5 48 9 1 0 7 1 7 0 1 50 0 4 4 2 1 0 36 0 2 2 20 31 0 5 5 7 1 0 36 0 7 7 21 31 0 1 1 8 1 0 36 0 8 8 16 8 32 10 
ELSE[ ]\011/* Else */
MPPEM[ ]\011/* MeasurePixelPerEm */
PUSHB[ ]\011/* 1 value pushed */
108 
LT[ ]\011/* LessThan */
IF[ ]\011/* If */
NPUSHB[ ]\011/* 82 values pushed */
25 1 4 2 54 1 5 6 12 1 7 5 60 11 2 0 7 71 1 8 1 5 30 0 3 4 6 4 3 6 50 0 6 5 4 6 5 48 9 1 0 7 1 7 0 1 50 0 1 0 8 1 8 1 0 37 0 4 4 2 1 0 36 0 2 2 20 31 0 5 5 7 1 0 36 0 7 7 21 7 32 9 
ELSE[ ]\011/* Else */
NPUSHB[ ]\011/* 90 values pushed */
25 1 4 2 54 1 5 6 12 1 7 5 60 11 2 0 7 71 1 8 1 5 30 0 3 4 6 4 3 6 50 0 6 5 4 6 5 48 9 1 0 7 1 7 0 1 50 0 2 0 4 3 2 4 1 0 38 0 5 0 7 0 5 7 1 0 38 0 1 8 8 1 1 0 35 0 1 1 8 1 0 36 0 8 1 8 1 0 33 9 
EIF[ ]\011/* EndIf */
EIF[ ]\011/* EndIf */
EIF[ ]\011/* EndIf */
EIF[ ]\011/* EndIf */
PUSHB[ ]\011/* 1 value pushed */
56 
CALL[ ]\011/* CallFunction */";
};
width = 866;
}
);
note = ccedilla;
unicode = 00E7;
},
{
glyphname = d;
layers = (
{
layerId = "30DC88F3-813A-4685-BB5F-1C042FFC1B6D";
paths = (
{
closed = 1;
nodes = (
"848 0 LINE",
"1030 1473 LINE",
"855 1473 LINE",
"786 916 LINE",
"728.667 988 OFFCURVE",
"644.667 1028 OFFCURVE",
"546 1028 CURVE SMOOTH",
"499.333 1028 OFFCURVE",
"454.667 1019 OFFCURVE",
"412 1001 CURVE SMOOTH",
"326.667 965 OFFCURVE",
"253.833 901.5 OFFCURVE",
"194.5 815.5 CURVE SMOOTH",
"164.833 772.5 OFFCURVE",
"139.5 726 OFFCURVE",
"118.5 676 CURVE SMOOTH",
"76.5 576 OFFCURVE",
"53 464.333 OFFCURVE",
"53 355 CURVE SMOOTH",
"53 115 OFFCURVE",
"152.667 -14 OFFCURVE",
"326 -14 CURVE SMOOTH",
"399.333 -14 OFFCURVE",
"471.5 14.5 OFFCURVE",
"537.5 64.5 CURVE SMOOTH",
"603.5 114.5 OFFCURVE",
"664.333 186.333 OFFCURVE",
"715 273 CURVE",
"696 62 LINE",
"696 27.333 OFFCURVE",
"709.333 0 OFFCURVE",
"756 0 CURVE SMOOTH"
);
},
{
closed = 1;
nodes = (
"289 129 OFFCURVE",
"229 214.333 OFFCURVE",
"229 373 CURVE SMOOTH",
"229 491.667 OFFCURVE",
"262.167 621.167 OFFCURVE",
"321.5 720.5 CURVE SMOOTH",
"380.833 819.833 OFFCURVE",
"466.667 889 OFFCURVE",
"572 889 CURVE SMOOTH",
"644 889 OFFCURVE",
"719.333 862.667 OFFCURVE",
"770 792 CURVE",
"737 524 LINE",
"698.333 409.333 OFFCURVE",
"644.167 310.5 OFFCURVE",
"583.5 240.5 CURVE SMOOTH",
"522.833 170.5 OFFCURVE",
"457 129 OFFCURVE",
"393 129 CURVE SMOOTH"
);
}
);
userData = {
assembly = "NPUSHB[ ]\011/* 22 values pushed */
27 26 1 0 36 34 26 42 27 42 24 23 20 18 10 8 0 25 1 25 8 7 
CALL[ ]\011/* CallFunction */
MPPEM[ ]\011/* MeasurePixelPerEm */
PUSHB[ ]\011/* 1 value pushed */
34 
LT[ ]\011/* LessThan */
IF[ ]\011/* If */
NPUSHB[ ]\011/* 49 values pushed */
22 1 5 2 32 4 2 4 5 3 1 0 4 3 30 0 3 3 13 31 0 5 5 2 1 0 36 0 2 2 20 31 7 1 4 4 0 1 0 36 1 6 2 0 0 12 0 32 6 
ELSE[ ]\011/* Else */
MPPEM[ ]\011/* MeasurePixelPerEm */
PUSHB[ ]\011/* 1 value pushed */
95 
LT[ ]\011/* LessThan */
IF[ ]\011/* If */
NPUSHB[ ]\011/* 53 values pushed */
22 1 5 2 32 4 2 4 5 3 1 0 4 3 30 0 3 3 13 31 0 5 5 2 1 0 36 0 2 2 20 31 6 1 0 0 12 31 7 1 4 4 1 1 0 36 0 1 1 21 1 32 7 
ELSE[ ]\011/* Else */
MPPEM[ ]\011/* MeasurePixelPerEm */
PUSHB[ ]\011/* 1 value pushed */
108 
LT[ ]\011/* LessThan */
IF[ ]\011/* If */
NPUSHB[ ]\011/* 53 values pushed */
22 1 5 2 32 4 2 4 5 3 1 0 4 3 30 0 3 3 13 31 0 5 5 2 1 0 36 0 2 2 20 31 6 1 0 0 15 31 7 1 4 4 1 1 0 36 0 1 1 21 1 32 7 
ELSE[ ]\011/* Else */
MPPEM[ ]\011/* MeasurePixelPerEm */
PUSHB[ ]\011/* 1 value pushed */
141 
LT[ ]\011/* LessThan */
IF[ ]\011/* If */
NPUSHB[ ]\011/* 51 values pushed */
22 1 5 2 32 4 2 4 5 3 1 0 4 3 30 6 1 0 4 1 4 0 1 50 0 2 0 5 4 2 5 1 0 38 7 1 4 0 1 4 1 1 0 37 0 3 3 13 3 32 5 
ELSE[ ]\011/* Else */
NPUSHB[ ]\011/* 64 values pushed */
22 1 5 2 32 4 2 4 5 3 1 0 4 3 30 0 3 2 3 52 6 1 0 4 1 4 0 1 50 0 2 0 5 4 2 5 1 0 38 7 1 4 0 1 4 1 0 35 7 1 4 4 1 1 0 36 0 1 4 1 1 0 33 7 
EIF[ ]\011/* EndIf */
EIF[ ]\011/* EndIf */
EIF[ ]\011/* EndIf */
EIF[ ]\011/* EndIf */
PUSHB[ ]\011/* 1 value pushed */
56 
CALL[ ]\011/* CallFunction */";
};
width = 1052;
}
);
note = d;
unicode = 0064;
},
{
glyphname = eth;
layers = (
{
layerId = "30DC88F3-813A-4685-BB5F-1C042FFC1B6D";
paths = (
{
closed = 1;
nodes = (
"490 1008 LINE",
"680 1146 LINE",
"781.333 1054 OFFCURVE",
"831.333 925.333 OFFCURVE",
"834 744 CURVE",
"770 866.667 OFFCURVE",
"662.333 927 OFFCURVE",
"533 927 CURVE SMOOTH",
"393 927 OFFCURVE",
"274.833 866 OFFCURVE",
"191.5 770 CURVE SMOOTH",
"108.167 674 OFFCURVE",
"60 541 OFFCURVE",
"60 397 CURVE SMOOTH",
"60 270.333 OFFCURVE",
"99.167 168.833 OFFCURVE",
"166.5 97.5 CURVE SMOOTH",
"233.833 26.167 OFFCURVE",
"327.667 -13 OFFCURVE",
"437 -13 CURVE SMOOTH",
"610.333 -13 OFFCURVE",
"744.333 61.667 OFFCURVE",
"835 191 CURVE SMOOTH",
"925.667 320.333 OFFCURVE",
"973 504 OFFCURVE",
"973 724 CURVE SMOOTH",
"973 944 OFFCURVE",
"906 1102 OFFCURVE",
"798 1214 CURVE",
"911 1297 LINE SMOOTH",
"923.667 1306.333 OFFCURVE",
"930 1316.333 OFFCURVE",
"930 1327 CURVE SMOOTH",
"930 1335 OFFCURVE",
"928 1342 OFFCURVE",
"924 1348 CURVE",
"895 1405 LINE",
"721 1281 LINE",
"627.667 1349 OFFCURVE",
"517.333 1390.667 OFFCURVE",
"400 1412 CURVE",
"375 1357 LINE SMOOTH",
"369.667 1344.333 OFFCURVE",
"367 1333.667 OFFCURVE",
"367 1325 CURVE SMOOTH",
"367 1305 OFFCURVE",
"379.333 1291.333 OFFCURVE",
"404 1284 CURVE SMOOTH",
"477.333 1261.333 OFFCURVE",
"541.333 1238 OFFCURVE",
"596 1206 CURVE",
"467 1112 LINE",
"457 1106 OFFCURVE",
"452 1096.667 OFFCURVE",
"452 1084 CURVE SMOOTH",
"452 1077.333 OFFCURVE",
"453 1071.667 OFFCURVE",
"457 1065 CURVE SMOOTH"
);
},
{
closed = 1;
nodes = (
"320.421 121 OFFCURVE",
"231 237.001 OFFCURVE",
"231 406 CURVE SMOOTH",
"231 514 OFFCURVE",
"260.333 610.5 OFFCURVE",
"315 680.5 CURVE SMOOTH",
"369.667 750.5 OFFCURVE",
"450 793 OFFCURVE",
"550 793 CURVE SMOOTH",
"693.655 793 OFFCURVE",
"773.618 691.09 OFFCURVE",
"799 567 CURVE",
"777.667 409.667 OFFCURVE",
"735.667 298 OFFCURVE",
"677 226 CURVE SMOOTH",
"618.333 154 OFFCURVE",
"543.667 121 OFFCURVE",
"457 121 CURVE SMOOTH"
);
}
);
userData = {
assembly = "NPUSHB[ ]\011/* 14 values pushed */
51 50 61 59 50 69 51 69 43 41 33 31 5 7 
CALL[ ]\011/* CallFunction */
MPPEM[ ]\011/* MeasurePixelPerEm */
PUSHB[ ]\011/* 1 value pushed */
108 
LT[ ]\011/* LessThan */
IF[ ]\011/* If */
NPUSHB[ ]\011/* 42 values pushed */
55 45 2 2 3 1 30 49 48 24 18 17 14 6 7 1 28 0 1 0 3 2 1 3 1 0 38 4 1 2 2 0 1 0 36 0 0 0 21 0 32 5 
ELSE[ ]\011/* Else */
NPUSHB[ ]\011/* 52 values pushed */
55 45 2 2 3 1 30 49 48 24 18 17 14 6 7 1 28 0 1 0 3 2 1 3 1 0 38 4 1 2 0 0 2 1 0 35 4 1 2 2 0 1 0 36 0 0 2 0 1 0 33 6 
EIF[ ]\011/* EndIf */
PUSHB[ ]\011/* 1 value pushed */
56 
CALL[ ]\011/* CallFunction */";
};
width = 1020;
}
);
note = eth;
unicode = 00F0;
},
{
glyphname = e;
layers = (
{
layerId = "30DC88F3-813A-4685-BB5F-1C042FFC1B6D";
paths = (
{
closed = 1;
nodes = (
"881 845.333 OFFCURVE",
"858 903.667 OFFCURVE",
"810 949 CURVE SMOOTH",
"762 994.333 OFFCURVE",
"687.667 1027 OFFCURVE",
"585 1027 CURVE SMOOTH",
"531 1027 OFFCURVE",
"480.5 1018.667 OFFCURVE",
"433.5 1002 CURVE SMOOTH",
"339.5 968.667 OFFCURVE",
"261.167 910 OFFCURVE",
"200.5 830 CURVE SMOOTH",
"170.167 790 OFFCURVE",
"144.5 746.667 OFFCURVE",
"123.5 700 CURVE SMOOTH",
"81.5 606.667 OFFCURVE",
"59 501 OFFCURVE",
"59 397 CURVE SMOOTH",
"59 271.667 OFFCURVE",
"95 168.833 OFFCURVE",
"159 97.5 CURVE SMOOTH",
"223 26.167 OFFCURVE",
"316 -14 OFFCURVE",
"432 -14 CURVE SMOOTH",
"517.333 -14 OFFCURVE",
"590 0.667 OFFCURVE",
"658 34 CURVE SMOOTH",
"726 67.333 OFFCURVE",
"789 116.333 OFFCURVE",
"857 187 CURVE",
"813 242 LINE",
"803 253.333 OFFCURVE",
"792 259 OFFCURVE",
"780 259 CURVE SMOOTH",
"751.318 259 OFFCURVE",
"708.144 221.001 OFFCURVE",
"671.5 192.5 CURVE SMOOTH",
"632.542 162.2 OFFCURVE",
"535.116 126 OFFCURVE",
"467 126 CURVE SMOOTH",
"309.667 126 OFFCURVE",
"232 222.333 OFFCURVE",
"232 401 CURVE SMOOTH",
"232 408.333 OFFCURVE",
"232 415.5 OFFCURVE",
"232 422.5 CURVE SMOOTH",
"232 429.5 OFFCURVE",
"232.333 436.667 OFFCURVE",
"233 444 CURVE",
"497 470.667 OFFCURVE",
"659 515.167 OFFCURVE",
"755 574.5 CURVE SMOOTH",
"851 633.833 OFFCURVE",
"881 708 OFFCURVE",
"881 796 CURVE SMOOTH"
);
},
{
closed = 1;
nodes = (
"669.505 899 OFFCURVE",
"722 846.921 OFFCURVE",
"722 789 CURVE SMOOTH",
"722 741 OFFCURVE",
"706.667 696.5 OFFCURVE",
"640 658.5 CURVE SMOOTH",
"573.333 620.5 OFFCURVE",
"455.333 587.333 OFFCURVE",
"250 562 CURVE",
"271.333 656.667 OFFCURVE",
"310.333 740.833 OFFCURVE",
"365 801.5 CURVE SMOOTH",
"419.667 862.167 OFFCURVE",
"491 899 OFFCURVE",
"575 899 CURVE SMOOTH"
);
}
);
userData = {
assembly = "NPUSHB[ ]\011/* 16 values pushed */
44 43 43 57 44 57 39 37 27 25 19 17 12 10 6 7 
CALL[ ]\011/* CallFunction */
MPPEM[ ]\011/* MeasurePixelPerEm */
PUSHB[ ]\011/* 1 value pushed */
9 
LT[ ]\011/* LessThan */
IF[ ]\011/* If */
NPUSHB[ ]\011/* 45 values pushed */
48 1 1 4 21 1 0 1 2 30 0 1 4 0 4 1 0 50 5 1 4 4 3 1 0 36 0 3 3 20 31 0 0 0 2 1 0 36 0 2 2 18 2 32 6 
ELSE[ ]\011/* Else */
MPPEM[ ]\011/* MeasurePixelPerEm */
PUSHB[ ]\011/* 1 value pushed */
108 
LT[ ]\011/* LessThan */
IF[ ]\011/* If */
NPUSHB[ ]\011/* 45 values pushed */
48 1 1 4 21 1 0 1 2 30 0 1 4 0 4 1 0 50 5 1 4 4 3 1 0 36 0 3 3 20 31 0 0 0 2 1 0 36 0 2 2 21 2 32 6 
ELSE[ ]\011/* Else */
NPUSHB[ ]\011/* 52 values pushed */
48 1 1 4 21 1 0 1 2 30 0 1 4 0 4 1 0 50 0 3 5 1 4 1 3 4 1 0 38 0 0 2 2 0 1 0 35 0 0 0 2 1 0 36 0 2 0 2 1 0 33 6 
EIF[ ]\011/* EndIf */
EIF[ ]\011/* EndIf */
PUSHB[ ]\011/* 1 value pushed */
56 
CALL[ ]\011/* CallFunction */";
};
width = 922;
}
);
note = e;
unicode = 0065;
},
{
glyphname = eogonek;
layers = (
{
layerId = "30DC88F3-813A-4685-BB5F-1C042FFC1B6D";
paths = (
{
closed = 1;
nodes = (
"575.741 -214 OFFCURVE",
"529.128 -238 OFFCURVE",
"499 -238 CURVE SMOOTH",
"456.333 -238 OFFCURVE",
"427 -209.667 OFFCURVE",
"427 -167 CURVE SMOOTH",
"427 -94.613 OFFCURVE",
"492.245 -36.003 OFFCURVE",
"550 -3 CURVE",
"662 19.667 OFFCURVE",
"754.333 80.333 OFFCURVE",
"857 187 CURVE",
"813 242 LINE",
"803 253.333 OFFCURVE",
"792 259 OFFCURVE",
"780 259 CURVE SMOOTH",
"751.318 259 OFFCURVE",
"708.144 221.001 OFFCURVE",
"671.5 192.5 CURVE SMOOTH",
"632.542 162.2 OFFCURVE",
"535.116 126 OFFCURVE",
"467 126 CURVE SMOOTH",
"309.667 126 OFFCURVE",
"232 222.333 OFFCURVE",
"232 401 CURVE SMOOTH",
"232 408.333 OFFCURVE",
"232 415.5 OFFCURVE",
"232 422.5 CURVE SMOOTH",
"232 429.5 OFFCURVE",
"232.333 436.667 OFFCURVE",
"233 444 CURVE",
"497 470.667 OFFCURVE",
"659 515.167 OFFCURVE",
"755 574.5 CURVE SMOOTH",
"851 633.833 OFFCURVE",
"881 708 OFFCURVE",
"881 796 CURVE SMOOTH",
"881 845.333 OFFCURVE",
"858 903.667 OFFCURVE",
"810 949 CURVE SMOOTH",
"762 994.333 OFFCURVE",
"687.667 1027 OFFCURVE",
"585 1027 CURVE SMOOTH",
"531 1027 OFFCURVE",
"480.5 1018.667 OFFCURVE",
"433.5 1002 CURVE SMOOTH",
"339.5 968.667 OFFCURVE",
"261.167 910 OFFCURVE",
"200.5 830 CURVE SMOOTH",
"170.167 790 OFFCURVE",
"144.5 746.667 OFFCURVE",
"123.5 700 CURVE SMOOTH",
"81.5 606.667 OFFCURVE",
"59 501 OFFCURVE",
"59 397 CURVE SMOOTH",
"59 273 OFFCURVE",
"93.167 170.667 OFFCURVE",
"156.5 100 CURVE SMOOTH",
"219.833 29.333 OFFCURVE",
"310.667 -12.667 OFFCURVE",
"424 -14 CURVE",
"348 -67.333 OFFCURVE",
"294 -136.667 OFFCURVE",
"294 -214 CURVE SMOOTH",
"294 -291.333 OFFCURVE",
"350.667 -342 OFFCURVE",
"452 -342 CURVE SMOOTH",
"516 -342 OFFCURVE",
"579 -320.667 OFFCURVE",
"619 -290 CURVE",
"601 -226 LINE SMOOTH",
"599 -218 OFFCURVE",
"593.667 -214 OFFCURVE",
"585 -214 CURVE SMOOTH"
);
},
{
closed = 1;
nodes = (
"669.505 899 OFFCURVE",
"722 846.921 OFFCURVE",
"722 789 CURVE SMOOTH",
"722 741 OFFCURVE",
"706.667 696.5 OFFCURVE",
"640 658.5 CURVE SMOOTH",
"573.333 620.5 OFFCURVE",
"455.333 587.333 OFFCURVE",
"250 562 CURVE",
"271.333 656.667 OFFCURVE",
"310.333 740.833 OFFCURVE",
"365 801.5 CURVE SMOOTH",
"419.667 862.167 OFFCURVE",
"491 899 OFFCURVE",
"575 899 CURVE SMOOTH"
);
}
);
userData = {
assembly = "NPUSHB[ ]\011/* 26 values pushed */
67 66 1 0 66 80 67 80 62 60 48 46 41 39 25 23 13 12 7 5 0 65 1 65 10 7 
CALL[ ]\011/* CallFunction */
MPPEM[ ]\011/* MeasurePixelPerEm */
PUSHB[ ]\011/* 1 value pushed */
9 
LT[ ]\011/* LessThan */
IF[ ]\011/* If */
NPUSHB[ ]\011/* 63 values pushed */
71 1 5 7 50 1 4 5 3 1 1 0 3 30 0 5 7 4 7 5 4 50 9 1 7 7 3 1 0 36 0 3 3 20 31 0 4 4 2 1 0 36 0 2 2 18 31 6 8 2 0 0 1 1 0 36 0 1 1 16 1 32 8 
ELSE[ ]\011/* Else */
MPPEM[ ]\011/* MeasurePixelPerEm */
PUSHB[ ]\011/* 1 value pushed */
21 
LT[ ]\011/* LessThan */
IF[ ]\011/* If */
NPUSHB[ ]\011/* 63 values pushed */
71 1 5 7 50 1 4 5 3 1 1 0 3 30 0 5 7 4 7 5 4 50 9 1 7 7 3 1 0 36 0 3 3 20 31 0 4 4 2 1 0 36 0 2 2 21 31 6 8 2 0 0 1 1 0 36 0 1 1 16 1 32 8 
ELSE[ ]\011/* Else */
MPPEM[ ]\011/* MeasurePixelPerEm */
PUSHB[ ]\011/* 1 value pushed */
73 
LT[ ]\011/* LessThan */
IF[ ]\011/* If */
NPUSHB[ ]\011/* 70 values pushed */
71 1 5 7 50 1 4 5 3 1 1 6 3 30 0 5 7 4 7 5 4 50 8 1 0 2 6 2 0 6 50 9 1 7 7 3 1 0 36 0 3 3 20 31 0 4 4 2 1 0 36 0 2 2 21 31 0 6 6 1 1 0 36 0 1 1 16 1 32 9 
ELSE[ ]\011/* Else */
MPPEM[ ]\011/* MeasurePixelPerEm */
PUSHB[ ]\011/* 1 value pushed */
108 
LT[ ]\011/* LessThan */
IF[ ]\011/* If */
NPUSHB[ ]\011/* 67 values pushed */
71 1 5 7 50 1 4 5 3 1 1 6 3 30 0 5 7 4 7 5 4 50 8 1 0 2 6 2 0 6 50 0 6 0 1 6 1 1 0 37 9 1 7 7 3 1 0 36 0 3 3 20 31 0 4 4 2 1 0 36 0 2 2 21 2 32 8 
ELSE[ ]\011/* Else */
NPUSHB[ ]\011/* 75 values pushed */
71 1 5 7 50 1 4 5 3 1 1 6 3 30 0 5 7 4 7 5 4 50 8 1 0 2 6 2 0 6 50 0 3 9 1 7 5 3 7 1 0 38 0 4 0 2 0 4 2 1 0 38 0 6 1 1 6 1 0 35 0 6 6 1 1 0 36 0 1 6 1 1 0 33 8 
EIF[ ]\011/* EndIf */
EIF[ ]\011/* EndIf */
EIF[ ]\011/* EndIf */
EIF[ ]\011/* EndIf */
PUSHB[ ]\011/* 1 value pushed */
56 
CALL[ ]\011/* CallFunction */";
};
width = 922;
}
);
note = eogonek;
unicode = 0119;
},
{
glyphname = f;
layers = (
{
layerId = "30DC88F3-813A-4685-BB5F-1C042FFC1B6D";
paths = (
{
closed = 1;
nodes = (
"620 865 LINE",
"637 993 LINE",
"384 993 LINE",
"396 1086 LINE SMOOTH",
"415.833 1247.147 OFFCURVE",
"489.791 1322 OFFCURVE",
"614 1322 CURVE SMOOTH",
"622 1322 OFFCURVE",
"629.5 1321.833 OFFCURVE",
"636.5 1321.5 CURVE SMOOTH",
"643.5 1321.167 OFFCURVE",
"650 1321 OFFCURVE",
"656 1321 CURVE SMOOTH",
"680 1321 OFFCURVE",
"696.333 1323.333 OFFCURVE",
"699 1342 CURVE",
"716 1434 LINE",
"682 1447.333 OFFCURVE",
"644.333 1454 OFFCURVE",
"603 1454 CURVE SMOOTH",
"505.667 1454 OFFCURVE",
"419.5 1421.5 OFFCURVE",
"353.5 1359.5 CURVE SMOOTH",
"287.5 1297.5 OFFCURVE",
"242.667 1207 OFFCURVE",
"228 1091 CURVE SMOOTH",
"216 993 LINE",
"71 993 LINE",
"63 915 LINE",
"63 892.333 OFFCURVE",
"77.333 881.667 OFFCURVE",
"100 875 CURVE",
"200 862 LINE",
"65 -249 LINE",
"135 -249 LINE SMOOTH",
"185 -249 OFFCURVE",
"215.667 -224 OFFCURVE",
"227 -174 CURVE SMOOTH",
"273 33 LINE",
"374 865 LINE"
);
}
);
userData = {
assembly = "NPUSHB[ ]\011/* 18 values pushed */
0 0 0 35 0 35 34 33 28 23 19 17 12 11 5 3 7 7 
CALL[ ]\011/* CallFunction */
MPPEM[ ]\011/* MeasurePixelPerEm */
PUSHB[ ]\011/* 1 value pushed */
50 
LT[ ]\011/* LessThan */
IF[ ]\011/* If */
NPUSHB[ ]\011/* 55 values pushed */
20 1 3 2 10 1 5 1 6 1 0 5 3 30 0 3 3 2 1 0 36 0 2 2 17 31 6 1 5 5 1 0 0 36 4 1 1 1 14 31 0 0 0 1 0 0 36 4 1 1 1 14 0 32 7 
ELSE[ ]\011/* Else */
MPPEM[ ]\011/* MeasurePixelPerEm */
PUSHB[ ]\011/* 1 value pushed */
95 
LT[ ]\011/* LessThan */
IF[ ]\011/* If */
NPUSHB[ ]\011/* 47 values pushed */
20 1 3 2 10 1 5 1 6 1 0 5 3 30 6 1 5 0 1 5 0 0 35 4 1 1 0 0 1 0 1 0 37 0 3 3 2 1 0 36 0 2 2 17 3 32 5 
ELSE[ ]\011/* Else */
MPPEM[ ]\011/* MeasurePixelPerEm */
PUSHB[ ]\011/* 1 value pushed */
232 
LT[ ]\011/* LessThan */
IF[ ]\011/* If */
NPUSHB[ ]\011/* 52 values pushed */
20 1 3 2 10 1 5 1 6 1 0 5 3 30 0 2 0 3 1 2 3 1 0 38 4 1 1 6 1 5 0 1 5 0 0 38 4 1 1 1 0 1 0 36 0 0 1 0 1 0 33 5 
ELSE[ ]\011/* Else */
NPUSHB[ ]\011/* 58 values pushed */
20 1 3 2 10 1 5 4 6 1 0 5 3 30 0 2 0 3 1 2 3 1 0 38 0 1 4 0 1 0 0 35 0 4 6 1 5 0 4 5 0 0 38 0 1 1 0 1 0 36 0 0 1 0 1 0 33 6 
EIF[ ]\011/* EndIf */
EIF[ ]\011/* EndIf */
EIF[ ]\011/* EndIf */
PUSHB[ ]\011/* 1 value pushed */
56 
CALL[ ]\011/* CallFunction */";
};
width = 605;
}
);
note = f;
unicode = 0066;
},
{
glyphname = g;
layers = (
{
layerId = "30DC88F3-813A-4685-BB5F-1C042FFC1B6D";
paths = (
{
closed = 1;
nodes = (
"816 774.667 OFFCURVE",
"809 812.333 OFFCURVE",
"797 847 CURVE",
"923 869 LINE SMOOTH",
"948.333 873 OFFCURVE",
"960.333 894.333 OFFCURVE",
"963 917 CURVE SMOOTH",
"971 976 LINE",
"696 976 LINE",
"642 1010.667 OFFCURVE",
"578.333 1028 OFFCURVE",
"505 1028 CURVE SMOOTH",
"374.333 1028 OFFCURVE",
"274 980.167 OFFCURVE",
"206 907.5 CURVE SMOOTH",
"138 834.833 OFFCURVE",
"102 738 OFFCURVE",
"102 642 CURVE SMOOTH",
"102 543.333 OFFCURVE",
"133.333 469.333 OFFCURVE",
"184 420 CURVE SMOOTH",
"234.667 370.667 OFFCURVE",
"303.667 345 OFFCURVE",
"381 345 CURVE SMOOTH",
"461 345 OFFCURVE",
"522.333 364.333 OFFCURVE",
"573 399 CURVE",
"543.667 344.333 OFFCURVE",
"532 302.333 OFFCURVE",
"532 261 CURVE SMOOTH",
"532 229 OFFCURVE",
"540 202.333 OFFCURVE",
"552 177 CURVE",
"505.333 183.667 OFFCURVE",
"458 188 OFFCURVE",
"410 188 CURVE SMOOTH",
"291.333 188 OFFCURVE",
"172.333 166.333 OFFCURVE",
"83 117 CURVE SMOOTH",
"-6.333 67.667 OFFCURVE",
"-66 -7.667 OFFCURVE",
"-66 -113 CURVE SMOOTH",
"-66 -187.667 OFFCURVE",
"-27.833 -251 OFFCURVE",
"39.5 -295 CURVE SMOOTH",
"106.833 -339 OFFCURVE",
"204 -364 OFFCURVE",
"320 -364 CURVE SMOOTH",
"465.333 -364 OFFCURVE",
"583.667 -323.333 OFFCURVE",
"665 -258 CURVE SMOOTH",
"746.333 -192.667 OFFCURVE",
"792 -105.667 OFFCURVE",
"792 -11 CURVE SMOOTH",
"792 131.751 OFFCURVE",
"661 200.958 OFFCURVE",
"661 314 CURVE SMOOTH",
"661 382.297 OFFCURVE",
"700.107 447.16 OFFCURVE",
"738 504 CURVE SMOOTH",
"751.333 524 OFFCURVE",
"763.667 545.333 OFFCURVE",
"775 568 CURVE SMOOTH",
"797.667 613.333 OFFCURVE",
"814.667 665.333 OFFCURVE",
"816 732 CURVE SMOOTH"
);
},
{
closed = 1;
nodes = (
"326 457 OFFCURVE",
"265 521 OFFCURVE",
"265 641 CURVE SMOOTH",
"265 779.499 OFFCURVE",
"346.203 904 OFFCURVE",
"486 904 CURVE SMOOTH",
"590 904 OFFCURVE",
"653 843.333 OFFCURVE",
"653 726 CURVE SMOOTH",
"653 591.387 OFFCURVE",
"568.599 457 OFFCURVE",
"430 457 CURVE SMOOTH"
);
},
{
closed = 1;
nodes = (
"630 -82.333 OFFCURVE",
"599.833 -136.333 OFFCURVE",
"548.5 -175 CURVE SMOOTH",
"497.167 -213.667 OFFCURVE",
"423 -239 OFFCURVE",
"335 -239 CURVE SMOOTH",
"187 -239 OFFCURVE",
"103 -187 OFFCURVE",
"103 -91 CURVE SMOOTH",
"103 -45.667 OFFCURVE",
"128 -2 OFFCURVE",
"180 30 CURVE SMOOTH",
"232 62 OFFCURVE",
"311.667 83 OFFCURVE",
"421 83 CURVE SMOOTH",
"477 83 OFFCURVE",
"540 78 OFFCURVE",
"612 66 CURVE",
"622.667 39.333 OFFCURVE",
"630 9.667 OFFCURVE",
"630 -25 CURVE SMOOTH"
);
}
);
userData = {
assembly = "NPUSHB[ ]\011/* 24 values pushed */
61 60 91 89 83 81 69 67 60 75 61 75 52 51 50 48 40 38 28 26 18 16 10 7 
CALL[ ]\011/* CallFunction */
MPPEM[ ]\011/* MeasurePixelPerEm */
PUSHB[ ]\011/* 1 value pushed */
27 
LT[ ]\011/* LessThan */
IF[ ]\011/* If */
NPUSHB[ ]\011/* 66 values pushed */
57 1 5 6 36 1 2 5 30 1 7 1 3 30 9 1 5 0 2 1 5 2 1 0 38 0 1 0 7 8 1 7 1 0 38 0 4 4 14 31 0 6 6 3 1 0 36 0 3 3 20 31 0 8 8 0 1 0 36 0 0 0 22 0 32 8 
ELSE[ ]\011/* Else */
MPPEM[ ]\011/* MeasurePixelPerEm */
PUSHB[ ]\011/* 1 value pushed */
73 
LT[ ]\011/* LessThan */
IF[ ]\011/* If */
NPUSHB[ ]\011/* 69 values pushed */
57 1 5 6 36 1 2 5 30 1 7 1 3 30 0 4 3 6 3 4 6 50 9 1 5 0 2 1 5 2 1 0 38 0 1 0 7 8 1 7 1 0 38 0 6 6 3 1 0 36 0 3 3 20 31 0 8 8 0 1 0 36 0 0 0 22 0 32 8 
ELSE[ ]\011/* Else */
MPPEM[ ]\011/* MeasurePixelPerEm */
PUSHB[ ]\011/* 1 value pushed */
108 
LT[ ]\011/* LessThan */
IF[ ]\011/* If */
NPUSHB[ ]\011/* 66 values pushed */
57 1 5 6 36 1 2 5 30 1 7 1 3 30 0 4 3 6 3 4 6 50 9 1 5 0 2 1 5 2 1 0 38 0 1 0 7 8 1 7 1 0 38 0 8 0 0 8 0 1 0 37 0 6 6 3 1 0 36 0 3 3 20 6 32 7 
ELSE[ ]\011/* Else */
NPUSHB[ ]\011/* 76 values pushed */
57 1 5 6 36 1 2 5 30 1 7 1 3 30 0 4 3 6 3 4 6 50 0 3 0 6 5 3 6 1 0 38 9 1 5 0 2 1 5 2 1 0 38 0 1 0 7 8 1 7 1 0 38 0 8 0 0 8 1 0 35 0 8 8 0 1 0 36 0 0 8 0 1 0 33 8 
EIF[ ]\011/* EndIf */
EIF[ ]\011/* EndIf */
EIF[ ]\011/* EndIf */
PUSHB[ ]\011/* 1 value pushed */
56 
CALL[ ]\011/* CallFunction */";
};
width = 929;
}
);
note = g;
unicode = 0067;
},
{
glyphname = h;
layers = (
{
layerId = "30DC88F3-813A-4685-BB5F-1C042FFC1B6D";
paths = (
{
closed = 1;
nodes = (
"257 0 LINE",
"322 537 LINE",
"360.667 641 OFFCURVE",
"414 727 OFFCURVE",
"474 787 CURVE SMOOTH",
"534 847 OFFCURVE",
"599 881 OFFCURVE",
"659 881 CURVE SMOOTH",
"747 881 OFFCURVE",
"786 828.333 OFFCURVE",
"786 719 CURVE SMOOTH",
"786 696.333 OFFCURVE",
"783.667 671.667 OFFCURVE",
"781 645 CURVE SMOOTH",
"705 0 LINE",
"883 0 LINE",
"959 645 LINE SMOOTH",
"963 675.667 OFFCURVE",
"964 704.333 OFFCURVE",
"964 731 CURVE SMOOTH",
"964 924.333 OFFCURVE",
"878.333 1028 OFFCURVE",
"725 1028 CURVE SMOOTH",
"590.333 1028 OFFCURVE",
"457.333 946.333 OFFCURVE",
"352 789 CURVE",
"435 1473 LINE",
"257 1473 LINE",
"79 0 LINE"
);
}
);
userData = {
assembly = "NPUSHB[ ]\011/* 16 values pushed */
0 0 0 27 0 27 22 20 14 13 7 5 2 1 6 7 
CALL[ ]\011/* CallFunction */
MPPEM[ ]\011/* MeasurePixelPerEm */
PUSHB[ ]\011/* 1 value pushed */
95 
LT[ ]\011/* LessThan */
IF[ ]\011/* If */
NPUSHB[ ]\011/* 32 values pushed */
3 1 2 3 1 30 0 0 0 13 31 0 3 3 1 1 0 36 0 1 1 20 31 5 4 2 2 2 12 2 32 5 
ELSE[ ]\011/* Else */
MPPEM[ ]\011/* MeasurePixelPerEm */
PUSHB[ ]\011/* 1 value pushed */
108 
LT[ ]\011/* LessThan */
IF[ ]\011/* If */
NPUSHB[ ]\011/* 32 values pushed */
3 1 2 3 1 30 0 0 0 13 31 0 3 3 1 1 0 36 0 1 1 20 31 5 4 2 2 2 15 2 32 5 
ELSE[ ]\011/* Else */
MPPEM[ ]\011/* MeasurePixelPerEm */
PUSHB[ ]\011/* 1 value pushed */
141 
LT[ ]\011/* LessThan */
IF[ ]\011/* If */
NPUSHB[ ]\011/* 30 values pushed */
3 1 2 3 1 30 5 4 2 2 3 2 53 0 1 0 3 2 1 3 1 0 38 0 0 0 13 0 32 4 
ELSE[ ]\011/* Else */
MPPEM[ ]\011/* MeasurePixelPerEm */
PUSHB[ ]\011/* 1 value pushed */
232 
LT[ ]\011/* LessThan */
IF[ ]\011/* If */
NPUSHB[ ]\011/* 41 values pushed */
3 1 2 3 1 30 0 0 1 0 52 5 4 2 2 3 2 53 0 1 3 3 1 1 0 35 0 1 1 3 1 0 36 0 3 1 3 1 0 33 6 
ELSE[ ]\011/* Else */
NPUSHB[ ]\011/* 47 values pushed */
3 1 4 3 1 30 0 0 1 0 52 5 1 4 3 2 3 4 2 50 0 2 2 51 0 1 3 3 1 1 0 35 0 1 1 3 1 0 36 0 3 1 3 1 0 33 7 
EIF[ ]\011/* EndIf */
EIF[ ]\011/* EndIf */
EIF[ ]\011/* EndIf */
EIF[ ]\011/* EndIf */
PUSHB[ ]\011/* 1 value pushed */
56 
CALL[ ]\011/* CallFunction */";
};
width = 1060;
}
);
note = h;
unicode = 0068;
},
{
glyphname = i;
layers = (
{
layerId = "30DC88F3-813A-4685-BB5F-1C042FFC1B6D";
paths = (
{
closed = 1;
nodes = (
"217 1013 LINE",
"95 0 LINE",
"270 0 LINE",
"392 1013 LINE"
);
},
{
closed = 1;
nodes = (
"459 1399.968 OFFCURVE",
"401.734 1459 OFFCURVE",
"336 1459 CURVE SMOOTH",
"272.318 1459 OFFCURVE",
"215 1398.158 OFFCURVE",
"215 1331 CURVE SMOOTH",
"215 1263.451 OFFCURVE",
"272.419 1205 OFFCURVE",
"335 1205 CURVE SMOOTH",
"398.416 1205 OFFCURVE",
"459 1264.037 OFFCURVE",
"459 1331 CURVE SMOOTH"
);
}
);
userData = {
assembly = "NPUSHB[ ]\011/* 14 values pushed */
0 0 20 18 10 8 0 3 0 3 2 1 5 7 
CALL[ ]\011/* CallFunction */
MPPEM[ ]\011/* MeasurePixelPerEm */
PUSHB[ ]\011/* 1 value pushed */
9 
LT[ ]\011/* LessThan */
IF[ ]\011/* If */
NPUSHB[ ]\011/* 25 values pushed */
0 2 2 3 1 0 36 0 3 3 17 31 4 1 1 1 14 31 0 0 0 12 0 32 4 
ELSE[ ]\011/* Else */
MPPEM[ ]\011/* MeasurePixelPerEm */
PUSHB[ ]\011/* 1 value pushed */
95 
LT[ ]\011/* LessThan */
IF[ ]\011/* If */
NPUSHB[ ]\011/* 25 values pushed */
0 2 2 3 1 0 36 0 3 3 13 31 4 1 1 1 14 31 0 0 0 12 0 32 4 
ELSE[ ]\011/* Else */
MPPEM[ ]\011/* MeasurePixelPerEm */
PUSHB[ ]\011/* 1 value pushed */
108 
LT[ ]\011/* LessThan */
IF[ ]\011/* If */
NPUSHB[ ]\011/* 25 values pushed */
0 2 2 3 1 0 36 0 3 3 13 31 4 1 1 1 14 31 0 0 0 15 0 32 4 
ELSE[ ]\011/* Else */
MPPEM[ ]\011/* MeasurePixelPerEm */
PUSHB[ ]\011/* 1 value pushed */
141 
LT[ ]\011/* LessThan */
IF[ ]\011/* If */
NPUSHB[ ]\011/* 24 values pushed */
4 1 1 0 0 1 0 0 0 37 0 2 2 3 1 0 36 0 3 3 13 2 32 3 
ELSE[ ]\011/* Else */
NPUSHB[ ]\011/* 35 values pushed */
0 3 0 2 1 3 2 1 0 38 4 1 1 0 0 1 0 0 35 4 1 1 1 0 0 0 36 0 0 1 0 0 0 33 4 
EIF[ ]\011/* EndIf */
EIF[ ]\011/* EndIf */
EIF[ ]\011/* EndIf */
EIF[ ]\011/* EndIf */
PUSHB[ ]\011/* 1 value pushed */
56 
CALL[ ]\011/* CallFunction */";
};
width = 487;
}
);
note = i;
unicode = 0069;
},
{
glyphname = idotless;
layers = (
{
layerId = "30DC88F3-813A-4685-BB5F-1C042FFC1B6D";
paths = (
{
closed = 1;
nodes = (
"217 1013 LINE",
"95 0 LINE",
"270 0 LINE",
"392 1013 LINE"
);
}
);
userData = {
assembly = "NPUSHB[ ]\011/* 10 values pushed */
0 0 0 3 0 3 2 1 3 7 
CALL[ ]\011/* CallFunction */
MPPEM[ ]\011/* MeasurePixelPerEm */
PUSHB[ ]\011/* 1 value pushed */
95 
LT[ ]\011/* LessThan */
IF[ ]\011/* If */
NPUSHB[ ]\011/* 13 values pushed */
2 1 1 1 14 31 0 0 0 12 0 32 2 
ELSE[ ]\011/* Else */
MPPEM[ ]\011/* MeasurePixelPerEm */
PUSHB[ ]\011/* 1 value pushed */
108 
LT[ ]\011/* LessThan */
IF[ ]\011/* If */
NPUSHB[ ]\011/* 13 values pushed */
2 1 1 1 14 31 0 0 0 15 0 32 2 
ELSE[ ]\011/* Else */
NPUSHB[ ]\011/* 25 values pushed */
2 1 1 0 0 1 0 0 35 2 1 1 1 0 0 0 36 0 0 1 0 0 0 33 3 
EIF[ ]\011/* EndIf */
EIF[ ]\011/* EndIf */
PUSHB[ ]\011/* 1 value pushed */
56 
CALL[ ]\011/* CallFunction */";
};
width = 487;
}
);
note = dotlessi;
unicode = 0131;
},
{
glyphname = j;
layers = (
{
layerId = "30DC88F3-813A-4685-BB5F-1C042FFC1B6D";
paths = (
{
closed = 1;
nodes = (
"216 1013 LINE",
"83 -75 LINE SMOOTH",
"69.667 -183 OFFCURVE",
"27.667 -229 OFFCURVE",
"-67 -229 CURVE SMOOTH",
"-74.333 -229 OFFCURVE",
"-80.833 -228.833 OFFCURVE",
"-86.5 -228.5 CURVE SMOOTH",
"-92.167 -228.167 OFFCURVE",
"-97.333 -228 OFFCURVE",
"-102 -228 CURVE SMOOTH",
"-120.667 -228 OFFCURVE",
"-128.333 -230.667 OFFCURVE",
"-135 -248 CURVE",
"-153 -344 LINE",
"-121 -357.333 OFFCURVE",
"-90.667 -364 OFFCURVE",
"-44 -364 CURVE SMOOTH",
"132.043 -364 OFFCURVE",
"235.285 -240.576 OFFCURVE",
"257 -75 CURVE SMOOTH",
"391 1013 LINE"
);
},
{
closed = 1;
nodes = (
"454 1399.968 OFFCURVE",
"396.734 1459 OFFCURVE",
"331 1459 CURVE SMOOTH",
"267.302 1459 OFFCURVE",
"210 1397.62 OFFCURVE",
"210 1331 CURVE SMOOTH",
"210 1263.715 OFFCURVE",
"266.992 1205 OFFCURVE",
"330 1205 CURVE SMOOTH",
"392.969 1205 OFFCURVE",
"454 1263.893 OFFCURVE",
"454 1331 CURVE SMOOTH"
);
}
);
userData = {
assembly = "NPUSHB[ ]\011/* 16 values pushed */
0 0 37 35 27 25 0 20 0 20 17 12 7 5 6 7 
CALL[ ]\011/* CallFunction */
MPPEM[ ]\011/* MeasurePixelPerEm */
PUSHB[ ]\011/* 1 value pushed */
9 
LT[ ]\011/* LessThan */
IF[ ]\011/* If */
NPUSHB[ ]\011/* 38 values pushed */
9 1 0 1 1 30 0 3 3 4 1 0 36 0 4 4 17 31 5 1 2 2 14 31 0 1 1 0 1 0 36 0 0 0 22 0 32 6 
ELSE[ ]\011/* Else */
MPPEM[ ]\011/* MeasurePixelPerEm */
PUSHB[ ]\011/* 1 value pushed */
73 
LT[ ]\011/* LessThan */
IF[ ]\011/* If */
NPUSHB[ ]\011/* 38 values pushed */
9 1 0 1 1 30 0 3 3 4 1 0 36 0 4 4 13 31 5 1 2 2 14 31 0 1 1 0 1 0 36 0 0 0 22 0 32 6 
ELSE[ ]\011/* Else */
MPPEM[ ]\011/* MeasurePixelPerEm */
PUSHB[ ]\011/* 1 value pushed */
108 
LT[ ]\011/* LessThan */
IF[ ]\011/* If */
NPUSHB[ ]\011/* 35 values pushed */
9 1 0 1 1 30 0 1 0 0 1 0 1 0 37 0 3 3 4 1 0 36 0 4 4 13 31 5 1 2 2 14 2 32 5 
ELSE[ ]\011/* Else */
MPPEM[ ]\011/* MeasurePixelPerEm */
PUSHB[ ]\011/* 1 value pushed */
141 
LT[ ]\011/* LessThan */
IF[ ]\011/* If */
NPUSHB[ ]\011/* 38 values pushed */
9 1 0 1 1 30 5 1 2 3 1 3 2 1 50 0 1 0 0 1 0 1 0 37 0 3 3 4 1 0 36 0 4 4 13 3 32 5 
ELSE[ ]\011/* Else */
NPUSHB[ ]\011/* 48 values pushed */
9 1 0 1 1 30 5 1 2 3 1 3 2 1 50 0 4 0 3 2 4 3 1 0 38 0 1 0 0 1 1 0 35 0 1 1 0 1 0 36 0 0 1 0 1 0 33 6 
EIF[ ]\011/* EndIf */
EIF[ ]\011/* EndIf */
EIF[ ]\011/* EndIf */
EIF[ ]\011/* EndIf */
PUSHB[ ]\011/* 1 value pushed */
56 
CALL[ ]\011/* CallFunction */";
};
width = 475;
}
);
note = j;
unicode = 006A;
},
{
glyphname = k;
layers = (
{
layerId = "30DC88F3-813A-4685-BB5F-1C042FFC1B6D";
paths = (
{
closed = 1;
nodes = (
"259 1473 LINE",
"78 0 LINE",
"254 0 LINE",
"313 484 LINE",
"347 484 LINE SMOOTH",
"384.333 484 OFFCURVE",
"395.667 476.667 OFFCURVE",
"413 450 CURVE SMOOTH",
"671 35 LINE SMOOTH",
"685.667 9.667 OFFCURVE",
"701.667 0 OFFCURVE",
"731 0 CURVE SMOOTH",
"884 0 LINE",
"580 500 LINE SMOOTH",
"565.333 525.333 OFFCURVE",
"552.333 547 OFFCURVE",
"531 563 CURVE",
"553.667 576.333 OFFCURVE",
"572 594.667 OFFCURVE",
"592 616 CURVE SMOOTH",
"983 1013 LINE",
"826 1013 LINE SMOOTH",
"794 1013 OFFCURVE",
"777.333 998.333 OFFCURVE",
"756 977 CURVE SMOOTH",
"421 634 LINE SMOOTH",
"399.667 611.333 OFFCURVE",
"385.667 606 OFFCURVE",
"359 606 CURVE SMOOTH",
"328 606 LINE",
"434 1473 LINE"
);
}
);
userData = {
assembly = "NPUSHB[ ]\011/* 18 values pushed */
0 0 0 30 0 30 29 28 27 25 20 18 10 8 3 1 7 7 
CALL[ ]\011/* CallFunction */
MPPEM[ ]\011/* MeasurePixelPerEm */
PUSHB[ ]\011/* 1 value pushed */
95 
LT[ ]\011/* LessThan */
IF[ ]\011/* If */
NPUSHB[ ]\011/* 35 values pushed */
14 1 3 0 1 30 0 0 0 3 2 0 3 1 2 38 6 1 5 5 13 31 0 1 1 14 31 4 1 2 2 12 2 32 5 
ELSE[ ]\011/* Else */
MPPEM[ ]\011/* MeasurePixelPerEm */
PUSHB[ ]\011/* 1 value pushed */
108 
LT[ ]\011/* LessThan */
IF[ ]\011/* If */
NPUSHB[ ]\011/* 35 values pushed */
14 1 3 0 1 30 0 0 0 3 2 0 3 1 2 38 6 1 5 5 13 31 0 1 1 14 31 4 1 2 2 15 2 32 5 
ELSE[ ]\011/* Else */
MPPEM[ ]\011/* MeasurePixelPerEm */
PUSHB[ ]\011/* 1 value pushed */
141 
LT[ ]\011/* LessThan */
IF[ ]\011/* If */
NPUSHB[ ]\011/* 34 values pushed */
14 1 3 0 1 30 0 0 0 3 2 0 3 1 2 38 0 1 4 1 2 1 2 1 0 37 6 1 5 5 13 5 32 4 
ELSE[ ]\011/* Else */
MPPEM[ ]\011/* MeasurePixelPerEm */
PUSHB[ ]\011/* 1 value pushed */
232 
LT[ ]\011/* LessThan */
IF[ ]\011/* If */
NPUSHB[ ]\011/* 46 values pushed */
14 1 3 0 1 30 6 1 5 1 5 52 0 1 0 2 1 1 0 35 0 0 0 3 2 0 3 1 2 38 0 1 1 2 1 0 36 4 1 2 1 2 1 0 33 6 
ELSE[ ]\011/* Else */
NPUSHB[ ]\011/* 53 values pushed */
14 1 3 0 1 30 6 1 5 1 5 52 0 4 3 2 3 4 2 50 0 1 0 2 1 1 0 35 0 0 0 3 4 0 3 1 2 38 0 1 1 2 1 0 36 0 2 1 2 1 0 33 7 
EIF[ ]\011/* EndIf */
EIF[ ]\011/* EndIf */
EIF[ ]\011/* EndIf */
EIF[ ]\011/* EndIf */
PUSHB[ ]\011/* 1 value pushed */
56 
CALL[ ]\011/* CallFunction */";
};
width = 959;
}
);
note = k;
unicode = 006B;
},
{
glyphname = l;
layers = (
{
layerId = "30DC88F3-813A-4685-BB5F-1C042FFC1B6D";
paths = (
{
closed = 1;
nodes = (
"263 0 LINE",
"442 1473 LINE",
"267 1473 LINE",
"88 0 LINE"
);
}
);
userData = {
assembly = "NPUSHB[ ]\011/* 10 values pushed */
0 0 0 3 0 3 2 1 3 7 
CALL[ ]\011/* CallFunction */
MPPEM[ ]\011/* MeasurePixelPerEm */
PUSHB[ ]\011/* 1 value pushed */
95 
LT[ ]\011/* LessThan */
IF[ ]\011/* If */
NPUSHB[ ]\011/* 13 values pushed */
0 0 0 13 31 2 1 1 1 12 1 32 2 
ELSE[ ]\011/* Else */
MPPEM[ ]\011/* MeasurePixelPerEm */
PUSHB[ ]\011/* 1 value pushed */
108 
LT[ ]\011/* LessThan */
IF[ ]\011/* If */
NPUSHB[ ]\011/* 13 values pushed */
0 0 0 13 31 2 1 1 1 15 1 32 2 
ELSE[ ]\011/* Else */
MPPEM[ ]\011/* MeasurePixelPerEm */
PUSHB[ ]\011/* 1 value pushed */
141 
LT[ ]\011/* LessThan */
IF[ ]\011/* If */
NPUSHB[ ]\011/* 13 values pushed */
2 1 1 0 1 53 0 0 0 13 0 32 2 
ELSE[ ]\011/* Else */
NPUSHB[ ]\011/* 11 values pushed */
0 0 1 0 52 2 1 1 1 43 2 
EIF[ ]\011/* EndIf */
EIF[ ]\011/* EndIf */
EIF[ ]\011/* EndIf */
PUSHB[ ]\011/* 1 value pushed */
56 
CALL[ ]\011/* CallFunction */";
};
width = 475;
}
);
note = l;
unicode = 006C;
},
{
glyphname = lslash;
layers = (
{
layerId = "30DC88F3-813A-4685-BB5F-1C042FFC1B6D";
paths = (
{
closed = 1;
nodes = (
"76 621 LINE",
"237 690 LINE",
"153 0 LINE",
"328 0 LINE",
"420 757 LINE",
"583 830 LINE SMOOTH",
"601 837.333 OFFCURVE",
"610 852 OFFCURVE",
"610 874 CURVE SMOOTH",
"610 976 LINE",
"437 902 LINE",
"507 1473 LINE",
"332 1473 LINE",
"254 834 LINE",
"101 766 LINE SMOOTH",
"84.333 758.667 OFFCURVE",
"76 745.333 OFFCURVE",
"76 726 CURVE SMOOTH"
);
}
);
userData = {
assembly = "NPUSHB[ ]\011/* 6 values pushed */
13 12 5 4 2 7 
CALL[ ]\011/* CallFunction */
MPPEM[ ]\011/* MeasurePixelPerEm */
PUSHB[ ]\011/* 1 value pushed */
95 
LT[ ]\011/* LessThan */
IF[ ]\011/* If */
NPUSHB[ ]\011/* 21 values pushed */
15 14 7 6 4 1 0 1 30 0 0 0 13 31 0 1 1 12 1 32 3 
ELSE[ ]\011/* Else */
MPPEM[ ]\011/* MeasurePixelPerEm */
PUSHB[ ]\011/* 1 value pushed */
108 
LT[ ]\011/* LessThan */
IF[ ]\011/* If */
NPUSHB[ ]\011/* 21 values pushed */
15 14 7 6 4 1 0 1 30 0 0 0 13 31 0 1 1 15 1 32 3 
ELSE[ ]\011/* Else */
MPPEM[ ]\011/* MeasurePixelPerEm */
PUSHB[ ]\011/* 1 value pushed */
141 
LT[ ]\011/* LessThan */
IF[ ]\011/* If */
NPUSHB[ ]\011/* 21 values pushed */
15 14 7 6 4 1 0 1 30 0 1 0 1 53 0 0 0 13 0 32 3 
ELSE[ ]\011/* Else */
NPUSHB[ ]\011/* 19 values pushed */
15 14 7 6 4 1 0 1 30 0 0 1 0 52 0 1 1 43 3 
EIF[ ]\011/* EndIf */
EIF[ ]\011/* EndIf */
EIF[ ]\011/* EndIf */
PUSHB[ ]\011/* 1 value pushed */
56 
CALL[ ]\011/* CallFunction */";
};
width = 601;
}
);
note = lslash;
unicode = 0142;
},
{
glyphname = m;
layers = (
{
layerId = "30DC88F3-813A-4685-BB5F-1C042FFC1B6D";
paths = (
{
closed = 1;
nodes = (
"245 0 LINE",
"308 528 LINE",
"345.333 637.333 OFFCURVE",
"390.833 725.833 OFFCURVE",
"443.5 786.5 CURVE SMOOTH",
"496.167 847.167 OFFCURVE",
"556 880 OFFCURVE",
"620 880 CURVE SMOOTH",
"698.667 880 OFFCURVE",
"726 835.667 OFFCURVE",
"726 741 CURVE SMOOTH",
"726 713 OFFCURVE",
"723 681 OFFCURVE",
"719 645 CURVE SMOOTH",
"642 0 LINE",
"818 0 LINE",
"883 551 LINE",
"919 657.667 OFFCURVE",
"965.667 740.167 OFFCURVE",
"1019 795.5 CURVE SMOOTH",
"1072.333 850.833 OFFCURVE",
"1130.667 880 OFFCURVE",
"1188 880 CURVE SMOOTH",
"1266.667 880 OFFCURVE",
"1297 834 OFFCURVE",
"1297 734 CURVE SMOOTH",
"1297 707.333 OFFCURVE",
"1295 677.667 OFFCURVE",
"1291 645 CURVE SMOOTH",
"1215 0 LINE",
"1390 0 LINE",
"1466 645 LINE SMOOTH",
"1470 681 OFFCURVE",
"1473 714.333 OFFCURVE",
"1473 745 CURVE SMOOTH",
"1473 927.667 OFFCURVE",
"1399.333 1028 OFFCURVE",
"1250 1028 CURVE SMOOTH",
"1111.333 1028 OFFCURVE",
"982.333 941.333 OFFCURVE",
"881 756 CURVE",
"881 930.667 OFFCURVE",
"817.333 1028 OFFCURVE",
"680 1028 CURVE SMOOTH",
"548 1028 OFFCURVE",
"428 941 OFFCURVE",
"328 773 CURVE",
"342 954 LINE",
"342 994 OFFCURVE",
"322 1014 OFFCURVE",
"282 1014 CURVE SMOOTH",
"193 1014 LINE",
"71 0 LINE"
);
}
);
userData = {
assembly = "NPUSHB[ ]\011/* 22 values pushed */
0 0 0 48 0 48 43 41 35 34 29 27 22 21 15 13 9 7 3 1 9 7 
CALL[ ]\011/* CallFunction */
MPPEM[ ]\011/* MeasurePixelPerEm */
PUSHB[ ]\011/* 1 value pushed */
34 
LT[ ]\011/* LessThan */
IF[ ]\011/* If */
NPUSHB[ ]\011/* 36 values pushed */
4 1 4 0 11 5 2 3 4 2 30 6 1 4 4 0 1 0 36 2 1 2 0 0 14 31 8 7 5 3 3 3 12 3 32 4 
ELSE[ ]\011/* Else */
MPPEM[ ]\011/* MeasurePixelPerEm */
PUSHB[ ]\011/* 1 value pushed */
95 
LT[ ]\011/* LessThan */
IF[ ]\011/* If */
NPUSHB[ ]\011/* 40 values pushed */
4 1 4 0 11 5 2 3 4 2 30 0 0 0 14 31 6 1 4 4 1 1 0 36 2 1 1 1 20 31 8 7 5 3 3 3 12 3 32 5 
ELSE[ ]\011/* Else */
MPPEM[ ]\011/* MeasurePixelPerEm */
PUSHB[ ]\011/* 1 value pushed */
108 
LT[ ]\011/* LessThan */
IF[ ]\011/* If */
NPUSHB[ ]\011/* 40 values pushed */
4 1 4 0 11 5 2 3 4 2 30 0 0 0 14 31 6 1 4 4 1 1 0 36 2 1 1 1 20 31 8 7 5 3 3 3 15 3 32 5 
ELSE[ ]\011/* Else */
MPPEM[ ]\011/* MeasurePixelPerEm */
PUSHB[ ]\011/* 1 value pushed */
232 
LT[ ]\011/* LessThan */
IF[ ]\011/* If */
NPUSHB[ ]\011/* 49 values pushed */
4 1 4 0 11 5 2 3 4 2 30 0 0 4 3 0 1 0 35 2 1 1 6 1 4 3 1 4 1 0 38 0 0 0 3 0 0 36 8 7 5 3 3 0 3 0 0 33 5 
ELSE[ ]\011/* Else */
NPUSHB[ ]\011/* 67 values pushed */
4 1 6 0 11 5 2 7 4 2 30 0 5 7 3 7 5 3 50 0 3 3 51 0 0 6 7 0 1 0 35 0 1 0 6 4 1 6 1 0 38 0 2 0 4 7 2 4 1 0 38 0 0 0 7 0 0 36 8 1 7 0 7 0 0 33 8 
EIF[ ]\011/* EndIf */
EIF[ ]\011/* EndIf */
EIF[ ]\011/* EndIf */
EIF[ ]\011/* EndIf */
PUSHB[ ]\011/* 1 value pushed */
56 
CALL[ ]\011/* CallFunction */";
};
width = 1567;
}
);
note = m;
unicode = 006D;
},
{
glyphname = n;
layers = (
{
layerId = "30DC88F3-813A-4685-BB5F-1C042FFC1B6D";
paths = (
{
closed = 1;
nodes = (
"249 0 LINE",
"307 515 LINE",
"344.333 625.667 OFFCURVE",
"398.667 717.167 OFFCURVE",
"460 780.5 CURVE SMOOTH",
"521.333 843.833 OFFCURVE",
"589 880 OFFCURVE",
"653 880 CURVE SMOOTH",
"739.667 880 OFFCURVE",
"779 828.333 OFFCURVE",
"779 719 CURVE SMOOTH",
"779 696.333 OFFCURVE",
"776.667 671.667 OFFCURVE",
"774 645 CURVE SMOOTH",
"698 0 LINE",
"876 0 LINE",
"952 645 LINE SMOOTH",
"956 675.667 OFFCURVE",
"957 703.333 OFFCURVE",
"957 730 CURVE SMOOTH",
"957 924.667 OFFCURVE",
"869.667 1028 OFFCURVE",
"719 1028 CURVE SMOOTH",
"573.667 1028 OFFCURVE",
"434 936.667 OFFCURVE",
"326 758 CURVE",
"341 954 LINE",
"341 994 OFFCURVE",
"321 1014 OFFCURVE",
"281 1014 CURVE SMOOTH",
"192 1014 LINE",
"71 0 LINE"
);
}
);
userData = {
assembly = "NPUSHB[ ]\011/* 16 values pushed */
0 0 0 29 0 29 24 22 16 15 9 7 3 1 6 7 
CALL[ ]\011/* CallFunction */
MPPEM[ ]\011/* MeasurePixelPerEm */
PUSHB[ ]\011/* 1 value pushed */
34 
LT[ ]\011/* LessThan */
IF[ ]\011/* If */
NPUSHB[ ]\011/* 32 values pushed */
4 1 3 0 5 1 2 3 2 30 0 3 3 0 1 0 36 1 1 0 0 14 31 5 4 2 2 2 12 2 32 4 
ELSE[ ]\011/* Else */
MPPEM[ ]\011/* MeasurePixelPerEm */
PUSHB[ ]\011/* 1 value pushed */
95 
LT[ ]\011/* LessThan */
IF[ ]\011/* If */
NPUSHB[ ]\011/* 36 values pushed */
4 1 3 0 5 1 2 3 2 30 0 0 0 14 31 0 3 3 1 1 0 36 0 1 1 20 31 5 4 2 2 2 12 2 32 5 
ELSE[ ]\011/* Else */
MPPEM[ ]\011/* MeasurePixelPerEm */
PUSHB[ ]\011/* 1 value pushed */
108 
LT[ ]\011/* LessThan */
IF[ ]\011/* If */
NPUSHB[ ]\011/* 36 values pushed */
4 1 3 0 5 1 2 3 2 30 0 0 0 14 31 0 3 3 1 1 0 36 0 1 1 20 31 5 4 2 2 2 15 2 32 5 
ELSE[ ]\011/* Else */
MPPEM[ ]\011/* MeasurePixelPerEm */
PUSHB[ ]\011/* 1 value pushed */
232 
LT[ ]\011/* LessThan */
IF[ ]\011/* If */
NPUSHB[ ]\011/* 45 values pushed */
4 1 3 0 5 1 2 3 2 30 0 0 3 2 0 1 0 35 0 1 0 3 2 1 3 1 0 38 0 0 0 2 0 0 36 5 4 2 2 0 2 0 0 33 5 
ELSE[ ]\011/* Else */
NPUSHB[ ]\011/* 49 values pushed */
4 1 3 0 5 1 4 3 2 30 0 2 4 2 53 0 0 3 4 0 1 0 35 0 1 0 3 4 1 3 1 0 38 0 0 0 4 0 0 36 5 1 4 0 4 0 0 33 6 
EIF[ ]\011/* EndIf */
EIF[ ]\011/* EndIf */
EIF[ ]\011/* EndIf */
EIF[ ]\011/* EndIf */
PUSHB[ ]\011/* 1 value pushed */
56 
CALL[ ]\011/* CallFunction */";
};
width = 1052;
}
);
note = n;
unicode = 006E;
},
{
glyphname = o;
layers = (
{
layerId = "30DC88F3-813A-4685-BB5F-1C042FFC1B6D";
paths = (
{
closed = 1;
nodes = (
"308 125 OFFCURVE",
"234 221.333 OFFCURVE",
"234 408 CURVE SMOOTH",
"234 534.667 OFFCURVE",
"266 654.833 OFFCURVE",
"322 743.5 CURVE SMOOTH",
"378 832.167 OFFCURVE",
"458.333 889 OFFCURVE",
"557 889 CURVE SMOOTH",
"695.667 889 OFFCURVE",
"771 793.667 OFFCURVE",
"771 607 CURVE SMOOTH",
"771 480.333 OFFCURVE",
"739 360.167 OFFCURVE",
"683 271.5 CURVE SMOOTH",
"627 182.833 OFFCURVE",
"545.333 125 OFFCURVE",
"448 125 CURVE SMOOTH"
);
},
{
closed = 1;
nodes = (
"577.333 -14 OFFCURVE",
"707.833 56.667 OFFCURVE",
"800.5 170 CURVE SMOOTH",
"893.167 283.333 OFFCURVE",
"950 438.667 OFFCURVE",
"950 608 CURVE SMOOTH",
"950 740 OFFCURVE",
"910.667 846 OFFCURVE",
"844 918 CURVE SMOOTH",
"777.333 990 OFFCURVE",
"683.667 1029 OFFCURVE",
"573 1029 CURVE SMOOTH",
"426.333 1029 OFFCURVE",
"297.167 959.333 OFFCURVE",
"204.5 846 CURVE SMOOTH",
"111.833 732.667 OFFCURVE",
"55 577.667 OFFCURVE",
"55 407 CURVE SMOOTH",
"55 273.667 OFFCURVE",
"94.333 169 OFFCURVE",
"161 97 CURVE SMOOTH",
"227.667 25 OFFCURVE",
"321.333 -14 OFFCURVE",
"432 -14 CURVE SMOOTH"
);
}
);
userData = {
assembly = "NPUSHB[ ]\011/* 18 values pushed */
17 16 1 0 27 25 16 35 17 35 9 7 0 15 1 15 6 7 
CALL[ ]\011/* CallFunction */
MPPEM[ ]\011/* MeasurePixelPerEm */
PUSHB[ ]\011/* 1 value pushed */
9 
LT[ ]\011/* LessThan */
IF[ ]\011/* If */
NPUSHB[ ]\011/* 28 values pushed */
0 1 1 3 1 0 36 0 3 3 20 31 4 1 0 0 2 1 0 36 5 1 2 2 18 2 32 4 
ELSE[ ]\011/* Else */
MPPEM[ ]\011/* MeasurePixelPerEm */
PUSHB[ ]\011/* 1 value pushed */
108 
LT[ ]\011/* LessThan */
IF[ ]\011/* If */
NPUSHB[ ]\011/* 28 values pushed */
0 1 1 3 1 0 36 0 3 3 20 31 4 1 0 0 2 1 0 36 5 1 2 2 21 2 32 4 
ELSE[ ]\011/* Else */
NPUSHB[ ]\011/* 36 values pushed */
0 3 0 1 0 3 1 1 0 38 4 1 0 2 2 0 1 0 35 4 1 0 0 2 1 0 36 5 1 2 0 2 1 0 33 4 
EIF[ ]\011/* EndIf */
EIF[ ]\011/* EndIf */
PUSHB[ ]\011/* 1 value pushed */
56 
CALL[ ]\011/* CallFunction */";
};
width = 1005;
}
);
note = o;
unicode = 006F;
},
{
glyphname = oslash;
layers = (
{
layerId = "30DC88F3-813A-4685-BB5F-1C042FFC1B6D";
paths = (
{
closed = 1;
nodes = (
"577.333 -14 OFFCURVE",
"707.833 56.667 OFFCURVE",
"800.5 170 CURVE SMOOTH",
"893.167 283.333 OFFCURVE",
"950 438.667 OFFCURVE",
"950 608 CURVE SMOOTH",
"950 724 OFFCURVE",
"920 817.333 OFFCURVE",
"868 888 CURVE",
"996 1061 LINE",
"906 1061 LINE SMOOTH",
"863.333 1061 OFFCURVE",
"848.333 1048.333 OFFCURVE",
"823 1011 CURVE",
"789 965 LINE",
"728.333 1007.667 OFFCURVE",
"656.333 1029 OFFCURVE",
"573 1029 CURVE SMOOTH",
"426.333 1029 OFFCURVE",
"297.167 959.333 OFFCURVE",
"204.5 846 CURVE SMOOTH",
"111.833 732.667 OFFCURVE",
"55 577.667 OFFCURVE",
"55 407 CURVE SMOOTH",
"55 289.667 OFFCURVE",
"84.667 194.667 OFFCURVE",
"138 124 CURVE",
"6 -57 LINE",
"73 -57 LINE SMOOTH",
"111.667 -57 OFFCURVE",
"152.667 -42 OFFCURVE",
"182 -2 CURVE SMOOTH",
"218 47 LINE",
"278 6.333 OFFCURVE",
"349.333 -14 OFFCURVE",
"432 -14 CURVE SMOOTH"
);
},
{
closed = 1;
nodes = (
"223 545.333 OFFCURVE",
"257.167 668.833 OFFCURVE",
"316.5 757.5 CURVE SMOOTH",
"375.833 846.167 OFFCURVE",
"458.333 900 OFFCURVE",
"557 900 CURVE SMOOTH",
"609 900 OFFCURVE",
"653.667 885 OFFCURVE",
"691 855 CURVE",
"249 253 LINE",
"231.667 297 OFFCURVE",
"223 348.667 OFFCURVE",
"223 408 CURVE SMOOTH"
);
},
{
closed = 1;
nodes = (
"396 114 OFFCURVE",
"351.667 128.667 OFFCURVE",
"315 158 CURVE",
"757 758 LINE",
"773 715.333 OFFCURVE",
"782 665.667 OFFCURVE",
"782 607 CURVE SMOOTH",
"782 469.667 OFFCURVE",
"747.833 346.167 OFFCURVE",
"688.5 257.5 CURVE SMOOTH",
"629.167 168.833 OFFCURVE",
"545.333 114 OFFCURVE",
"448 114 CURVE SMOOTH"
);
}
);
userData = {
assembly = "NPUSHB[ ]\011/* 22 values pushed */
43 42 1 0 42 52 43 52 38 36 23 21 17 15 7 5 0 31 1 31 8 7 
CALL[ ]\011/* CallFunction */
MPPEM[ ]\011/* MeasurePixelPerEm */
PUSHB[ ]\011/* 1 value pushed */
9 
LT[ ]\011/* LessThan */
IF[ ]\011/* If */
NPUSHB[ ]\011/* 57 values pushed */
18 1 4 2 51 50 35 34 24 8 6 5 4 2 1 0 5 3 30 0 3 3 20 31 0 4 4 2 1 0 36 0 2 2 20 31 7 1 5 5 0 1 0 36 6 1 0 0 18 31 0 1 1 18 1 32 7 
ELSE[ ]\011/* Else */
MPPEM[ ]\011/* MeasurePixelPerEm */
PUSHB[ ]\011/* 1 value pushed */
25 
LT[ ]\011/* LessThan */
IF[ ]\011/* If */
NPUSHB[ ]\011/* 57 values pushed */
18 1 4 2 51 50 35 34 24 8 6 5 4 2 1 0 5 3 30 0 3 3 20 31 0 4 4 2 1 0 36 0 2 2 20 31 7 1 5 5 0 1 0 36 6 1 0 0 21 31 0 1 1 18 1 32 7 
ELSE[ ]\011/* Else */
MPPEM[ ]\011/* MeasurePixelPerEm */
PUSHB[ ]\011/* 1 value pushed */
28 
LT[ ]\011/* LessThan */
IF[ ]\011/* If */
NPUSHB[ ]\011/* 57 values pushed */
18 1 4 2 51 50 35 34 24 8 6 5 4 2 1 0 5 3 30 0 1 0 1 53 0 3 3 20 31 0 4 4 2 1 0 36 0 2 2 20 31 7 1 5 5 0 1 0 36 6 1 0 0 21 0 32 7 
ELSE[ ]\011/* Else */
MPPEM[ ]\011/* MeasurePixelPerEm */
PUSHB[ ]\011/* 1 value pushed */
108 
LT[ ]\011/* LessThan */
IF[ ]\011/* If */
NPUSHB[ ]\011/* 57 values pushed */
18 1 4 2 51 50 35 34 24 8 6 5 4 2 1 0 5 3 30 0 3 2 3 52 0 1 0 1 53 0 4 4 2 1 0 36 0 2 2 20 31 7 1 5 5 0 1 0 36 6 1 0 0 21 0 32 7 
ELSE[ ]\011/* Else */
NPUSHB[ ]\011/* 65 values pushed */
18 1 4 2 51 50 35 34 24 8 6 5 4 2 1 0 5 3 30 0 3 2 3 52 0 1 0 1 53 0 2 0 4 5 2 4 1 0 38 7 1 5 0 0 5 1 0 35 7 1 5 5 0 1 0 36 6 1 0 5 0 1 0 33 7 
EIF[ ]\011/* EndIf */
EIF[ ]\011/* EndIf */
EIF[ ]\011/* EndIf */
EIF[ ]\011/* EndIf */
PUSHB[ ]\011/* 1 value pushed */
56 
CALL[ ]\011/* CallFunction */";
};
width = 1005;
}
);
note = oslash;
unicode = 00F8;
},
{
glyphname = oe;
layers = (
{
layerId = "30DC88F3-813A-4685-BB5F-1C042FFC1B6D";
paths = (
{
closed = 1;
nodes = (
"1068 1027 OFFCURVE",
"943 955 OFFCURVE",
"859 835 CURVE",
"812.333 956.333 OFFCURVE",
"716.667 1027 OFFCURVE",
"574 1027 CURVE SMOOTH",
"431.333 1027 OFFCURVE",
"300.167 967.667 OFFCURVE",
"203.5 853 CURVE SMOOTH",
"106.833 738.333 OFFCURVE",
"46 568.667 OFFCURVE",
"46 350 CURVE SMOOTH",
"46 254 OFFCURVE",
"73.5 162.833 OFFCURVE",
"127.5 95.5 CURVE SMOOTH",
"181.5 28.167 OFFCURVE",
"263 -14 OFFCURVE",
"371 -14 CURVE SMOOTH",
"543 -14 OFFCURVE",
"683 70.333 OFFCURVE",
"775 217 CURVE",
"827 63.667 OFFCURVE",
"938 -14 OFFCURVE",
"1078 -14 CURVE SMOOTH",
"1163.333 -14 OFFCURVE",
"1237 1.833 OFFCURVE",
"1305 34.5 CURVE SMOOTH",
"1373 67.167 OFFCURVE",
"1436.333 117.667 OFFCURVE",
"1503 187 CURVE",
"1459 242 LINE",
"1449 253.333 OFFCURVE",
"1437.667 259 OFFCURVE",
"1425 259 CURVE SMOOTH",
"1396.528 259 OFFCURVE",
"1354.773 221.49 OFFCURVE",
"1317.5 192.5 CURVE SMOOTH",
"1278.542 162.2 OFFCURVE",
"1181.116 126 OFFCURVE",
"1113 126 CURVE SMOOTH",
"967.667 126 OFFCURVE",
"883 229.333 OFFCURVE",
"883 436 CURVE SMOOTH",
"883 447 LINE",
"967 455.667 OFFCURVE",
"1040.667 466.333 OFFCURVE",
"1104 479 CURVE SMOOTH",
"1230.667 504.333 OFFCURVE",
"1323.667 536.167 OFFCURVE",
"1385 575.5 CURVE SMOOTH",
"1415.667 595.167 OFFCURVE",
"1440.333 616.167 OFFCURVE",
"1459 638.5 CURVE SMOOTH",
"1496.333 683.167 OFFCURVE",
"1510 734.333 OFFCURVE",
"1510 789 CURVE SMOOTH",
"1510 935.81 OFFCURVE",
"1396.166 1027 OFFCURVE",
"1228 1027 CURVE SMOOTH"
);
},
{
closed = 1;
nodes = (
"274.85 121 OFFCURVE",
"220 229.726 OFFCURVE",
"220 360 CURVE SMOOTH",
"220 521.333 OFFCURVE",
"252.333 653.833 OFFCURVE",
"311 746.5 CURVE SMOOTH",
"369.667 839.167 OFFCURVE",
"453 892 OFFCURVE",
"557 892 CURVE SMOOTH",
"686.333 892 OFFCURVE",
"747 795.333 OFFCURVE",
"747 642 CURVE SMOOTH",
"747 491.333 OFFCURVE",
"718.167 362.333 OFFCURVE",
"661.5 269 CURVE SMOOTH",
"604.833 175.667 OFFCURVE",
"521 121 OFFCURVE",
"413 121 CURVE SMOOTH"
);
},
{
closed = 1;
nodes = (
"1301.357 901 OFFCURVE",
"1361 854.301 OFFCURVE",
"1361 783 CURVE SMOOTH",
"1361 739 OFFCURVE",
"1340.333 694.667 OFFCURVE",
"1271 656 CURVE SMOOTH",
"1201.667 617.333 OFFCURVE",
"1084.333 582 OFFCURVE",
"891 558 CURVE",
"907 666 OFFCURVE",
"945.667 751.167 OFFCURVE",
"999 810.5 CURVE SMOOTH",
"1052.333 869.833 OFFCURVE",
"1121.333 901 OFFCURVE",
"1200 901 CURVE SMOOTH"
);
}
);
userData = {
assembly = "NPUSHB[ ]\011/* 32 values pushed */
72 71 54 53 1 0 71 85 72 85 62 60 53 70 54 70 48 46 38 36 32 30 24 22 17 15 0 52 1 52 12 7 
CALL[ ]\011/* CallFunction */
MPPEM[ ]\011/* MeasurePixelPerEm */
PUSHB[ ]\011/* 1 value pushed */
9 
LT[ ]\011/* LessThan */
IF[ ]\011/* If */
NPUSHB[ ]\011/* 54 values pushed */
76 50 12 3 2 7 34 26 2 1 2 2 30 0 2 7 1 7 2 1 50 11 8 2 7 7 0 1 0 36 5 9 2 0 0 20 31 10 6 2 1 1 3 1 0 36 4 1 3 3 18 3 32 6 
ELSE[ ]\011/* Else */
MPPEM[ ]\011/* MeasurePixelPerEm */
PUSHB[ ]\011/* 1 value pushed */
54 
LT[ ]\011/* LessThan */
IF[ ]\011/* If */
NPUSHB[ ]\011/* 54 values pushed */
76 50 12 3 2 7 34 26 2 1 2 2 30 0 2 7 1 7 2 1 50 11 8 2 7 7 0 1 0 36 5 9 2 0 0 20 31 10 6 2 1 1 3 1 0 36 4 1 3 3 21 3 32 6 
ELSE[ ]\011/* Else */
MPPEM[ ]\011/* MeasurePixelPerEm */
PUSHB[ ]\011/* 1 value pushed */
91 
LT[ ]\011/* LessThan */
IF[ ]\011/* If */
NPUSHB[ ]\011/* 67 values pushed */
76 50 12 3 2 7 34 26 2 1 2 2 30 0 2 7 1 7 2 1 50 11 1 8 8 0 1 0 36 5 9 2 0 0 20 31 0 7 7 0 1 0 36 5 9 2 0 0 20 31 10 6 2 1 1 3 1 0 36 4 1 3 3 21 3 32 8 
ELSE[ ]\011/* Else */
MPPEM[ ]\011/* MeasurePixelPerEm */
PUSHB[ ]\011/* 1 value pushed */
108 
LT[ ]\011/* LessThan */
IF[ ]\011/* If */
NPUSHB[ ]\011/* 79 values pushed */
76 50 12 3 2 7 34 26 2 1 2 2 30 0 2 7 1 7 2 1 50 11 1 8 8 0 1 0 36 5 9 2 0 0 20 31 0 7 7 0 1 0 36 5 9 2 0 0 20 31 0 1 1 3 1 0 36 4 1 3 3 21 31 10 1 6 6 3 1 0 36 4 1 3 3 21 3 32 10 
ELSE[ ]\011/* Else */
MPPEM[ ]\011/* MeasurePixelPerEm */
PUSHB[ ]\011/* 1 value pushed */
232 
LT[ ]\011/* LessThan */
IF[ ]\011/* If */
NPUSHB[ ]\011/* 76 values pushed */
76 50 12 3 2 7 34 26 2 1 2 2 30 0 2 7 1 7 2 1 50 11 1 8 7 0 8 1 0 35 5 9 2 0 0 7 2 0 7 1 0 38 0 1 6 3 1 1 0 35 10 1 6 3 3 6 1 0 35 10 1 6 6 3 1 0 36 4 1 3 6 3 1 0 33 8 
ELSE[ ]\011/* Else */
NPUSHB[ ]\011/* 77 values pushed */
76 50 12 3 2 7 34 26 2 1 2 2 30 0 2 7 1 7 2 1 50 9 1 0 11 1 8 7 0 8 1 0 38 0 5 0 7 2 5 7 1 0 38 0 1 6 3 1 1 0 35 10 1 6 0 4 3 6 4 1 0 38 0 1 1 3 1 0 36 0 3 1 3 1 0 33 8 
EIF[ ]\011/* EndIf */
EIF[ ]\011/* EndIf */
EIF[ ]\011/* EndIf */
EIF[ ]\011/* EndIf */
EIF[ ]\011/* EndIf */
PUSHB[ ]\011/* 1 value pushed */
56 
CALL[ ]\011/* CallFunction */";
};
width = 1544;
}
);
note = oe;
unicode = 0153;
},
{
glyphname = p;
layers = (
{
layerId = "30DC88F3-813A-4685-BB5F-1C042FFC1B6D";
paths = (
{
closed = 1;
nodes = (
"201 -343 LINE",
"255 100 LINE",
"311 26.667 OFFCURVE",
"396 -14 OFFCURVE",
"496 -14 CURVE SMOOTH",
"542.667 -14 OFFCURVE",
"587.333 -5 OFFCURVE",
"630 13 CURVE SMOOTH",
"715.333 49 OFFCURVE",
"788.167 113.5 OFFCURVE",
"847.5 199.5 CURVE SMOOTH",
"877.167 242.5 OFFCURVE",
"902.5 288.833 OFFCURVE",
"923.5 338.5 CURVE SMOOTH",
"965.5 437.833 OFFCURVE",
"989 549.667 OFFCURVE",
"989 659 CURVE SMOOTH",
"989 900.333 OFFCURVE",
"888 1028 OFFCURVE",
"716 1028 CURVE SMOOTH",
"641.333 1028 OFFCURVE",
"568.5 999.667 OFFCURVE",
"502.5 949 CURVE SMOOTH",
"436.5 898.333 OFFCURVE",
"375.667 826 OFFCURVE",
"325 738 CURVE",
"342 954 LINE",
"342 994 OFFCURVE",
"322 1014 OFFCURVE",
"282 1014 CURVE SMOOTH",
"193 1014 LINE",
"28 -343 LINE"
);
},
{
closed = 1;
nodes = (
"753 885 OFFCURVE",
"813 800.667 OFFCURVE",
"813 642 CURVE SMOOTH",
"813 602 OFFCURVE",
"809.333 561.5 OFFCURVE",
"802 520.5 CURVE SMOOTH",
"787.333 438.5 OFFCURVE",
"760 360.833 OFFCURVE",
"720 293.5 CURVE SMOOTH",
"700 259.833 OFFCURVE",
"677.333 230.5 OFFCURVE",
"652 205.5 CURVE SMOOTH",
"601.333 155.5 OFFCURVE",
"539.333 124 OFFCURVE",
"470 124 CURVE SMOOTH",
"396.667 124 OFFCURVE",
"320.667 150.667 OFFCURVE",
"270 224 CURVE",
"302 482 LINE",
"340.667 598 OFFCURVE",
"394.667 699 OFFCURVE",
"456 771 CURVE SMOOTH",
"517.333 843 OFFCURVE",
"585 885 OFFCURVE",
"649 885 CURVE SMOOTH"
);
}
);
userData = {
assembly = "NPUSHB[ ]\011/* 22 values pushed */
26 25 0 0 35 33 25 43 26 43 0 24 0 24 21 19 11 9 3 1 8 7 
CALL[ ]\011/* CallFunction */
MPPEM[ ]\011/* MeasurePixelPerEm */
PUSHB[ ]\011/* 1 value pushed */
9 
LT[ ]\011/* LessThan */
IF[ ]\011/* If */
NPUSHB[ ]\011/* 49 values pushed */
4 1 4 0 31 5 2 5 4 23 1 2 5 3 30 7 1 4 4 0 1 0 36 1 1 0 0 14 31 0 5 5 2 1 0 36 0 2 2 18 31 6 1 3 3 16 3 32 6 
ELSE[ ]\011/* Else */
MPPEM[ ]\011/* MeasurePixelPerEm */
PUSHB[ ]\011/* 1 value pushed */
34 
LT[ ]\011/* LessThan */
IF[ ]\011/* If */
NPUSHB[ ]\011/* 49 values pushed */
4 1 4 0 31 5 2 5 4 23 1 2 5 3 30 7 1 4 4 0 1 0 36 1 1 0 0 14 31 0 5 5 2 1 0 36 0 2 2 21 31 6 1 3 3 16 3 32 6 
ELSE[ ]\011/* Else */
MPPEM[ ]\011/* MeasurePixelPerEm */
PUSHB[ ]\011/* 1 value pushed */
73 
LT[ ]\011/* LessThan */
IF[ ]\011/* If */
NPUSHB[ ]\011/* 53 values pushed */
4 1 4 0 31 5 2 5 4 23 1 2 5 3 30 0 0 0 14 31 7 1 4 4 1 1 0 36 0 1 1 20 31 0 5 5 2 1 0 36 0 2 2 21 31 6 1 3 3 16 3 32 7 
ELSE[ ]\011/* Else */
MPPEM[ ]\011/* MeasurePixelPerEm */
PUSHB[ ]\011/* 1 value pushed */
108 
LT[ ]\011/* LessThan */
IF[ ]\011/* If */
NPUSHB[ ]\011/* 55 values pushed */
4 1 4 0 31 5 2 5 4 23 1 2 5 3 30 7 1 4 4 1 1 0 36 0 1 1 20 31 0 5 5 2 1 0 36 0 2 2 21 31 6 1 3 3 0 1 0 36 0 0 0 14 3 32 7 
ELSE[ ]\011/* Else */
NPUSHB[ ]\011/* 60 values pushed */
4 1 4 0 31 5 2 5 4 23 1 2 5 3 30 0 0 4 3 0 1 0 35 0 1 7 1 4 5 1 4 1 0 38 0 5 0 2 3 5 2 1 0 38 0 0 0 3 0 0 36 6 1 3 0 3 0 0 33 6 
EIF[ ]\011/* EndIf */
EIF[ ]\011/* EndIf */
EIF[ ]\011/* EndIf */
EIF[ ]\011/* EndIf */
PUSHB[ ]\011/* 1 value pushed */
56 
CALL[ ]\011/* CallFunction */";
};
width = 1036;
}
);
note = p;
unicode = 0070;
},
{
glyphname = thorn;
layers = (
{
layerId = "30DC88F3-813A-4685-BB5F-1C042FFC1B6D";
paths = (
{
closed = 1;
nodes = (
"146 -343 LINE SMOOTH",
"186 -343 OFFCURVE",
"214 -313.667 OFFCURVE",
"218 -279 CURVE SMOOTH",
"264 99 LINE",
"321.333 27 OFFCURVE",
"405 -14 OFFCURVE",
"505 -14 CURVE SMOOTH",
"551.667 -14 OFFCURVE",
"596.333 -5 OFFCURVE",
"639 13 CURVE SMOOTH",
"724.333 49 OFFCURVE",
"797.167 113.5 OFFCURVE",
"856.5 199.5 CURVE SMOOTH",
"886.167 242.5 OFFCURVE",
"911.5 288.833 OFFCURVE",
"932.5 338.5 CURVE SMOOTH",
"974.5 437.833 OFFCURVE",
"998 549.667 OFFCURVE",
"998 659 CURVE SMOOTH",
"998 900.333 OFFCURVE",
"897 1028 OFFCURVE",
"725 1028 CURVE SMOOTH",
"653 1028 OFFCURVE",
"583 1000.667 OFFCURVE",
"519 954 CURVE SMOOTH",
"455 907.333 OFFCURVE",
"395.667 838.333 OFFCURVE",
"345 757 CURVE",
"434 1473 LINE",
"258 1473 LINE",
"37 -343 LINE"
);
},
{
closed = 1;
nodes = (
"762 885 OFFCURVE",
"822 800.667 OFFCURVE",
"822 642 CURVE SMOOTH",
"822 602 OFFCURVE",
"818.333 561.5 OFFCURVE",
"811 520.5 CURVE SMOOTH",
"796.333 438.5 OFFCURVE",
"769 360.833 OFFCURVE",
"729 293.5 CURVE SMOOTH",
"709 259.833 OFFCURVE",
"686.333 230.5 OFFCURVE",
"661 205.5 CURVE SMOOTH",
"610.333 155.5 OFFCURVE",
"548.333 124 OFFCURVE",
"479 124 CURVE SMOOTH",
"405.667 124 OFFCURVE",
"329.667 150 OFFCURVE",
"279 222 CURVE",
"312 486 LINE",
"350.667 602 OFFCURVE",
"404.667 701.333 OFFCURVE",
"466 772 CURVE SMOOTH",
"527.333 842.667 OFFCURVE",
"594 885 OFFCURVE",
"658 885 CURVE SMOOTH"
);
}
);
userData = {
assembly = "NPUSHB[ ]\011/* 22 values pushed */
27 26 0 0 36 34 26 44 27 44 0 25 0 24 19 17 9 7 2 1 8 7 
CALL[ ]\011/* CallFunction */
MPPEM[ ]\011/* MeasurePixelPerEm */
PUSHB[ ]\011/* 1 value pushed */
9 
LT[ ]\011/* LessThan */
IF[ ]\011/* If */
NPUSHB[ ]\011/* 49 values pushed */
32 3 2 5 4 21 1 2 5 2 30 0 0 0 13 31 7 1 4 4 1 1 0 36 0 1 1 20 31 0 5 5 2 1 0 36 0 2 2 18 31 6 1 3 3 16 3 32 7 
ELSE[ ]\011/* Else */
MPPEM[ ]\011/* MeasurePixelPerEm */
PUSHB[ ]\011/* 1 value pushed */
73 
LT[ ]\011/* LessThan */
IF[ ]\011/* If */
NPUSHB[ ]\011/* 49 values pushed */
32 3 2 5 4 21 1 2 5 2 30 0 0 0 13 31 7 1 4 4 1 1 0 36 0 1 1 20 31 0 5 5 2 1 0 36 0 2 2 21 31 6 1 3 3 16 3 32 7 
ELSE[ ]\011/* Else */
MPPEM[ ]\011/* MeasurePixelPerEm */
PUSHB[ ]\011/* 1 value pushed */
108 
LT[ ]\011/* LessThan */
IF[ ]\011/* If */
NPUSHB[ ]\011/* 49 values pushed */
32 3 2 5 4 21 1 2 5 2 30 6 1 3 2 3 53 0 0 0 13 31 7 1 4 4 1 1 0 36 0 1 1 20 31 0 5 5 2 1 0 36 0 2 2 21 2 32 7 
ELSE[ ]\011/* Else */
MPPEM[ ]\011/* MeasurePixelPerEm */
PUSHB[ ]\011/* 1 value pushed */
141 
LT[ ]\011/* LessThan */
IF[ ]\011/* If */
NPUSHB[ ]\011/* 45 values pushed */
32 3 2 5 4 21 1 2 5 2 30 6 1 3 2 3 53 0 1 7 1 4 5 1 4 1 0 38 0 5 0 2 3 5 2 1 0 38 0 0 0 13 0 32 5 
ELSE[ ]\011/* Else */
NPUSHB[ ]\011/* 56 values pushed */
32 3 2 5 4 21 1 2 5 2 30 0 0 1 0 52 6 1 3 2 3 53 0 1 7 1 4 5 1 4 1 0 38 0 5 2 2 5 1 0 35 0 5 5 2 1 0 36 0 2 5 2 1 0 33 7 
EIF[ ]\011/* EndIf */
EIF[ ]\011/* EndIf */
EIF[ ]\011/* EndIf */
EIF[ ]\011/* EndIf */
PUSHB[ ]\011/* 1 value pushed */
56 
CALL[ ]\011/* CallFunction */";
};
width = 1045;
}
);
note = thorn;
unicode = 00FE;
},
{
glyphname = q;
layers = (
{
layerId = "30DC88F3-813A-4685-BB5F-1C042FFC1B6D";
paths = (
{
closed = 1;
nodes = (
"937 980 LINE",
"857 1014.667 OFFCURVE",
"775.667 1027 OFFCURVE",
"689 1027 CURVE SMOOTH",
"629 1027 OFFCURVE",
"571.667 1018.5 OFFCURVE",
"517 1001.5 CURVE SMOOTH",
"407.667 967.5 OFFCURVE",
"311.333 904.167 OFFCURVE",
"234 819.5 CURVE SMOOTH",
"195.333 777.167 OFFCURVE",
"162.167 730.667 OFFCURVE",
"134.5 680 CURVE SMOOTH",
"79.167 578.667 OFFCURVE",
"48 463 OFFCURVE",
"48 343 CURVE SMOOTH",
"48 228.333 OFFCURVE",
"74.5 139.167 OFFCURVE",
"120.5 78.5 CURVE SMOOTH",
"166.5 17.833 OFFCURVE",
"233 -14 OFFCURVE",
"313 -14 CURVE SMOOTH",
"382.333 -14 OFFCURVE",
"448 10.833 OFFCURVE",
"508 55.5 CURVE SMOOTH",
"568 100.167 OFFCURVE",
"621.333 163.333 OFFCURVE",
"668 242 CURVE",
"609 -229 LINE",
"609 -235.33 OFFCURVE",
"603 -271.518 OFFCURVE",
"603 -281 CURVE SMOOTH",
"603 -314.333 OFFCURVE",
"618.333 -343 OFFCURVE",
"661 -343 CURVE SMOOTH",
"773 -343 LINE"
);
},
{
closed = 1;
nodes = (
"277.333 134 OFFCURVE",
"226 214.333 OFFCURVE",
"226 375 CURVE SMOOTH",
"226 421 OFFCURVE",
"231.333 465.833 OFFCURVE",
"242 509.5 CURVE SMOOTH",
"263.333 596.833 OFFCURVE",
"301.667 674.833 OFFCURVE",
"355 739.5 CURVE SMOOTH",
"381.667 771.833 OFFCURVE",
"411.333 799.667 OFFCURVE",
"444 823 CURVE SMOOTH",
"509.333 869.667 OFFCURVE",
"585 897 OFFCURVE",
"665 897 CURVE SMOOTH",
"693 897 OFFCURVE",
"722 895.667 OFFCURVE",
"750 889 CURVE",
"705 534 LINE",
"667.667 418 OFFCURVE",
"619 317.667 OFFCURVE",
"563 247 CURVE SMOOTH",
"507 176.333 OFFCURVE",
"444 134 OFFCURVE",
"380 134 CURVE SMOOTH"
);
}
);
userData = {
assembly = "NPUSHB[ ]\011/* 16 values pushed */
32 31 41 38 31 48 32 48 28 26 16 14 2 0 6 7 
CALL[ ]\011/* CallFunction */
MPPEM[ ]\011/* MeasurePixelPerEm */
PUSHB[ ]\011/* 1 value pushed */
9 
LT[ ]\011/* LessThan */
IF[ ]\011/* If */
NPUSHB[ ]\011/* 47 values pushed */
30 1 4 2 37 10 2 3 4 9 1 0 1 3 30 0 4 4 2 1 0 36 0 2 2 20 31 5 1 3 3 1 1 0 36 0 1 1 18 31 0 0 0 16 0 32 6 
ELSE[ ]\011/* Else */
MPPEM[ ]\011/* MeasurePixelPerEm */
PUSHB[ ]\011/* 1 value pushed */
73 
LT[ ]\011/* LessThan */
IF[ ]\011/* If */
NPUSHB[ ]\011/* 47 values pushed */
30 1 4 2 37 10 2 3 4 9 1 0 1 3 30 0 4 4 2 1 0 36 0 2 2 20 31 5 1 3 3 1 1 0 36 0 1 1 21 31 0 0 0 16 0 32 6 
ELSE[ ]\011/* Else */
MPPEM[ ]\011/* MeasurePixelPerEm */
PUSHB[ ]\011/* 1 value pushed */
108 
LT[ ]\011/* LessThan */
IF[ ]\011/* If */
NPUSHB[ ]\011/* 47 values pushed */
30 1 4 2 37 10 2 3 4 9 1 0 1 3 30 0 0 1 0 53 0 4 4 2 1 0 36 0 2 2 20 31 5 1 3 3 1 1 0 36 0 1 1 21 1 32 6 
ELSE[ ]\011/* Else */
NPUSHB[ ]\011/* 55 values pushed */
30 1 4 2 37 10 2 3 4 9 1 0 1 3 30 0 0 1 0 53 0 2 0 4 3 2 4 1 0 38 5 1 3 1 1 3 1 0 35 5 1 3 3 1 1 0 36 0 1 3 1 1 0 33 6 
EIF[ ]\011/* EndIf */
EIF[ ]\011/* EndIf */
EIF[ ]\011/* EndIf */
PUSHB[ ]\011/* 1 value pushed */
56 
CALL[ ]\011/* CallFunction */";
};
width = 1010;
}
);
note = q;
unicode = 0071;
},
{
glyphname = r;
layers = (
{
layerId = "30DC88F3-813A-4685-BB5F-1C042FFC1B6D";
paths = (
{
closed = 1;
nodes = (
"245 0 LINE",
"301 470 LINE",
"369 726 OFFCURVE",
"471.667 851 OFFCURVE",
"601 851 CURVE SMOOTH",
"630.333 851 OFFCURVE",
"660.667 844.667 OFFCURVE",
"692 832 CURVE",
"724 1003 LINE",
"696 1015 OFFCURVE",
"668 1021 OFFCURVE",
"640 1021 CURVE SMOOTH",
"521.333 1021 OFFCURVE",
"411.667 915.667 OFFCURVE",
"325 729 CURVE",
"339 913 LINE",
"339 914.554 OFFCURVE",
"342 951.576 OFFCURVE",
"342 961 CURVE SMOOTH",
"342 997 OFFCURVE",
"319.333 1014 OFFCURVE",
"282 1014 CURVE SMOOTH",
"193 1014 LINE",
"71 0 LINE"
);
}
);
userData = {
assembly = "NPUSHB[ ]\011/* 14 values pushed */
0 0 0 23 0 23 20 18 15 13 3 1 5 7 
CALL[ ]\011/* CallFunction */
MPPEM[ ]\011/* MeasurePixelPerEm */
PUSHB[ ]\011/* 1 value pushed */
67 
LT[ ]\011/* LessThan */
IF[ ]\011/* If */
NPUSHB[ ]\011/* 33 values pushed */
16 10 2 2 0 17 11 2 3 2 2 30 0 2 2 0 1 0 36 1 1 0 0 14 31 4 1 3 3 12 3 32 4 
ELSE[ ]\011/* Else */
MPPEM[ ]\011/* MeasurePixelPerEm */
PUSHB[ ]\011/* 1 value pushed */
95 
LT[ ]\011/* LessThan */
IF[ ]\011/* If */
NPUSHB[ ]\011/* 37 values pushed */
16 10 2 2 0 17 11 2 3 2 2 30 0 0 0 14 31 0 2 2 1 1 0 36 0 1 1 20 31 4 1 3 3 12 3 32 5 
ELSE[ ]\011/* Else */
MPPEM[ ]\011/* MeasurePixelPerEm */
PUSHB[ ]\011/* 1 value pushed */
108 
LT[ ]\011/* LessThan */
IF[ ]\011/* If */
NPUSHB[ ]\011/* 37 values pushed */
16 10 2 2 0 17 11 2 3 2 2 30 0 0 0 14 31 0 2 2 1 1 0 36 0 1 1 20 31 4 1 3 3 15 3 32 5 
ELSE[ ]\011/* Else */
NPUSHB[ ]\011/* 46 values pushed */
16 10 2 2 0 17 11 2 3 2 2 30 0 0 2 3 0 1 0 35 0 1 0 2 3 1 2 1 0 38 0 0 0 3 0 0 36 4 1 3 0 3 0 0 33 5 
EIF[ ]\011/* EndIf */
EIF[ ]\011/* EndIf */
EIF[ ]\011/* EndIf */
PUSHB[ ]\011/* 1 value pushed */
56 
CALL[ ]\011/* CallFunction */";
};
width = 702;
}
);
note = r;
unicode = 0072;
},
{
glyphname = s;
layers = (
{
layerId = "30DC88F3-813A-4685-BB5F-1C042FFC1B6D";
paths = (
{
closed = 1;
nodes = (
"768 915 LINE",
"701.333 984.333 OFFCURVE",
"609.333 1028 OFFCURVE",
"488 1028 CURVE SMOOTH",
"373.333 1028 OFFCURVE",
"281 988.333 OFFCURVE",
"217 927 CURVE SMOOTH",
"153 865.667 OFFCURVE",
"118 783.333 OFFCURVE",
"118 698 CURVE SMOOTH",
"118 649.333 OFFCURVE",
"128.333 610.333 OFFCURVE",
"149 581 CURVE SMOOTH",
"190.333 522.333 OFFCURVE",
"256 487.833 OFFCURVE",
"328 464.5 CURVE SMOOTH",
"364 452.833 OFFCURVE",
"397.667 440.333 OFFCURVE",
"429 427 CURVE SMOOTH",
"491.667 400.333 OFFCURVE",
"538 364 OFFCURVE",
"538 296 CURVE SMOOTH",
"538 190.948 OFFCURVE",
"451.796 111 OFFCURVE",
"326 111 CURVE SMOOTH",
"251.333 111 OFFCURVE",
"205 133.167 OFFCURVE",
"173 156.5 CURVE SMOOTH",
"146.8 175.604 OFFCURVE",
"119.892 202 OFFCURVE",
"101 202 CURVE SMOOTH",
"78.333 202 OFFCURVE",
"64.667 192.333 OFFCURVE",
"54 175 CURVE SMOOTH",
"10 107 LINE",
"72.667 35 OFFCURVE",
"173.667 -16 OFFCURVE",
"303 -16 CURVE SMOOTH",
"423 -16 OFFCURVE",
"520.833 25.833 OFFCURVE",
"589.5 90.5 CURVE SMOOTH",
"658.167 155.167 OFFCURVE",
"696 243.667 OFFCURVE",
"696 337 CURVE SMOOTH",
"696 385 OFFCURVE",
"685.667 424 OFFCURVE",
"665 454 CURVE SMOOTH",
"623.667 514 OFFCURVE",
"558.167 550.667 OFFCURVE",
"485.5 576 CURVE SMOOTH",
"449.167 588.667 OFFCURVE",
"415.333 601.833 OFFCURVE",
"384 615.5 CURVE SMOOTH",
"321.333 642.833 OFFCURVE",
"275 676.333 OFFCURVE",
"275 739 CURVE SMOOTH",
"275 832.327 OFFCURVE",
"362.325 900 OFFCURVE",
"477 900 CURVE SMOOTH",
"541 900 OFFCURVE",
"585.167 881.5 OFFCURVE",
"616.5 863.5 CURVE SMOOTH",
"641.426 849.181 OFFCURVE",
"670.749 828 OFFCURVE",
"687 828 CURVE SMOOTH",
"703 828 OFFCURVE",
"712.333 835 OFFCURVE",
"723 851 CURVE SMOOTH"
);
}
);
userData = {
assembly = "NPUSHB[ ]\011/* 14 values pushed */
55 53 38 36 33 31 26 24 9 7 4 2 6 7 
CALL[ ]\011/* CallFunction */
MPPEM[ ]\011/* MeasurePixelPerEm */
PUSHB[ ]\011/* 1 value pushed */
95 
LT[ ]\011/* LessThan */
IF[ ]\011/* If */
NPUSHB[ ]\011/* 51 values pushed */
57 1 1 5 28 1 2 4 2 30 0 0 1 3 1 0 3 50 0 3 4 1 3 4 48 0 1 1 5 1 0 36 0 5 5 20 31 0 4 4 2 1 0 36 0 2 2 18 2 32 7 
ELSE[ ]\011/* Else */
MPPEM[ ]\011/* MeasurePixelPerEm */
PUSHB[ ]\011/* 1 value pushed */
108 
LT[ ]\011/* LessThan */
IF[ ]\011/* If */
NPUSHB[ ]\011/* 51 values pushed */
57 1 1 5 28 1 2 4 2 30 0 0 1 3 1 0 3 50 0 3 4 1 3 4 48 0 1 1 5 1 0 36 0 5 5 20 31 0 4 4 2 1 0 36 0 2 2 21 2 32 7 
ELSE[ ]\011/* Else */
NPUSHB[ ]\011/* 58 values pushed */
57 1 1 5 28 1 2 4 2 30 0 0 1 3 1 0 3 50 0 3 4 1 3 4 48 0 5 0 1 0 5 1 1 0 38 0 4 2 2 4 1 0 35 0 4 4 2 1 0 36 0 2 4 2 1 0 33 7 
EIF[ ]\011/* EndIf */
EIF[ ]\011/* EndIf */
PUSHB[ ]\011/* 1 value pushed */
56 
CALL[ ]\011/* CallFunction */";
};
width = 778;
}
);
note = s;
unicode = 0073;
},
{
glyphname = germandbls;
layers = (
{
layerId = "30DC88F3-813A-4685-BB5F-1C042FFC1B6D";
paths = (
{
closed = 1;
nodes = (
"604 1453 OFFCURVE",
"493 1399.333 OFFCURVE",
"405 1314 CURVE SMOOTH",
"317 1228.667 OFFCURVE",
"252.667 1113.667 OFFCURVE",
"222 991 CURVE",
"59 991 LINE",
"51 914 LINE",
"51 892 OFFCURVE",
"64.333 879.333 OFFCURVE",
"91 876 CURVE SMOOTH",
"201 862 LINE",
"65 -249 LINE",
"135 -249 LINE SMOOTH",
"185 -249 OFFCURVE",
"215.667 -224 OFFCURVE",
"227 -174 CURVE SMOOTH",
"273 33 LINE",
"381 905 LINE SMOOTH",
"394.333 1018.333 OFFCURVE",
"434.833 1123.667 OFFCURVE",
"491.5 1201 CURVE SMOOTH",
"548.167 1278.333 OFFCURVE",
"622.333 1326 OFFCURVE",
"705 1326 CURVE SMOOTH",
"831.196 1326 OFFCURVE",
"896 1249.067 OFFCURVE",
"896 1161 CURVE SMOOTH",
"896 1123.667 OFFCURVE",
"887.833 1091.667 OFFCURVE",
"871.5 1065 CURVE SMOOTH",
"838.833 1011.667 OFFCURVE",
"787.5 970.667 OFFCURVE",
"729.5 932 CURVE SMOOTH",
"700.5 912.667 OFFCURVE",
"673.667 891.5 OFFCURVE",
"649 868.5 CURVE SMOOTH",
"599.667 822.5 OFFCURVE",
"563 766.667 OFFCURVE",
"563 684 CURVE SMOOTH",
"563 646.667 OFFCURVE",
"570.667 616 OFFCURVE",
"586 592 CURVE SMOOTH",
"616.667 544 OFFCURVE",
"663.5 510.667 OFFCURVE",
"717.5 484 CURVE SMOOTH",
"744.5 470.667 OFFCURVE",
"769.333 456.333 OFFCURVE",
"792 441 CURVE SMOOTH",
"837.333 410.333 OFFCURVE",
"872 371 OFFCURVE",
"872 307 CURVE SMOOTH",
"872 194.833 OFFCURVE",
"790.259 107 OFFCURVE",
"679 107 CURVE SMOOTH",
"599.087 107 OFFCURVE",
"511.56 199 OFFCURVE",
"471 199 CURVE SMOOTH",
"448.333 199 OFFCURVE",
"434 189 OFFCURVE",
"422 173 CURVE SMOOTH",
"374 107 LINE",
"439.333 35 OFFCURVE",
"531.333 -16 OFFCURVE",
"650 -16 CURVE SMOOTH",
"755.333 -16 OFFCURVE",
"851.5 19.167 OFFCURVE",
"921.5 82.5 CURVE SMOOTH",
"991.5 145.833 OFFCURVE",
"1036 238.333 OFFCURVE",
"1036 353 CURVE SMOOTH",
"1036 396.333 OFFCURVE",
"1028.833 432.667 OFFCURVE",
"1014.5 462 CURVE SMOOTH",
"985.833 520.667 OFFCURVE",
"941.5 559.833 OFFCURVE",
"891.5 588.5 CURVE SMOOTH",
"838.102 619.115 OFFCURVE",
"747 676.052 OFFCURVE",
"747 733 CURVE SMOOTH",
"747 795.743 OFFCURVE",
"846.725 866.483 OFFCURVE",
"904.5 905 CURVE SMOOTH",
"931.5 923 OFFCURVE",
"956.667 944 OFFCURVE",
"980 968 CURVE SMOOTH",
"1026.667 1016 OFFCURVE",
"1062 1077.333 OFFCURVE",
"1062 1168 CURVE SMOOTH",
"1062 1230.667 OFFCURVE",
"1037.5 1302.167 OFFCURVE",
"983.5 1357.5 CURVE SMOOTH",
"929.5 1412.833 OFFCURVE",
"846.667 1453 OFFCURVE",
"728 1453 CURVE SMOOTH"
);
}
);
userData = {
assembly = "NPUSHB[ ]\011/* 20 values pushed */
1 0 76 75 70 68 61 59 37 35 32 30 25 23 0 80 1 80 8 7 
CALL[ ]\011/* CallFunction */
MPPEM[ ]\011/* MeasurePixelPerEm */
PUSHB[ ]\011/* 1 value pushed */
44 
LT[ ]\011/* LessThan */
IF[ ]\011/* If */
NPUSHB[ ]\011/* 59 values pushed */
74 71 2 2 6 1 30 27 1 3 1 29 0 2 6 3 6 2 3 50 0 4 4 0 1 0 36 7 1 0 0 17 31 0 3 3 1 1 0 36 0 1 1 18 31 0 5 5 6 0 0 36 0 6 6 14 5 32 9 
ELSE[ ]\011/* Else */
MPPEM[ ]\011/* MeasurePixelPerEm */
PUSHB[ ]\011/* 1 value pushed */
95 
LT[ ]\011/* LessThan */
IF[ ]\011/* If */
NPUSHB[ ]\011/* 56 values pushed */
74 71 2 2 6 1 30 27 1 3 1 29 0 2 6 3 6 2 3 50 0 6 0 5 6 5 1 0 37 0 4 4 0 1 0 36 7 1 0 0 17 31 0 3 3 1 1 0 36 0 1 1 18 1 32 8 
ELSE[ ]\011/* Else */
MPPEM[ ]\011/* MeasurePixelPerEm */
PUSHB[ ]\011/* 1 value pushed */
108 
LT[ ]\011/* LessThan */
IF[ ]\011/* If */
NPUSHB[ ]\011/* 54 values pushed */
74 71 2 2 6 1 30 27 1 3 1 29 0 2 6 3 6 2 3 50 7 1 0 0 4 6 0 4 1 0 38 0 6 0 5 6 5 1 0 37 0 3 3 1 1 0 36 0 1 1 21 1 32 7 
ELSE[ ]\011/* Else */
NPUSHB[ ]\011/* 64 values pushed */
74 71 2 2 6 1 30 27 1 3 1 29 0 2 6 3 6 2 3 50 7 1 0 0 4 6 0 4 1 0 38 0 6 2 5 6 0 0 35 0 3 0 1 5 3 1 1 0 38 0 6 6 5 1 0 36 0 5 6 5 1 0 33 8 
EIF[ ]\011/* EndIf */
EIF[ ]\011/* EndIf */
EIF[ ]\011/* EndIf */
PUSHB[ ]\011/* 1 value pushed */
56 
CALL[ ]\011/* CallFunction */";
};
width = 1097;
}
);
note = germandbls;
unicode = 00DF;
},
{
glyphname = t;
layers = (
{
layerId = "30DC88F3-813A-4685-BB5F-1C042FFC1B6D";
paths = (
{
closed = 1;
nodes = (
"161.667 56.333 OFFCURVE",
"240.667 -16 OFFCURVE",
"370 -16 CURVE SMOOTH",
"454 -16 OFFCURVE",
"542 18.667 OFFCURVE",
"606 76 CURVE",
"569 161 LINE",
"562.333 173 OFFCURVE",
"557.667 178 OFFCURVE",
"547 178 CURVE SMOOTH",
"528.772 178 OFFCURVE",
"464.159 130 OFFCURVE",
"424 130 CURVE SMOOTH",
"369.333 130 OFFCURVE",
"336 162 OFFCURVE",
"336 230 CURVE SMOOTH",
"336 233.403 OFFCURVE",
"345.559 329.584 OFFCURVE",
"350 366 CURVE SMOOTH",
"411 864 LINE",
"678 864 LINE",
"693 993 LINE",
"427 993 LINE",
"471 1342 LINE",
"377 1342 LINE SMOOTH",
"355.667 1342 OFFCURVE",
"340.333 1328 OFFCURVE",
"335 1308 CURVE SMOOTH",
"260 995 LINE",
"104 974 LINE",
"101.758 949.335 OFFCURVE",
"95 906.458 OFFCURVE",
"95 895 CURVE SMOOTH",
"95 873.667 OFFCURVE",
"107.667 864 OFFCURVE",
"125 864 CURVE SMOOTH",
"238 864 LINE",
"175 357 LINE SMOOTH",
"166.521 290.579 OFFCURVE",
"159 206.933 OFFCURVE",
"159 191 CURVE SMOOTH"
);
}
);
userData = {
assembly = "NPUSHB[ ]\011/* 16 values pushed */
47 45 40 38 35 33 25 24 23 22 21 19 8 6 7 7 
CALL[ ]\011/* CallFunction */
MPPEM[ ]\011/* MeasurePixelPerEm */
PUSHB[ ]\011/* 1 value pushed */
50 
LT[ ]\011/* LessThan */
IF[ ]\011/* If */
NPUSHB[ ]\011/* 46 values pushed */
43 1 6 4 1 30 0 1 2 1 52 0 5 0 4 0 5 4 50 3 1 0 0 2 0 0 36 0 2 2 14 31 0 4 4 6 1 0 36 0 6 6 18 6 32 7 
ELSE[ ]\011/* Else */
MPPEM[ ]\011/* MeasurePixelPerEm */
PUSHB[ ]\011/* 1 value pushed */
95 
LT[ ]\011/* LessThan */
IF[ ]\011/* If */
NPUSHB[ ]\011/* 44 values pushed */
43 1 6 4 1 30 0 1 2 1 52 0 5 0 4 0 5 4 50 0 2 3 1 0 5 2 0 1 2 38 0 4 4 6 1 0 36 0 6 6 18 6 32 6 
ELSE[ ]\011/* Else */
MPPEM[ ]\011/* MeasurePixelPerEm */
PUSHB[ ]\011/* 1 value pushed */
108 
LT[ ]\011/* LessThan */
IF[ ]\011/* If */
NPUSHB[ ]\011/* 44 values pushed */
43 1 6 4 1 30 0 1 2 1 52 0 5 0 4 0 5 4 50 0 2 3 1 0 5 2 0 1 2 38 0 4 4 6 1 0 36 0 6 6 21 6 32 6 
ELSE[ ]\011/* Else */
MPPEM[ ]\011/* MeasurePixelPerEm */
PUSHB[ ]\011/* 1 value pushed */
232 
LT[ ]\011/* LessThan */
IF[ ]\011/* If */
NPUSHB[ ]\011/* 53 values pushed */
43 1 6 4 1 30 0 1 2 1 52 0 5 0 4 0 5 4 50 0 2 3 1 0 5 2 0 1 2 38 0 4 6 6 4 1 0 35 0 4 4 6 1 0 36 0 6 4 6 1 0 33 7 
ELSE[ ]\011/* Else */
NPUSHB[ ]\011/* 59 values pushed */
43 1 6 4 1 30 0 1 2 1 52 0 0 3 5 3 0 5 50 0 5 4 3 5 4 48 0 2 0 3 0 2 3 0 2 38 0 4 6 6 4 1 0 35 0 4 4 6 1 0 36 0 6 4 6 1 0 33 8 
EIF[ ]\011/* EndIf */
EIF[ ]\011/* EndIf */
EIF[ ]\011/* EndIf */
EIF[ ]\011/* EndIf */
PUSHB[ ]\011/* 1 value pushed */
56 
CALL[ ]\011/* CallFunction */";
};
width = 685;
}
);
note = t;
unicode = 0074;
},
{
glyphname = u;
layers = (
{
layerId = "30DC88F3-813A-4685-BB5F-1C042FFC1B6D";
paths = (
{
closed = 1;
nodes = (
"177 1013 LINE",
"101 369 LINE SMOOTH",
"97 338.333 OFFCURVE",
"96 310.667 OFFCURVE",
"96 284 CURVE SMOOTH",
"96 92 OFFCURVE",
"183.333 -14 OFFCURVE",
"334 -14 CURVE SMOOTH",
"475.333 -14 OFFCURVE",
"613 76 OFFCURVE",
"721 248 CURVE",
"714 167 LINE",
"714 153.499 OFFCURVE",
"706 75.64 OFFCURVE",
"706 57 CURVE SMOOTH",
"706 18.333 OFFCURVE",
"729.667 0 OFFCURVE",
"771 0 CURVE SMOOTH",
"859 0 LINE",
"981 1013 LINE",
"804 1013 LINE",
"741 486 LINE",
"702.333 379.333 OFFCURVE",
"649.167 291.333 OFFCURVE",
"588.5 230 CURVE SMOOTH",
"527.833 168.667 OFFCURVE",
"461.333 134 OFFCURVE",
"400 134 CURVE SMOOTH",
"312 134 OFFCURVE",
"273 186.667 OFFCURVE",
"273 296 CURVE SMOOTH",
"273 318.667 OFFCURVE",
"275.333 342.333 OFFCURVE",
"278 369 CURVE SMOOTH",
"354 1013 LINE"
);
}
);
userData = {
assembly = "NPUSHB[ ]\011/* 16 values pushed */
0 0 0 35 0 35 29 27 17 15 14 13 8 6 6 7 
CALL[ ]\011/* CallFunction */
MPPEM[ ]\011/* MeasurePixelPerEm */
PUSHB[ ]\011/* 1 value pushed */
34 
LT[ ]\011/* LessThan */
IF[ ]\011/* If */
NPUSHB[ ]\011/* 29 values pushed */
25 24 2 0 1 1 30 5 4 2 1 1 14 31 0 0 0 2 1 2 36 3 1 2 2 12 2 32 4 
ELSE[ ]\011/* Else */
MPPEM[ ]\011/* MeasurePixelPerEm */
PUSHB[ ]\011/* 1 value pushed */
95 
LT[ ]\011/* LessThan */
IF[ ]\011/* If */
NPUSHB[ ]\011/* 33 values pushed */
25 24 2 0 1 1 30 5 4 2 1 1 14 31 0 2 2 12 31 0 0 0 3 1 2 36 0 3 3 21 3 32 5 
ELSE[ ]\011/* Else */
MPPEM[ ]\011/* MeasurePixelPerEm */
PUSHB[ ]\011/* 1 value pushed */
108 
LT[ ]\011/* LessThan */
IF[ ]\011/* If */
NPUSHB[ ]\011/* 33 values pushed */
25 24 2 0 1 1 30 5 4 2 1 1 14 31 0 2 2 15 31 0 0 0 3 1 2 36 0 3 3 21 3 32 5 
ELSE[ ]\011/* Else */
MPPEM[ ]\011/* MeasurePixelPerEm */
PUSHB[ ]\011/* 1 value pushed */
232 
LT[ ]\011/* LessThan */
IF[ ]\011/* If */
NPUSHB[ ]\011/* 42 values pushed */
25 24 2 0 1 1 30 0 0 2 3 0 1 0 35 5 4 2 1 0 2 3 1 2 1 0 38 0 0 0 3 1 2 36 0 3 0 3 1 2 33 5 
ELSE[ ]\011/* Else */
NPUSHB[ ]\011/* 49 values pushed */
25 24 2 0 4 1 30 5 1 4 1 0 1 4 0 50 0 0 2 3 0 1 0 35 0 1 0 2 3 1 2 1 0 38 0 0 0 3 1 2 36 0 3 0 3 1 2 33 6 
EIF[ ]\011/* EndIf */
EIF[ ]\011/* EndIf */
EIF[ ]\011/* EndIf */
EIF[ ]\011/* EndIf */
PUSHB[ ]\011/* 1 value pushed */
56 
CALL[ ]\011/* CallFunction */";
};
width = 1050;
}
);
note = u;
unicode = 0075;
},
{
glyphname = v;
layers = (
{
layerId = "30DC88F3-813A-4685-BB5F-1C042FFC1B6D";
paths = (
{
closed = 1;
nodes = (
"336 0 LINE",
"485 0 LINE",
"993 1013 LINE",
"854 1013 LINE SMOOTH",
"831.333 1013 OFFCURVE",
"811.667 997.333 OFFCURVE",
"801 976 CURVE SMOOTH",
"487 324 LINE SMOOTH",
"463 273.333 OFFCURVE",
"448.667 225 OFFCURVE",
"434 177 CURVE",
"431.333 225 OFFCURVE",
"427.667 274.667 OFFCURVE",
"417 324 CURVE SMOOTH",
"266 976 LINE SMOOTH",
"262 996 OFFCURVE",
"245.667 1013 OFFCURVE",
"219 1013 CURVE SMOOTH",
"75 1013 LINE"
);
}
);
userData = {
assembly = "NPUSHB[ ]\011/* 8 values pushed */
18 17 16 14 2 0 3 7 
CALL[ ]\011/* CallFunction */
MPPEM[ ]\011/* MeasurePixelPerEm */
PUSHB[ ]\011/* 1 value pushed */
95 
LT[ ]\011/* LessThan */
IF[ ]\011/* If */
NPUSHB[ ]\011/* 19 values pushed */
8 1 2 0 1 30 1 1 0 0 14 31 0 2 2 12 2 32 3 
ELSE[ ]\011/* Else */
MPPEM[ ]\011/* MeasurePixelPerEm */
PUSHB[ ]\011/* 1 value pushed */
108 
LT[ ]\011/* LessThan */
IF[ ]\011/* If */
NPUSHB[ ]\011/* 19 values pushed */
8 1 2 0 1 30 1 1 0 0 14 31 0 2 2 15 2 32 3 
ELSE[ ]\011/* Else */
MPPEM[ ]\011/* MeasurePixelPerEm */
PUSHB[ ]\011/* 1 value pushed */
232 
LT[ ]\011/* LessThan */
IF[ ]\011/* If */
NPUSHB[ ]\011/* 17 values pushed */
8 1 2 0 1 30 1 1 0 2 0 52 0 2 2 43 3 
ELSE[ ]\011/* Else */
NPUSHB[ ]\011/* 21 values pushed */
8 1 2 1 1 30 0 0 1 0 52 0 1 2 1 52 0 2 2 43 4 
EIF[ ]\011/* EndIf */
EIF[ ]\011/* EndIf */
EIF[ ]\011/* EndIf */
PUSHB[ ]\011/* 1 value pushed */
56 
CALL[ ]\011/* CallFunction */";
};
width = 952;
}
);
note = v;
unicode = 0076;
},
{
glyphname = w;
layers = (
{
layerId = "30DC88F3-813A-4685-BB5F-1C042FFC1B6D";
paths = (
{
closed = 1;
nodes = (
"259 0 LINE",
"389 0 LINE SMOOTH",
"406.333 0 OFFCURVE",
"419.667 11.333 OFFCURVE",
"429 34 CURVE SMOOTH",
"722 720 LINE SMOOTH",
"731.333 742.667 OFFCURVE",
"737.333 763.333 OFFCURVE",
"744 786 CURVE",
"745.333 775.333 OFFCURVE",
"746.667 764.5 OFFCURVE",
"748 753.5 CURVE SMOOTH",
"749.333 742.5 OFFCURVE",
"751 731.667 OFFCURVE",
"753 721 CURVE SMOOTH",
"876 34 LINE SMOOTH",
"880 11.333 OFFCURVE",
"889.667 0 OFFCURVE",
"905 0 CURVE SMOOTH",
"1040 0 LINE",
"1465 1013 LINE",
"1337 1013 LINE SMOOTH",
"1313 1013 OFFCURVE",
"1293 997.333 OFFCURVE",
"1285 976 CURVE SMOOTH",
"1029 324 LINE SMOOTH",
"1019.667 300.667 OFFCURVE",
"1011.833 277.833 OFFCURVE",
"1005.5 255.5 CURVE SMOOTH",
"999.167 233.167 OFFCURVE",
"992.667 211.333 OFFCURVE",
"986 190 CURVE",
"982 234 OFFCURVE",
"978 277.333 OFFCURVE",
"970 324 CURVE SMOOTH",
"857 980 LINE",
"854.333 1000 OFFCURVE",
"839.667 1015 OFFCURVE",
"813 1015 CURVE SMOOTH",
"739 1015 LINE SMOOTH",
"716.333 1015 OFFCURVE",
"697 1000 OFFCURVE",
"689 980 CURVE SMOOTH",
"412 324 LINE SMOOTH",
"393.333 277.333 OFFCURVE",
"377 234.667 OFFCURVE",
"361 192 CURVE",
"360.333 213.333 OFFCURVE",
"359.833 234.833 OFFCURVE",
"359.5 256.5 CURVE SMOOTH",
"359.167 278.167 OFFCURVE",
"357.333 300.667 OFFCURVE",
"354 324 CURVE SMOOTH",
"261 976 LINE SMOOTH",
"258.333 998.667 OFFCURVE",
"240.667 1013 OFFCURVE",
"214 1013 CURVE SMOOTH",
"81 1013 LINE"
);
}
);
userData = {
assembly = "NPUSHB[ ]\011/* 12 values pushed */
46 44 34 32 31 29 17 14 2 0 5 7 
CALL[ ]\011/* CallFunction */
MPPEM[ ]\011/* MeasurePixelPerEm */
PUSHB[ ]\011/* 1 value pushed */
95 
LT[ ]\011/* LessThan */
IF[ ]\011/* If */
NPUSHB[ ]\011/* 23 values pushed */
39 23 8 3 3 0 1 30 2 1 2 0 0 14 31 4 1 3 3 12 3 32 3 
ELSE[ ]\011/* Else */
MPPEM[ ]\011/* MeasurePixelPerEm */
PUSHB[ ]\011/* 1 value pushed */
108 
LT[ ]\011/* LessThan */
IF[ ]\011/* If */
NPUSHB[ ]\011/* 23 values pushed */
39 23 8 3 3 0 1 30 2 1 2 0 0 14 31 4 1 3 3 15 3 32 3 
ELSE[ ]\011/* Else */
MPPEM[ ]\011/* MeasurePixelPerEm */
PUSHB[ ]\011/* 1 value pushed */
200 
LT[ ]\011/* LessThan */
IF[ ]\011/* If */
NPUSHB[ ]\011/* 21 values pushed */
39 23 8 3 3 0 1 30 2 1 2 0 3 0 52 4 1 3 3 43 3 
ELSE[ ]\011/* Else */
MPPEM[ ]\011/* MeasurePixelPerEm */
PUSHB[ ]\011/* 1 value pushed */
232 
LT[ ]\011/* LessThan */
IF[ ]\011/* If */
NPUSHB[ ]\011/* 25 values pushed */
39 23 8 3 3 0 1 30 0 1 0 1 52 2 1 0 3 0 52 4 1 3 3 43 4 
ELSE[ ]\011/* Else */
NPUSHB[ ]\011/* 33 values pushed */
39 23 8 3 4 2 1 30 0 1 0 1 52 0 0 2 0 52 0 2 4 2 52 0 4 3 4 52 0 3 3 43 6 
EIF[ ]\011/* EndIf */
EIF[ ]\011/* EndIf */
EIF[ ]\011/* EndIf */
EIF[ ]\011/* EndIf */
PUSHB[ ]\011/* 1 value pushed */
56 
CALL[ ]\011/* CallFunction */";
};
width = 1419;
}
);
note = w;
unicode = 0077;
},
{
glyphname = x;
layers = (
{
layerId = "30DC88F3-813A-4685-BB5F-1C042FFC1B6D";
paths = (
{
closed = 1;
nodes = (
"-50 0 LINE",
"106 0 LINE SMOOTH",
"130 0 OFFCURVE",
"144.667 15.333 OFFCURVE",
"158 34 CURVE SMOOTH",
"434 402 LINE",
"441.333 412.667 OFFCURVE",
"448.333 425.333 OFFCURVE",
"455 440 CURVE",
"646 35 LINE SMOOTH",
"655.333 16.333 OFFCURVE",
"668.333 0 OFFCURVE",
"695 0 CURVE SMOOTH",
"854 0 LINE",
"584 544 LINE",
"946 1013 LINE",
"785 1013 LINE SMOOTH",
"767.667 1013 OFFCURVE",
"757.667 1003.667 OFFCURVE",
"743 985 CURVE SMOOTH",
"514 682 LINE SMOOTH",
"503.333 667.333 OFFCURVE",
"496.667 654.667 OFFCURVE",
"490 640 CURVE",
"320 988 LINE SMOOTH",
"310.667 1006.667 OFFCURVE",
"302.667 1013 OFFCURVE",
"276 1013 CURVE SMOOTH",
"117 1013 LINE",
"360 545 LINE"
);
}
);
userData = {
assembly = "NPUSHB[ ]\011/* 10 values pushed */
28 26 18 16 14 12 3 1 4 7 
CALL[ ]\011/* CallFunction */
MPPEM[ ]\011/* MeasurePixelPerEm */
PUSHB[ ]\011/* 1 value pushed */
95 
LT[ ]\011/* LessThan */
IF[ ]\011/* If */
NPUSHB[ ]\011/* 22 values pushed */
21 15 0 3 2 0 1 30 1 1 0 0 14 31 3 1 2 2 12 2 32 3 
ELSE[ ]\011/* Else */
MPPEM[ ]\011/* MeasurePixelPerEm */
PUSHB[ ]\011/* 1 value pushed */
108 
LT[ ]\011/* LessThan */
IF[ ]\011/* If */
NPUSHB[ ]\011/* 22 values pushed */
21 15 0 3 2 0 1 30 1 1 0 0 14 31 3 1 2 2 15 2 32 3 
ELSE[ ]\011/* Else */
MPPEM[ ]\011/* MeasurePixelPerEm */
PUSHB[ ]\011/* 1 value pushed */
232 
LT[ ]\011/* LessThan */
IF[ ]\011/* If */
NPUSHB[ ]\011/* 34 values pushed */
21 15 0 3 2 0 1 30 1 1 0 2 2 0 1 0 35 1 1 0 0 2 1 0 36 3 1 2 0 2 1 0 33 4 
ELSE[ ]\011/* Else */
NPUSHB[ ]\011/* 41 values pushed */
21 15 0 3 3 1 1 30 0 1 3 2 1 1 0 35 0 0 0 3 2 0 3 1 0 38 0 1 1 2 1 0 36 0 2 1 2 1 0 33 5 
EIF[ ]\011/* EndIf */
EIF[ ]\011/* EndIf */
EIF[ ]\011/* EndIf */
PUSHB[ ]\011/* 1 value pushed */
56 
CALL[ ]\011/* CallFunction */";
};
width = 937;
}
);
note = x;
unicode = 0078;
},
{
glyphname = y;
layers = (
{
layerId = "30DC88F3-813A-4685-BB5F-1C042FFC1B6D";
paths = (
{
closed = 1;
nodes = (
"1000 1013 LINE",
"859 1013 LINE SMOOTH",
"839 1013 OFFCURVE",
"817.667 999.333 OFFCURVE",
"807 978 CURVE SMOOTH",
"487 339 LINE SMOOTH",
"479.667 325 OFFCURVE",
"473.167 310.833 OFFCURVE",
"467.5 296.5 CURVE SMOOTH",
"461.833 282.167 OFFCURVE",
"456 268 OFFCURVE",
"450 254 CURVE",
"447.333 282 OFFCURVE",
"443.667 310 OFFCURVE",
"437 338 CURVE SMOOTH",
"274 976 LINE SMOOTH",
"268.667 997.333 OFFCURVE",
"256 1013 OFFCURVE",
"228 1013 CURVE SMOOTH",
"81 1013 LINE",
"343 60 LINE",
"124 -343 LINE",
"254 -343 LINE SMOOTH",
"281.333 -343 OFFCURVE",
"302 -329.333 OFFCURVE",
"316 -302 CURVE SMOOTH"
);
}
);
userData = {
assembly = "NPUSHB[ ]\011/* 8 values pushed */
21 19 7 5 3 1 3 7 
CALL[ ]\011/* CallFunction */
MPPEM[ ]\011/* MeasurePixelPerEm */
PUSHB[ ]\011/* 1 value pushed */
73 
LT[ ]\011/* LessThan */
IF[ ]\011/* If */
NPUSHB[ ]\011/* 20 values pushed */
13 4 2 0 1 1 30 2 1 1 1 14 31 0 0 0 16 0 32 3 
ELSE[ ]\011/* Else */
MPPEM[ ]\011/* MeasurePixelPerEm */
PUSHB[ ]\011/* 1 value pushed */
108 
LT[ ]\011/* LessThan */
IF[ ]\011/* If */
NPUSHB[ ]\011/* 22 values pushed */
13 4 2 0 1 1 30 0 0 0 1 1 0 36 2 1 1 1 14 0 32 3 
ELSE[ ]\011/* Else */
MPPEM[ ]\011/* MeasurePixelPerEm */
PUSHB[ ]\011/* 1 value pushed */
232 
LT[ ]\011/* LessThan */
IF[ ]\011/* If */
NPUSHB[ ]\011/* 32 values pushed */
13 4 2 0 1 1 30 2 1 1 0 0 1 1 0 35 2 1 1 1 0 1 0 36 0 0 1 0 1 0 33 4 
ELSE[ ]\011/* Else */
NPUSHB[ ]\011/* 38 values pushed */
13 4 2 0 2 1 30 0 2 1 0 1 2 0 50 0 1 2 0 1 1 0 35 0 1 1 0 1 0 36 0 0 1 0 1 0 33 5 
EIF[ ]\011/* EndIf */
EIF[ ]\011/* EndIf */
EIF[ ]\011/* EndIf */
PUSHB[ ]\011/* 1 value pushed */
56 
CALL[ ]\011/* CallFunction */";
};
width = 952;
}
);
note = y;
unicode = 0079;
},
{
glyphname = z;
layers = (
{
layerId = "30DC88F3-813A-4685-BB5F-1C042FFC1B6D";
paths = (
{
closed = 1;
nodes = (
"857 1013 LINE",
"155 1013 LINE",
"138 873 LINE",
"630 873 LINE",
"43 138 LINE SMOOTH",
"27 116.667 OFFCURVE",
"14.667 91.333 OFFCURVE",
"12 74 CURVE SMOOTH",
"3 0 LINE",
"717 0 LINE",
"733 139 LINE",
"233 139 LINE",
"817 869 LINE SMOOTH",
"831.667 887.667 OFFCURVE",
"845.333 911.667 OFFCURVE",
"848 937 CURVE SMOOTH"
);
}
);
userData = {
assembly = "NPUSHB[ ]\011/* 10 values pushed */
15 14 13 12 7 6 5 4 4 7 
CALL[ ]\011/* CallFunction */
MPPEM[ ]\011/* MeasurePixelPerEm */
PUSHB[ ]\011/* 1 value pushed */
95 
LT[ ]\011/* LessThan */
IF[ ]\011/* If */
NPUSHB[ ]\011/* 26 values pushed */
0 2 2 3 0 0 36 0 3 3 14 31 0 0 0 1 0 0 36 0 1 1 12 1 32 4 
ELSE[ ]\011/* Else */
MPPEM[ ]\011/* MeasurePixelPerEm */
PUSHB[ ]\011/* 1 value pushed */
108 
LT[ ]\011/* LessThan */
IF[ ]\011/* If */
NPUSHB[ ]\011/* 26 values pushed */
0 2 2 3 0 0 36 0 3 3 14 31 0 0 0 1 0 0 36 0 1 1 15 1 32 4 
ELSE[ ]\011/* Else */
NPUSHB[ ]\011/* 33 values pushed */
0 3 0 2 0 3 2 0 0 38 0 0 1 1 0 0 0 35 0 0 0 1 0 0 36 0 1 0 1 0 0 33 4 
EIF[ ]\011/* EndIf */
EIF[ ]\011/* EndIf */
PUSHB[ ]\011/* 1 value pushed */
56 
CALL[ ]\011/* CallFunction */";
};
width = 858;
}
);
note = z;
unicode = 007A;
},
{
glyphname = fi;
layers = (
{
layerId = "30DC88F3-813A-4685-BB5F-1C042FFC1B6D";
paths = (
{
closed = 1;
nodes = (
"384 993 LINE",
"390 1046 LINE SMOOTH",
"402 1146 OFFCURVE",
"433.833 1219 OFFCURVE",
"490.5 1267 CURVE SMOOTH",
"547.167 1315 OFFCURVE",
"627.333 1339 OFFCURVE",
"738 1339 CURVE SMOOTH",
"748.667 1339 OFFCURVE",
"758.333 1338.833 OFFCURVE",
"767 1338.5 CURVE SMOOTH",
"775.667 1338.167 OFFCURVE",
"783.667 1338 OFFCURVE",
"791 1338 CURVE SMOOTH",
"813.667 1338 OFFCURVE",
"828 1341 OFFCURVE",
"832 1357 CURVE",
"849 1447 LINE",
"816.984 1459.314 OFFCURVE",
"745.66 1467 OFFCURVE",
"705 1467 CURVE SMOOTH",
"562.333 1467 OFFCURVE",
"450.333 1424.333 OFFCURVE",
"369 1351 CURVE SMOOTH",
"287.667 1277.667 OFFCURVE",
"238.667 1173 OFFCURVE",
"224 1049 CURVE SMOOTH",
"217 993 LINE",
"69 993 LINE",
"62 914 LINE",
"62 890.667 OFFCURVE",
"75.333 877.333 OFFCURVE",
"102 874 CURVE SMOOTH",
"201 862 LINE",
"64 -250 LINE",
"134 -250 LINE SMOOTH",
"184 -250 OFFCURVE",
"214.667 -225 OFFCURVE",
"226 -175 CURVE SMOOTH",
"272 32 LINE",
"374 864 LINE",
"761 864 LINE",
"654 0 LINE",
"830 0 LINE",
"951 993 LINE"
);
}
);
userData = {
assembly = "NPUSHB[ ]\011/* 20 values pushed */
0 0 0 39 0 39 34 29 22 20 15 14 9 7 4 3 2 1 8 7 
CALL[ ]\011/* CallFunction */
MPPEM[ ]\011/* MeasurePixelPerEm */
PUSHB[ ]\011/* 1 value pushed */
50 
LT[ ]\011/* LessThan */
IF[ ]\011/* If */
NPUSHB[ ]\011/* 61 values pushed */
26 1 5 4 13 1 1 3 10 1 0 1 3 30 0 5 5 4 1 0 36 0 4 4 13 31 0 1 1 3 0 0 36 7 6 2 3 3 14 31 0 0 0 12 31 0 2 2 3 0 0 36 7 6 2 3 3 14 2 32 8 
ELSE[ ]\011/* Else */
MPPEM[ ]\011/* MeasurePixelPerEm */
PUSHB[ ]\011/* 1 value pushed */
95 
LT[ ]\011/* LessThan */
IF[ ]\011/* If */
NPUSHB[ ]\011/* 52 values pushed */
26 1 5 4 13 1 1 3 10 1 0 1 3 30 0 1 0 3 1 0 0 35 7 6 2 3 0 2 3 2 1 0 37 0 5 5 4 1 0 36 0 4 4 13 31 0 0 0 12 0 32 6 
ELSE[ ]\011/* Else */
MPPEM[ ]\011/* MeasurePixelPerEm */
PUSHB[ ]\011/* 1 value pushed */
108 
LT[ ]\011/* LessThan */
IF[ ]\011/* If */
NPUSHB[ ]\011/* 52 values pushed */
26 1 5 4 13 1 1 3 10 1 0 1 3 30 0 1 0 3 1 0 0 35 7 6 2 3 0 2 3 2 1 0 37 0 5 5 4 1 0 36 0 4 4 13 31 0 0 0 15 0 32 6 
ELSE[ ]\011/* Else */
MPPEM[ ]\011/* MeasurePixelPerEm */
PUSHB[ ]\011/* 1 value pushed */
217 
LT[ ]\011/* LessThan */
IF[ ]\011/* If */
NPUSHB[ ]\011/* 55 values pushed */
26 1 5 4 13 1 1 3 10 1 0 1 3 30 0 0 1 2 1 0 2 50 0 1 0 3 1 0 0 35 7 6 2 3 0 2 3 2 1 0 37 0 5 5 4 1 0 36 0 4 4 13 5 32 6 
ELSE[ ]\011/* Else */
MPPEM[ ]\011/* MeasurePixelPerEm */
PUSHW[ ]\011/* 1 value pushed */
1000 
LT[ ]\011/* LessThan */
IF[ ]\011/* If */
NPUSHB[ ]\011/* 61 values pushed */
26 1 5 4 13 1 1 3 10 1 0 1 3 30 0 0 1 2 1 0 2 50 0 4 0 5 3 4 5 1 0 38 7 6 2 3 0 1 0 3 1 0 0 38 7 6 2 3 3 2 1 0 36 0 2 3 2 1 0 33 6 
ELSE[ ]\011/* Else */
NPUSHB[ ]\011/* 66 values pushed */
26 1 5 4 13 1 1 6 10 1 0 1 3 30 0 0 1 2 1 0 2 50 0 4 0 5 3 4 5 1 0 38 0 3 6 2 3 0 0 35 7 1 6 0 1 0 6 1 0 0 38 0 3 3 2 1 0 36 0 2 3 2 1 0 33 7 
EIF[ ]\011/* EndIf */
EIF[ ]\011/* EndIf */
EIF[ ]\011/* EndIf */
EIF[ ]\011/* EndIf */
EIF[ ]\011/* EndIf */
PUSHB[ ]\011/* 1 value pushed */
56 
CALL[ ]\011/* CallFunction */";
};
width = 1055;
}
);
note = fi;
unicode = FB01;
},
{
glyphname = fl;
layers = (
{
layerId = "30DC88F3-813A-4685-BB5F-1C042FFC1B6D";
paths = (
{
closed = 1;
nodes = (
"608 865 LINE",
"623 993 LINE",
"385 993 LINE",
"391 1048 LINE SMOOTH",
"411 1228 OFFCURVE",
"512 1330 OFFCURVE",
"668 1330 CURVE SMOOTH",
"696.667 1330 OFFCURVE",
"726.833 1328.333 OFFCURVE",
"758.5 1325 CURVE SMOOTH",
"790.167 1321.667 OFFCURVE",
"821 1318.667 OFFCURVE",
"851 1316 CURVE",
"691 0 LINE",
"864 0 LINE",
"1041 1446 LINE",
"922 1446 LINE SMOOTH",
"886.667 1446 OFFCURVE",
"845.667 1448.167 OFFCURVE",
"799 1452.5 CURVE SMOOTH",
"752.333 1456.833 OFFCURVE",
"705.333 1459 OFFCURVE",
"658 1459 CURVE SMOOTH",
"528.667 1459 OFFCURVE",
"427.333 1412.667 OFFCURVE",
"354 1338 CURVE SMOOTH",
"280.667 1263.333 OFFCURVE",
"236.333 1160 OFFCURVE",
"223 1048 CURVE SMOOTH",
"216 993 LINE",
"70 993 LINE",
"62 912 LINE",
"62 890 OFFCURVE",
"75.333 877.333 OFFCURVE",
"102 874 CURVE SMOOTH",
"200 862 LINE",
"64 -250 LINE",
"134 -250 LINE SMOOTH",
"184 -250 OFFCURVE",
"214.667 -225 OFFCURVE",
"226 -175 CURVE SMOOTH",
"272 32 LINE",
"375 865 LINE"
);
}
);
userData = {
assembly = "NPUSHB[ ]\011/* 22 values pushed */
0 0 0 33 0 33 32 31 28 26 23 22 21 19 18 16 11 10 5 3 9 7 
CALL[ ]\011/* CallFunction */
MPPEM[ ]\011/* MeasurePixelPerEm */
PUSHB[ ]\011/* 1 value pushed */
9 
LT[ ]\011/* LessThan */
IF[ ]\011/* If */
NPUSHB[ ]\011/* 61 values pushed */
24 1 1 5 9 1 7 1 6 1 4 7 3 30 0 5 5 2 1 0 36 3 1 2 2 17 31 8 1 7 7 1 0 0 36 6 1 1 1 14 31 0 4 4 12 31 0 0 0 1 0 0 36 6 1 1 1 14 0 32 8 
ELSE[ ]\011/* Else */
MPPEM[ ]\011/* MeasurePixelPerEm */
PUSHB[ ]\011/* 1 value pushed */
38 
LT[ ]\011/* LessThan */
IF[ ]\011/* If */
NPUSHB[ ]\011/* 61 values pushed */
24 1 1 5 9 1 7 1 6 1 4 7 3 30 0 5 5 2 1 0 36 3 1 2 2 13 31 8 1 7 7 1 0 0 36 6 1 1 1 14 31 0 4 4 12 31 0 0 0 1 0 0 36 6 1 1 1 14 0 32 8 
ELSE[ ]\011/* Else */
MPPEM[ ]\011/* MeasurePixelPerEm */
PUSHB[ ]\011/* 1 value pushed */
50 
LT[ ]\011/* LessThan */
IF[ ]\011/* If */
NPUSHB[ ]\011/* 65 values pushed */
24 1 1 5 9 1 7 1 6 1 4 7 3 30 0 3 3 17 31 0 5 5 2 1 0 36 0 2 2 13 31 8 1 7 7 1 0 0 36 6 1 1 1 14 31 0 4 4 12 31 0 0 0 1 0 0 36 6 1 1 1 14 0 32 9 
ELSE[ ]\011/* Else */
MPPEM[ ]\011/* MeasurePixelPerEm */
PUSHB[ ]\011/* 1 value pushed */
95 
LT[ ]\011/* LessThan */
IF[ ]\011/* If */
NPUSHB[ ]\011/* 57 values pushed */
24 1 1 5 9 1 7 1 6 1 4 7 3 30 8 1 7 4 1 7 0 0 35 6 1 1 0 0 1 0 1 0 37 0 3 3 17 31 0 5 5 2 1 0 36 0 2 2 13 31 0 4 4 12 4 32 7 
ELSE[ ]\011/* Else */
MPPEM[ ]\011/* MeasurePixelPerEm */
PUSHB[ ]\011/* 1 value pushed */
108 
LT[ ]\011/* LessThan */
IF[ ]\011/* If */
NPUSHB[ ]\011/* 60 values pushed */
24 1 1 5 9 1 7 1 6 1 4 7 3 30 0 3 2 5 2 3 5 50 8 1 7 4 1 7 0 0 35 6 1 1 0 0 1 0 1 0 37 0 5 5 2 1 0 36 0 2 2 13 31 0 4 4 15 4 32 7 
ELSE[ ]\011/* Else */
MPPEM[ ]\011/* MeasurePixelPerEm */
PUSHB[ ]\011/* 1 value pushed */
141 
LT[ ]\011/* LessThan */
IF[ ]\011/* If */
NPUSHB[ ]\011/* 63 values pushed */
24 1 1 5 9 1 7 1 6 1 4 7 3 30 0 3 2 5 2 3 5 50 0 4 7 0 7 4 0 50 8 1 7 4 1 7 0 0 35 6 1 1 0 0 1 0 1 0 37 0 5 5 2 1 0 36 0 2 2 13 5 32 7 
ELSE[ ]\011/* Else */
MPPEM[ ]\011/* MeasurePixelPerEm */
PUSHB[ ]\011/* 1 value pushed */
232 
LT[ ]\011/* LessThan */
IF[ ]\011/* If */
NPUSHB[ ]\011/* 68 values pushed */
24 1 1 5 9 1 7 1 6 1 4 7 3 30 0 3 2 5 2 3 5 50 0 4 7 0 7 4 0 50 0 2 0 5 1 2 5 1 0 38 6 1 1 8 1 7 4 1 7 0 0 38 6 1 1 1 0 1 0 36 0 0 1 0 1 0 33 7 
ELSE[ ]\011/* Else */
NPUSHB[ ]\011/* 74 values pushed */
24 1 1 5 9 1 7 6 6 1 4 7 3 30 0 3 2 5 2 3 5 50 0 4 7 0 7 4 0 50 0 2 0 5 1 2 5 1 0 38 0 1 6 0 1 0 0 35 0 6 8 1 7 4 6 7 0 0 38 0 1 1 0 1 0 36 0 0 1 0 1 0 33 8 
EIF[ ]\011/* EndIf */
EIF[ ]\011/* EndIf */
EIF[ ]\011/* EndIf */
EIF[ ]\011/* EndIf */
EIF[ ]\011/* EndIf */
EIF[ ]\011/* EndIf */
EIF[ ]\011/* EndIf */
PUSHB[ ]\011/* 1 value pushed */
56 
CALL[ ]\011/* CallFunction */";
};
width = 1095;
}
);
note = fl;
unicode = FB02;
},
{
glyphname = ordfeminine;
layers = (
{
layerId = "30DC88F3-813A-4685-BB5F-1C042FFC1B6D";
paths = (
{
closed = 1;
nodes = (
"594 840 LINE",
"641 1221 LINE SMOOTH",
"642.333 1231.667 OFFCURVE",
"643 1244.333 OFFCURVE",
"643 1255 CURVE SMOOTH",
"643 1363.6 OFFCURVE",
"575.438 1449 OFFCURVE",
"460 1449 CURVE SMOOTH",
"369.333 1449 OFFCURVE",
"290 1419.667 OFFCURVE",
"218 1353 CURVE",
"235 1313 LINE SMOOTH",
"240.333 1299.667 OFFCURVE",
"250.333 1289 OFFCURVE",
"269 1289 CURVE SMOOTH",
"305.406 1289 OFFCURVE",
"375.341 1346 OFFCURVE",
"432 1346 CURVE SMOOTH",
"496 1346 OFFCURVE",
"520 1307.333 OFFCURVE",
"520 1246 CURVE SMOOTH",
"520 1242 OFFCURVE",
"520 1238 OFFCURVE",
"520 1234 CURVE SMOOTH",
"520 1230 OFFCURVE",
"519.667 1225.667 OFFCURVE",
"519 1221 CURVE SMOOTH",
"514 1183 LINE",
"372.667 1179 OFFCURVE",
"280.333 1151.833 OFFCURVE",
"223 1112.5 CURVE SMOOTH",
"165.667 1073.167 OFFCURVE",
"143 1021.333 OFFCURVE",
"143 968 CURVE SMOOTH",
"143 877.333 OFFCURVE",
"203.333 831 OFFCURVE",
"290 831 CURVE SMOOTH",
"371.661 831 OFFCURVE",
"426.835 862.261 OFFCURVE",
"492 917 CURVE",
"497 868 LINE SMOOTH",
"499.667 842.667 OFFCURVE",
"513.333 840 OFFCURVE",
"536 840 CURVE SMOOTH"
);
},
{
closed = 1;
nodes = (
"296.333 920 OFFCURVE",
"265 938.667 OFFCURVE",
"265 984 CURVE SMOOTH",
"265 1064.559 OFFCURVE",
"352.699 1097.385 OFFCURVE",
"505 1102 CURVE",
"492 993 LINE",
"444 946.333 OFFCURVE",
"400.333 920 OFFCURVE",
"339 920 CURVE SMOOTH"
);
}
);
userData = {
assembly = "NPUSHB[ ]\011/* 26 values pushed */
47 46 1 0 51 50 46 57 47 57 37 35 30 28 25 23 17 16 10 8 0 45 1 45 10 7 
CALL[ ]\011/* CallFunction */
MPPEM[ ]\011/* MeasurePixelPerEm */
PUSHB[ ]\011/* 1 value pushed */
54 
LT[ ]\011/* LessThan */
IF[ ]\011/* If */
NPUSHB[ ]\011/* 54 values pushed */
33 1 3 5 4 1 0 6 2 30 0 4 3 2 3 4 2 50 0 2 0 7 6 2 7 1 0 38 9 1 6 1 8 2 0 6 0 1 0 37 0 3 3 5 1 0 36 0 5 5 17 3 32 6 
ELSE[ ]\011/* Else */
MPPEM[ ]\011/* MeasurePixelPerEm */
PUSHB[ ]\011/* 1 value pushed */
95 
LT[ ]\011/* LessThan */
IF[ ]\011/* If */
NPUSHB[ ]\011/* 61 values pushed */
33 1 3 5 4 1 0 6 2 30 0 4 3 2 3 4 2 50 8 1 0 6 1 6 0 1 50 0 2 0 7 6 2 7 1 0 38 9 1 6 0 1 6 1 1 0 37 0 3 3 5 1 0 36 0 5 5 17 3 32 7 
ELSE[ ]\011/* Else */
NPUSHB[ ]\011/* 72 values pushed */
33 1 3 5 4 1 0 6 2 30 0 4 3 2 3 4 2 50 8 1 0 6 1 6 0 1 50 0 5 0 3 4 5 3 1 0 38 0 2 0 7 6 2 7 1 0 38 9 1 6 0 1 6 1 0 35 9 1 6 6 1 1 0 36 0 1 6 1 1 0 33 8 
EIF[ ]\011/* EndIf */
EIF[ ]\011/* EndIf */
PUSHB[ ]\011/* 1 value pushed */
56 
CALL[ ]\011/* CallFunction */";
};
width = 632;
}
);
note = ordfeminine;
unicode = 00AA;
},
{
glyphname = ordmasculine;
layers = (
{
layerId = "30DC88F3-813A-4685-BB5F-1C042FFC1B6D";
paths = (
{
closed = 1;
nodes = (
"374 1448 OFFCURVE",
"291.5 1413.5 OFFCURVE",
"233.5 1351.5 CURVE SMOOTH",
"175.5 1289.5 OFFCURVE",
"142 1200 OFFCURVE",
"142 1092 CURVE SMOOTH",
"142 931.306 OFFCURVE",
"237.798 828 OFFCURVE",
"395 828 CURVE SMOOTH",
"491 828 OFFCURVE",
"572.833 862.5 OFFCURVE",
"629.5 924.5 CURVE SMOOTH",
"686.167 986.5 OFFCURVE",
"720 1075.667 OFFCURVE",
"720 1185 CURVE SMOOTH",
"720 1344.514 OFFCURVE",
"626.13 1448 OFFCURVE",
"470 1448 CURVE SMOOTH"
);
},
{
closed = 1;
nodes = (
"318.667 931 OFFCURVE",
"277 990 OFFCURVE",
"277 1090 CURVE SMOOTH",
"277 1237.449 OFFCURVE",
"326.006 1345 OFFCURVE",
"459 1345 CURVE SMOOTH",
"543 1345 OFFCURVE",
"587 1285 OFFCURVE",
"587 1185 CURVE SMOOTH",
"587 1029 OFFCURVE",
"528 931 OFFCURVE",
"408 931 CURVE SMOOTH"
);
}
);
userData = {
assembly = "NPUSHB[ ]\011/* 18 values pushed */
21 20 1 0 27 25 20 33 21 33 11 9 0 19 1 19 6 7 
CALL[ ]\011/* CallFunction */
MPPEM[ ]\011/* MeasurePixelPerEm */
PUSHB[ ]\011/* 1 value pushed */
95 
LT[ ]\011/* LessThan */
IF[ ]\011/* If */
NPUSHB[ ]\011/* 25 values pushed */
5 1 2 0 1 2 1 1 0 37 0 3 3 0 1 0 36 4 1 0 0 17 3 32 3 
ELSE[ ]\011/* Else */
NPUSHB[ ]\011/* 36 values pushed */
4 1 0 0 3 2 0 3 1 0 38 5 1 2 1 1 2 1 0 35 5 1 2 2 1 1 0 36 0 1 2 1 1 0 33 4 
EIF[ ]\011/* EndIf */
PUSHB[ ]\011/* 1 value pushed */
56 
CALL[ ]\011/* CallFunction */";
};
width = 704;
}
);
note = ordmasculine;
unicode = 00BA;
},
{
glyphname = pi;
layers = (
{
layerId = "30DC88F3-813A-4685-BB5F-1C042FFC1B6D";
paths = (
{
closed = 1;
nodes = (
"187 1011 LINE SMOOTH",
"146.943 1011 OFFCURVE",
"116.007 978.066 OFFCURVE",
"113 948 CURVE SMOOTH",
"105 885 LINE",
"277 885 LINE",
"199 244 LINE SMOOTH",
"188.333 154.667 OFFCURVE",
"152 114 OFFCURVE",
"72 114 CURVE SMOOTH",
"23.6 114 OFFCURVE",
"8.04 116.18 OFFCURVE",
"2 89 CURVE SMOOTH",
"-13 17 LINE",
"23 -5.667 OFFCURVE",
"64.667 -12 OFFCURVE",
"106 -12 CURVE SMOOTH",
"268.667 -12 OFFCURVE",
"351 83.333 OFFCURVE",
"371 242 CURVE SMOOTH",
"450 885 LINE",
"807 885 LINE",
"700 0 LINE",
"872 0 LINE",
"980 885 LINE",
"1104 885 LINE SMOOTH",
"1138.667 885 OFFCURVE",
"1163.333 912.333 OFFCURVE",
"1166 943 CURVE SMOOTH",
"1174 1011 LINE"
);
}
);
userData = {
assembly = "NPUSHB[ ]\011/* 20 values pushed */
0 0 0 33 0 32 27 26 23 20 14 12 9 8 7 6 5 3 8 7 
CALL[ ]\011/* CallFunction */
MPPEM[ ]\011/* MeasurePixelPerEm */
PUSHB[ ]\011/* 1 value pushed */
40 
LT[ ]\011/* LessThan */
IF[ ]\011/* If */
NPUSHB[ ]\011/* 36 values pushed */
16 1 1 4 1 30 5 2 2 0 0 6 1 0 36 7 1 6 6 14 31 0 4 4 1 1 0 36 3 1 1 1 12 1 32 5 
ELSE[ ]\011/* Else */
MPPEM[ ]\011/* MeasurePixelPerEm */
PUSHB[ ]\011/* 1 value pushed */
95 
LT[ ]\011/* LessThan */
IF[ ]\011/* If */
NPUSHB[ ]\011/* 40 values pushed */
16 1 1 4 1 30 5 2 2 0 0 6 1 0 36 7 1 6 6 14 31 0 1 1 12 31 0 4 4 3 1 0 36 0 3 3 21 3 32 6 
ELSE[ ]\011/* Else */
MPPEM[ ]\011/* MeasurePixelPerEm */
PUSHB[ ]\011/* 1 value pushed */
108 
LT[ ]\011/* LessThan */
IF[ ]\011/* If */
NPUSHB[ ]\011/* 40 values pushed */
16 1 1 4 1 30 5 2 2 0 0 6 1 0 36 7 1 6 6 14 31 0 1 1 15 31 0 4 4 3 1 0 36 0 3 3 21 3 32 6 
ELSE[ ]\011/* Else */
MPPEM[ ]\011/* MeasurePixelPerEm */
PUSHB[ ]\011/* 1 value pushed */
232 
LT[ ]\011/* LessThan */
IF[ ]\011/* If */
NPUSHB[ ]\011/* 50 values pushed */
16 1 1 4 1 30 0 1 4 3 4 1 3 50 7 1 6 5 2 2 0 4 6 0 0 0 38 0 4 1 3 4 1 0 35 0 4 4 3 1 0 36 0 3 4 3 1 0 33 6 
ELSE[ ]\011/* Else */
NPUSHB[ ]\011/* 62 values pushed */
16 1 1 4 1 30 0 5 6 2 2 5 42 0 0 2 4 2 0 42 0 1 4 3 4 1 3 50 7 1 6 0 2 0 6 2 0 0 38 0 4 1 3 4 1 0 35 0 4 4 3 1 0 36 0 3 4 3 1 0 33 8 
EIF[ ]\011/* EndIf */
EIF[ ]\011/* EndIf */
EIF[ ]\011/* EndIf */
EIF[ ]\011/* EndIf */
PUSHB[ ]\011/* 1 value pushed */
56 
CALL[ ]\011/* CallFunction */";
};
width = 1144;
}
);
note = pi;
unicode = 03C0;
},
{
glyphname = zero;
layers = (
{
layerId = "30DC88F3-813A-4685-BB5F-1C042FFC1B6D";
paths = (
{
closed = 1;
nodes = (
"527 1447 OFFCURVE",
"373 1376.333 OFFCURVE",
"261 1231 CURVE SMOOTH",
"149 1085.667 OFFCURVE",
"79 866.333 OFFCURVE",
"79 569 CURVE SMOOTH",
"79 373 OFFCURVE",
"124.833 227.167 OFFCURVE",
"201.5 130.5 CURVE SMOOTH",
"278.167 33.833 OFFCURVE",
"387 -15 OFFCURVE",
"515 -15 CURVE SMOOTH",
"683 -15 OFFCURVE",
"836 55.667 OFFCURVE",
"948 201 CURVE SMOOTH",
"1060 346.333 OFFCURVE",
"1130 566.667 OFFCURVE",
"1130 864 CURVE SMOOTH",
"1130 1058.667 OFFCURVE",
"1084.167 1204.833 OFFCURVE",
"1007.5 1301.5 CURVE SMOOTH",
"930.833 1398.167 OFFCURVE",
"821.667 1447 OFFCURVE",
"695 1447 CURVE SMOOTH"
);
},
{
closed = 1;
nodes = (
"462.333 130 OFFCURVE",
"392.667 160.5 OFFCURVE",
"342 230.5 CURVE SMOOTH",
"291.333 300.5 OFFCURVE",
"259 412 OFFCURVE",
"259 572 CURVE SMOOTH",
"259 820 OFFCURVE",
"306.167 1002.833 OFFCURVE",
"381.5 1123.5 CURVE SMOOTH",
"456.833 1244.167 OFFCURVE",
"561 1303 OFFCURVE",
"673 1303 CURVE SMOOTH",
"747.667 1303 OFFCURVE",
"817.333 1272.667 OFFCURVE",
"868 1202 CURVE SMOOTH",
"918.667 1131.333 OFFCURVE",
"951 1020 OFFCURVE",
"951 860 CURVE SMOOTH",
"951 612 OFFCURVE",
"903.833 429 OFFCURVE",
"828.5 309 CURVE SMOOTH",
"753.167 189 OFFCURVE",
"649 130 OFFCURVE",
"537 130 CURVE SMOOTH"
);
}
);
userData = {
assembly = "NPUSHB[ ]\011/* 18 values pushed */
21 20 1 0 31 29 20 39 21 39 11 9 0 19 1 19 6 7 
CALL[ ]\011/* CallFunction */
MPPEM[ ]\011/* MeasurePixelPerEm */
PUSHB[ ]\011/* 1 value pushed */
95 
LT[ ]\011/* LessThan */
IF[ ]\011/* If */
NPUSHB[ ]\011/* 28 values pushed */
0 3 3 0 1 0 36 4 1 0 0 17 31 5 1 2 2 1 1 0 36 0 1 1 18 1 32 4 
ELSE[ ]\011/* Else */
MPPEM[ ]\011/* MeasurePixelPerEm */
PUSHB[ ]\011/* 1 value pushed */
108 
LT[ ]\011/* LessThan */
IF[ ]\011/* If */
NPUSHB[ ]\011/* 26 values pushed */
4 1 0 0 3 2 0 3 1 0 38 5 1 2 2 1 1 0 36 0 1 1 21 1 32 3 
ELSE[ ]\011/* Else */
NPUSHB[ ]\011/* 36 values pushed */
4 1 0 0 3 2 0 3 1 0 38 5 1 2 1 1 2 1 0 35 5 1 2 2 1 1 0 36 0 1 2 1 1 0 33 4 
EIF[ ]\011/* EndIf */
EIF[ ]\011/* EndIf */
PUSHB[ ]\011/* 1 value pushed */
56 
CALL[ ]\011/* CallFunction */";
};
width = 1160;
}
);
note = zero;
unicode = 0030;
},
{
glyphname = one;
layers = (
{
layerId = "30DC88F3-813A-4685-BB5F-1C042FFC1B6D";
paths = (
{
closed = 1;
nodes = (
"229 0 LINE",
"994 0 LINE",
"1010 132 LINE",
"726 132 LINE",
"886 1436 LINE",
"746 1436 LINE",
"276 1067 LINE",
"320 992 LINE SMOOTH",
"326.667 981.333 OFFCURVE",
"344 971 OFFCURVE",
"364 971 CURVE SMOOTH",
"377.333 971 OFFCURVE",
"390 975.667 OFFCURVE",
"402 985 CURVE SMOOTH",
"695 1214 LINE",
"677 1137 LINE",
"554 132 LINE",
"244 132 LINE"
);
}
);
userData = {
assembly = "NPUSHB[ ]\011/* 12 values pushed */
16 15 14 13 12 11 7 5 1 0 5 7 
CALL[ ]\011/* CallFunction */
MPPEM[ ]\011/* MeasurePixelPerEm */
PUSHB[ ]\011/* 1 value pushed */
95 
LT[ ]\011/* LessThan */
IF[ ]\011/* If */
NPUSHB[ ]\011/* 35 values pushed */
10 3 2 1 2 1 30 0 1 2 0 2 1 0 50 0 2 2 11 31 3 1 0 0 4 0 2 36 0 4 4 12 4 32 5 
ELSE[ ]\011/* Else */
MPPEM[ ]\011/* MeasurePixelPerEm */
PUSHB[ ]\011/* 1 value pushed */
108 
LT[ ]\011/* LessThan */
IF[ ]\011/* If */
NPUSHB[ ]\011/* 32 values pushed */
10 3 2 1 2 1 30 0 2 1 2 52 0 1 0 1 52 3 1 0 0 4 0 2 36 0 4 4 15 4 32 5 
ELSE[ ]\011/* Else */
MPPEM[ ]\011/* MeasurePixelPerEm */
PUSHB[ ]\011/* 1 value pushed */
232 
LT[ ]\011/* LessThan */
IF[ ]\011/* If */
NPUSHB[ ]\011/* 42 values pushed */
10 3 2 1 2 1 30 0 2 1 2 52 0 1 0 1 52 3 1 0 4 4 0 0 0 35 3 1 0 0 4 0 2 36 0 4 0 4 0 2 33 6 
ELSE[ ]\011/* Else */
NPUSHB[ ]\011/* 47 values pushed */
10 3 2 1 2 1 30 0 2 1 2 52 0 1 0 1 52 0 3 0 4 0 3 42 0 0 3 4 0 0 0 35 0 0 0 4 0 2 36 0 4 0 4 0 2 33 7 
EIF[ ]\011/* EndIf */
EIF[ ]\011/* EndIf */
EIF[ ]\011/* EndIf */
PUSHB[ ]\011/* 1 value pushed */
56 
CALL[ ]\011/* CallFunction */";
};
width = 1160;
}
);
note = one;
unicode = 0031;
},
{
glyphname = two;
layers = (
{
layerId = "30DC88F3-813A-4685-BB5F-1C042FFC1B6D";
paths = (
{
closed = 1;
nodes = (
"592.333 1447 OFFCURVE",
"480.333 1412 OFFCURVE",
"391 1344 CURVE SMOOTH",
"301.667 1276 OFFCURVE",
"233.333 1175.667 OFFCURVE",
"200 1045 CURVE",
"287 1030 LINE SMOOTH",
"295 1028.667 OFFCURVE",
"303.333 1028 OFFCURVE",
"310 1028 CURVE SMOOTH",
"343.333 1028 OFFCURVE",
"366.333 1042.333 OFFCURVE",
"381 1081 CURVE SMOOTH",
"430.333 1217 OFFCURVE",
"537.667 1300 OFFCURVE",
"687 1300 CURVE SMOOTH",
"823.381 1300 OFFCURVE",
"919 1222.587 OFFCURVE",
"919 1082 CURVE SMOOTH",
"919 990 OFFCURVE",
"891.167 912.167 OFFCURVE",
"838.5 835.5 CURVE SMOOTH",
"785.833 758.833 OFFCURVE",
"709.333 682.667 OFFCURVE",
"612 596 CURVE SMOOTH",
"94 133 LINE SMOOTH",
"70 111.667 OFFCURVE",
"56.667 81.667 OFFCURVE",
"54 59 CURVE SMOOTH",
"47 0 LINE",
"999 0 LINE",
"1006 53 LINE SMOOTH",
"1008.667 71.667 OFFCURVE",
"1012 97.667 OFFCURVE",
"1012 111 CURVE SMOOTH",
"1012 141.667 OFFCURVE",
"992.667 162 OFFCURVE",
"958 162 CURVE SMOOTH",
"468 162 LINE SMOOTH",
"417.333 162 OFFCURVE",
"361.667 153.667 OFFCURVE",
"307 139 CURVE",
"738 531 LINE SMOOTH",
"836.667 620.333 OFFCURVE",
"926.667 701.667 OFFCURVE",
"992 791 CURVE SMOOTH",
"1057.333 880.333 OFFCURVE",
"1098 977.667 OFFCURVE",
"1098 1099 CURVE SMOOTH",
"1098 1208.333 OFFCURVE",
"1058 1295 OFFCURVE",
"990 1355 CURVE SMOOTH",
"922 1415 OFFCURVE",
"825.667 1447 OFFCURVE",
"715 1447 CURVE SMOOTH"
);
}
);
userData = {
assembly = "NPUSHB[ ]\011/* 16 values pushed */
1 0 45 43 39 37 23 22 16 13 0 52 1 52 6 7 
CALL[ ]\011/* CallFunction */
MPPEM[ ]\011/* MeasurePixelPerEm */
PUSHB[ ]\011/* 1 value pushed */
95 
LT[ ]\011/* LessThan */
IF[ ]\011/* If */
NPUSHB[ ]\011/* 45 values pushed */
48 1 4 3 11 1 2 1 2 30 0 4 3 1 3 4 1 50 0 3 3 0 1 0 36 5 1 0 0 17 31 0 1 1 2 0 0 36 0 2 2 12 2 32 6 
ELSE[ ]\011/* Else */
MPPEM[ ]\011/* MeasurePixelPerEm */
PUSHB[ ]\011/* 1 value pushed */
108 
LT[ ]\011/* LessThan */
IF[ ]\011/* If */
NPUSHB[ ]\011/* 43 values pushed */
48 1 4 3 11 1 2 1 2 30 0 4 3 1 3 4 1 50 5 1 0 0 3 4 0 3 1 0 38 0 1 1 2 0 0 36 0 2 2 15 2 32 5 
ELSE[ ]\011/* Else */
NPUSHB[ ]\011/* 52 values pushed */
48 1 4 3 11 1 2 1 2 30 0 4 3 1 3 4 1 50 5 1 0 0 3 4 0 3 1 0 38 0 1 2 2 1 1 0 35 0 1 1 2 0 0 36 0 2 1 2 0 0 33 6 
EIF[ ]\011/* EndIf */
EIF[ ]\011/* EndIf */
PUSHB[ ]\011/* 1 value pushed */
56 
CALL[ ]\011/* CallFunction */";
};
width = 1160;
}
);
note = two;
unicode = 0032;
},
